<?xml version="1.0" encoding="utf-8"?>
<!-- Generator: Adobe Illustrator 26.0.0, SVG Export Plug-In . SVG Version: 6.00 Build 0)  -->
<svg version="1.1" id="Calque_1" xmlns="http://www.w3.org/2000/svg" xmlns:xlink="http://www.w3.org/1999/xlink" x="0px" y="0px"
	 viewBox="0 0 1022.7 994" style="enable-background:new 0 0 1022.7 994;" xml:space="preserve">
<style type="text/css">
	.st0{display:none;fill:none;stroke:#F9E930;stroke-width:3;stroke-miterlimit:10;}
	.st1{fill:#F9E930;}
	.st2{fill:#010202;}
</style>
<image style="display:none;overflow:visible;" width="1920" height="1080" xlink:href="68874CCA.jpg"  transform="matrix(1.6 0 0 1.6 -961.3379 -386.6689)">
</image>
<circle class="st0" cx="507" cy="509" r="497.2"/>
<g>
	<g>
		<g>
			<path class="st1" d="M517.3,507.5c13-14.3,23.6-30.6,35.6-45.7c5.8-7.2,12.6-13.8,17.8-21.4c2.6-3.8,4.8-8.1,5.8-12.7
				c1-4.9,0.1-9.5-0.5-14.3c-0.3-2.4-0.5-4.9,0.2-7.3c0.8-2.8,2.8-4.7,5.3-6.1c4.1-2.3,8.6-3.9,12.9-5.9c8.4-4,16.6-8.4,24.1-13.9
				c7.3-5.3,13.9-11.7,18.8-19.3c3.8-5.8,6.2-12.3,8.9-18.7c1.5-3.4,3-6.9,4.8-10.2c1.3-2.4,2.6-4.8,4.6-6.5
				c5.3-4.5,11.3-8.3,17.2-12c3-1.9,6-3.7,9.1-5.4c2.7-1.5,5.6-2.6,8.5-3.8c7.2-3.2,13.6-8,19.3-13.5c11.2-11,19.4-24.7,30.7-35.6
				c6.1-5.9,12.9-10.4,20.6-14c7.1-3.3,13.9-7.3,20.3-11.9c5.8-4.2,11.4-8.7,17.2-12.9c7.1-5.2,14.5-9.9,22.3-14
				c15.6-8.3,32.1-15,48.3-22c4.5-2,8.9-3.9,13.4-5.9c0.9-0.4,0.1-1.7-0.8-1.3c-15.7,7-31.4,13.7-47,20.8
				c-9.4,4.3-18.7,8.9-27.4,14.6c-6.4,4.1-12.5,8.8-18.5,13.4c-5.8,4.4-11.7,8.8-18,12.5c-7.4,4.3-15.5,7.3-22.4,12.2
				c-12.9,9.2-21.7,22.5-31.7,34.5c-5.1,6-10.6,11.8-17.1,16.4c-3.4,2.4-7.1,4.5-11,6.1c-2.7,1.1-5.3,2.3-7.9,3.7
				c-6.5,3.6-12.8,7.7-18.9,12c-2.4,1.7-4.8,3.3-7,5.2c-1.9,1.7-3.3,3.9-4.5,6.1c-3.5,6.4-6.2,13.3-9.1,20
				c-3.2,7.4-7.6,14-13.3,19.7c-6.7,6.8-14.6,12.2-22.9,16.8c-4.2,2.3-8.4,4.4-12.8,6.5c-4.2,1.9-8.9,3.4-12.7,6.1
				c-8.9,6.3-2.9,16.9-3.9,25.6c-1.2,10.2-8.7,18.4-15.3,25.6c-13,14.3-23.6,30.7-35.6,45.8c-2.7,3.3-5.4,6.6-8.2,9.8
				C515.6,507.2,516.7,508.2,517.3,507.5L517.3,507.5z"/>
		</g>
	</g>
	<g>
		<g>
			<path class="st1" d="M516.2,507.5c4.4,4.8,10.2,6.9,16.3,8.5c3.5,0.9,6.9,1.8,10.3,3c3.7,1.3,7.2,3.2,10.9,4.6
				c15.3,5.8,32.3,6.6,48.4,8.5c35.9,4.1,71.8,8.3,107.7,12.4c18,2.1,35.9,4.1,53.9,6.2c17.9,2.1,35.9,3.7,53.7,6.3
				c8.3,1.2,16.3,3.2,23.7,7.3c6.7,3.7,13,8,20.7,9.1c8.1,1.1,16.3-0.6,24.4-1.2c7.8-0.5,15.3,0.6,22.7,2.9
				c14,4.3,26.9,11.7,41.4,14.6c13.8,2.7,28.2-0.4,41.9,3.5c3.4,0.9,6.5,2.3,9.4,4.3c0.8,0.5,1.5-0.8,0.8-1.3
				c-11.3-7.7-26.1-6.6-39.1-6.8c-7.4-0.1-14.5-1.2-21.6-3.5c-6.9-2.2-13.5-5.1-20.2-7.8c-6.7-2.7-13.6-5.3-20.8-6.6
				c-7.7-1.4-15.3-0.8-23,0.1c-8.7,1-17.2,1.3-25.3-2.7c-6.8-3.3-12.8-7.7-20-10.1c-7.6-2.5-15.5-3.4-23.4-4.3c-9-1-18-2.1-26.9-3.1
				c-18-2.1-35.9-4.1-53.9-6.2c-35.7-4.1-71.5-8.2-107.2-12.4c-9-1-18-2.1-26.9-3.1c-8.5-1-17-1.8-25.4-3.4
				c-3.8-0.7-7.6-1.7-11.3-2.9c-3.8-1.3-7.4-3-11.1-4.6c-6.5-2.7-13.6-3.7-20.2-6.3c-3.4-1.4-6.4-3.3-8.8-6
				C516.7,505.7,515.6,506.8,516.2,507.5L516.2,507.5z"/>
		</g>
	</g>
	<g>
		<g>
			<path class="st1" d="M700.9,543.4c10.8-4.7,18.2-14,25.4-22.9c2.8-3.4,5.5-6.8,8.7-9.8c2.8-2.6,5.7-5.1,8.6-7.5
				c6.4-5.4,12.9-10.6,19.3-15.8c1.1-0.9,2.2-1.9,3.5-2.7c2.4-1.5,5.1-2.2,7.9-2.5c5.5-0.6,11,0,16.4-0.9c3.2-0.5,6.2-1.8,9.2-2.9
				c3-1.1,6-2.1,9-3.2c5.5-1.9,11.1-3.8,16.7-5.4c11-3.1,22.3-5.2,33.7-6c6.7-0.5,13.5-0.3,20.2-0.6c3.2-0.1,6.4-0.5,9.4-1.8
				c2.8-1.2,5.3-3,7.7-4.9c10.6-8.2,23.1-13,34.4-20.2c22-14.1,41.2-33.1,56.6-54.2c1.8-2.5,3.6-5,5.3-7.6c0.5-0.8-0.8-1.6-1.3-0.8
				c-14.5,21.9-33.2,41.6-54.7,56.8c-5.2,3.7-10.6,7.1-16.3,10.2c-5.9,3.2-12,6-17.7,9.5c-2.9,1.8-5.6,3.9-8.3,5.9
				c-2.6,2-5.3,3.7-8.5,4.6c-3.4,0.9-7,0.9-10.6,0.9c-3.4,0-6.9,0-10.3,0.2c-11.4,0.5-22.8,1.9-33.9,4.7c-11.6,2.9-22.9,6.9-34.1,11
				c-2.9,1.1-5.8,2.1-8.9,2.4c-2.8,0.3-5.5,0.3-8.3,0.3c-5.2,0.1-10.8,0.3-15.1,3.4c-2.4,1.8-4.6,3.8-6.9,5.6
				c-3.4,2.7-6.7,5.5-10,8.2c-3.4,2.8-6.8,5.6-10.1,8.5c-2.3,2-4.6,3.9-6.6,6.2c-7.7,8.6-14.2,18.8-23.8,25.6
				c-2.3,1.6-4.8,3-7.3,4.2C699.3,542.5,700,543.8,700.9,543.4L700.9,543.4z"/>
		</g>
	</g>
	<g>
		<g>
			<path class="st1" d="M927.6,231.5c-52.3-14-105.4-24.9-158.7-34.8c-13.2-2.5-26.4-5-39.7-7.2c-12.4-2.1-25.1-3.5-37.5-0.9
				c-12.1,2.6-23.2,8.2-34.5,12.8c-12.1,4.9-24.8,7.9-37.8,9c-26,2.1-52.1-2.6-77.5-7.7c-13.3-2.7-26.5-5.4-39.8-8.1
				c-12.6-2.6-25.4-5.2-37.3-10.1c-5.9-2.4-11.6-5.4-17.8-6.8c-5.9-1.3-12.1-1.3-18.1-0.9c-13.5,0.7-27.1,2.6-40.6,1.4
				c-12.5-1.1-24.1-5.6-35.8-9.8c-10-3.6-20.7-7.3-31.5-6.4c-4.5,0.4-8.9,1.6-13,3.7c-5,2.6-10.2,7.9-16.3,7.6
				c-6.7-0.4-8.3-7.8-9.4-13.1c-0.9-4.3-2.1-8.4-4-12.3c-8.6-17.3-26.3-29.1-42.6-38.4c-4.2-2.4-8.4-4.7-12.6-6.9
				c-0.9-0.4-1.6,0.8-0.8,1.3c17.6,9.2,36.2,19.6,48.7,35.4c3.2,4,5.9,8.5,7.7,13.3c1.6,4.4,2.1,9,3.5,13.5c1.1,3.3,2.9,6.5,6.3,7.9
				c4.3,1.8,8.7-0.1,12.5-2.3c5.3-3.1,9.9-6.5,16-7.7c5.8-1.2,11.7-0.7,17.5,0.5c11.4,2.4,22,7.2,33,10.8
				c12.1,3.9,24.2,5.1,36.9,4.6c13.4-0.6,27.6-3.6,40.9-1c6.3,1.2,12,4.1,17.9,6.6c6,2.5,12.1,4.4,18.3,6.1
				c12.8,3.3,25.9,5.7,38.9,8.3c25.3,5.2,50.7,11,76.6,12.3c12.6,0.6,25.3,0.1,37.7-2.3c12.1-2.4,23.2-7,34.4-11.8
				c12.4-5.3,24.8-9.5,38.4-9.3c13.8,0.2,27.5,3.4,41,5.8c53.3,9.7,106.5,20.1,159.1,33.4c6.5,1.6,13,3.3,19.4,5.1
				C928.1,233.2,928.5,231.8,927.6,231.5L927.6,231.5z"/>
		</g>
	</g>
	<g>
		<g>
			<path class="st1" d="M611.6,20.3c5.9,3.8,12.5,6.4,18.9,9.4c6.4,3,13.3,6,18.6,10.8c3.3,3,5.3,7,7.2,10.9c2.3,4.7,4.6,9.3,7,13.9
				c4.8,9.3,9.8,18.5,14.9,27.6c5.2,9.1,10.5,18.1,16,27c5.1,8.3,10,16.8,18.3,22.3c2,1.3,4,2.3,6.2,3.3c2.1,0.9,4.1,1.9,5.8,3.7
				c1.6,1.8,2.9,3.9,4.2,5.9c1.3,1.9,2.6,3.8,4.1,5.6c5.7,7.3,12.3,14,19.7,19.7c7.6,5.9,16.3,9.8,25,13.8c4.4,2,8.6,4.2,13.1,5.9
				c4.7,1.8,9.5,3.2,14.5,4.2c1.5,0.3,5.1,0.3,5.7,2c0.3,0.9,1.8,0.5,1.4-0.4c-0.6-1.6-2.1-2.2-3.6-2.5c-2.4-0.5-4.8-0.9-7.2-1.5
				c-5-1.2-9.8-2.9-14.5-5c-4.4-2-8.8-4.1-13.2-6.1c-4.3-2-8.6-4-12.7-6.4c-8.3-4.9-15.7-11.5-22.2-18.7c-3.2-3.6-6.2-7.4-8.9-11.4
				c-1.3-1.9-2.4-3.8-3.9-5.5c-1.5-1.7-3.3-2.9-5.3-3.9c-4.4-2-8.5-4.2-12.1-7.5c-3.7-3.4-6.6-7.7-9.3-12c-5.6-8.9-11-18-16.3-27.1
				c-5.3-9.1-10.4-18.4-15.3-27.7c-2.5-4.7-4.9-9.4-7.3-14.1c-2.2-4.4-4.1-9-6.9-13.1c-4-5.9-10.8-9.3-17-12.4
				c-6.8-3.4-13.8-6.2-20.5-9.8c-1.3-0.7-2.5-1.4-3.7-2.2C611.5,18.5,610.8,19.8,611.6,20.3L611.6,20.3z"/>
		</g>
	</g>
	<g>
		<g>
			<path class="st1" d="M537.6,517.1c-11,0-21.1,4.7-30.8,9.3c-5.1,2.4-10.3,4.9-15.6,6.8c-6,2.1-12.1,3.1-18.5,3.6
				c-6.3,0.6-12.4,1.4-18.4,3.4c-6,2-11.6,4.8-17.2,7.7c-4.9,2.6-10,5-14.4,8.6c-2.1,1.7-3.9,3.7-5.3,6c-1.5,2.3-2.6,4.9-4.4,7
				c-3.7,4.4-9.3,4.4-14.5,3.5c-5-0.9-10-2.4-15.1-2c-9.9,0.7-15.9,9.6-24.1,14.1c-5.6,3.1-11.8,2.7-18,2.1c-6.2-0.6-12-0.4-18.1,1
				c-6,1.3-11.8,3.2-17.7,4.3c-6.2,1.2-12.3,1.4-18.4-0.2c-5.8-1.5-11.3-4-17-5.9c-2.7-0.9-5.5-1.7-8.4-2.1c-2.9-0.4-6.3,0-8.9-1.7
				c-2.5-1.6-4.5-4.2-6.9-6c-2.1-1.6-4.3-3.1-6.7-4.3c-4.8-2.5-10-4-15.4-4.4c-2.7-0.2-5.3,0-8,0.4c-1,0.1-0.5,1.6,0.4,1.4
				c11.7-1.8,23.2,2.7,31.8,10.6c2,1.9,3.8,3.9,6.6,4.6c2.9,0.7,5.9,0.5,8.8,1.1c5.7,1.2,11.1,3.5,16.5,5.5c5.6,2,11.3,3.5,17.2,3.3
				c5.9-0.2,11.7-1.6,17.4-3.2c6-1.6,12-3.3,18.2-3.5c6.4-0.3,12.9,1.5,19.3,0.7c10.2-1.2,16-10.2,24.6-14.6
				c4.9-2.5,10-2.2,15.2-1.2c4.7,0.9,9.6,2.3,14.4,1.6c5.1-0.8,8.1-4.3,10.6-8.5c1.4-2.5,2.9-4.9,5-7c2-2,4.4-3.6,6.8-5.1
				c5.1-3.1,10.6-5.8,16-8.4c5.9-2.8,12-5.2,18.5-6.4c6.5-1.2,13.1-1.1,19.5-2.4c5.5-1,10.7-3,15.8-5.2c10.2-4.4,20-10.3,31-12.5
				c2.7-0.6,5.5-0.8,8.3-0.8C538.6,518.6,538.6,517.1,537.6,517.1L537.6,517.1z"/>
		</g>
	</g>
	<g>
		<g>
			<path class="st1" d="M215.9,568.4c-18.3,3.3-37,4.3-55,9.1c-14.9,3.9-29.6,10.9-40.3,22.4c-2.8,3-5.3,6.4-7.4,10
				c-1,1.8-1.8,3.8-2.9,5.7c-1,1.6-2.5,3.8-4.7,3.1c-0.6-0.2-1,0.4-0.9,0.9c0.4,2.7,0.7,5.7-0.2,8.4c-1,2.8-3.5,4.3-5.8,5.9
				c-4.3,2.9-7,7-10.1,11c-3.5,4.6-7.9,8-13,10.6c-4.8,2.5-9.8,4.5-14.7,6.9c-5.8,2.8-11.5,5.7-17.5,8.2c-0.9,0.4-0.5,1.8,0.4,1.4
				c5.4-2.3,10.6-4.9,15.9-7.4c5.3-2.5,10.7-4.8,15.9-7.4c5.2-2.6,9.9-5.9,13.5-10.5c1.7-2.2,3.3-4.5,5.1-6.7c1.8-2.2,3.9-4,6.3-5.6
				c2.4-1.6,4.6-3.3,5.5-6.1c1-3,0.6-6.2,0.2-9.2c-0.3,0.3-0.6,0.6-0.9,0.9c3.4,1,5.7-2.3,7-4.9c1.8-3.4,3.5-6.8,5.8-9.9
				c4.7-6.3,10.8-11.5,17.5-15.6c14.9-9.2,32.1-12.8,49.2-15.3c10.5-1.5,21.1-2.7,31.6-4.6C217.2,569.7,216.8,568.3,215.9,568.4
				L215.9,568.4z"/>
		</g>
	</g>
	<g>
		<g>
			<path class="st1" d="M518.7,508.8c-10.1-5.3-19.9,3.2-29.8,4.3c-4,0.5-8.9,0.2-12.1-2.7c-1.9-1.7-2.4-4-2.8-6.4
				c-0.5-2.5-1.6-4.4-3.6-6c-4.4-3.7-9.4-6.7-13.9-10.2c-5.1-3.9-10.1-7.9-14.9-12.1c-9.3-8-18-16.5-26.4-25.5
				c-7-7.5-14.7-15.6-25.3-17.2c-11.3-1.7-23.5,3.6-34.2-1.7c-8.8-4.3-13.9-13.4-20.8-19.9c-6.6-6.3-15-8.9-23-12.9
				c-3.7-1.9-7.4-4.1-10-7.4c-3.5-4.7-3.2-10.2-3.5-15.7c-0.3-4.7-1.7-9.1-5.4-12.2c-3.3-2.8-7.6-4.2-11.8-4.7
				c-5.4-0.6-10.8,0.8-15.9,2.4c-5.9,1.9-11.7,4-17.9,5.1c-12.6,2.2-25.7,1.2-38.1-1.9c-6.1-1.5-11.9-3.7-17.8-5.6
				c-5.6-1.7-11.3-2.3-17.2-1.5c-5.9,0.8-11.6,2.9-17.2,5.1c-2.7,1.1-5.4,2.3-8.1,3.5c-2.8,1.2-6.6,3.7-9.8,3
				c-2.8-0.7-4.9-3.4-6.8-5.3c-2.1-2.1-4.1-4.4-5.8-6.8c-3.3-4.6-5.8-10.3-4.4-16.1c1.3-5.4,5.5-9.5,8.7-13.9c3.3-4.6,6-9.7,7.9-15
				c1.9-5.2,3-10.7,3.4-16.3c0.4-6.2-0.5-12.4-0.7-18.6c-0.1-3.2,0-6.4,0.8-9.5c0.7-2.8,2-5.3,3.4-7.8c2.4-4.3,5.4-8.7,6-13.8
				c0.7-5.6-2.6-10.1-3.5-15.4c-1.1-6.6,0.8-13.3,3.1-19.5c4.4-12.1,9.5-23.9,11.2-36.7c0.8-5.8,0.8-11.5,0-17.3
				c-0.1-1-1.6-0.5-1.4,0.4c2,13.3-1.4,26.4-5.8,38.9c-3.9,11-10.8,23.3-8.3,35.4c0.6,2.9,2,5.6,2.9,8.5c0.8,2.8,0.7,5.7-0.2,8.5
				c-1.6,5.2-5.1,9.5-7.3,14.4c-4.9,11.1-0.6,23.4-1.8,35c-0.7,6.1-2.3,12.1-4.8,17.7c-2.5,5.5-5.8,10.2-9.5,14.9
				c-3,4-5.8,8.2-5.9,13.4c-0.1,5,2.2,9.7,5,13.7c1.6,2.2,3.3,4.2,5.1,6.1c1.8,1.9,3.6,3.9,5.7,5.4c4.7,3.3,10.1-0.3,14.6-2.3
				c11.5-5.1,23.9-10.5,36.7-7.5c6.1,1.4,11.8,4,17.9,5.6c5.9,1.6,12,2.8,18.1,3.5c12.4,1.3,24.6,0,36.5-3.9
				c10-3.3,22.3-7.6,31.7-0.2c5,3.9,5.3,9.6,5.5,15.5c0.2,4.6,0.9,9,3.9,12.8c5.3,6.6,14.2,9.2,21.5,12.7c4.3,2,8.2,4.4,11.6,7.7
				c3.5,3.4,6.5,7.3,9.8,10.9c3.1,3.4,6.5,6.7,10.6,8.8c4.6,2.4,9.8,3,14.9,2.8c5.9-0.2,11.8-1.3,17.7-1c5.9,0.4,11.2,2.7,15.9,6.3
				c4.4,3.3,8.1,7.4,11.9,11.4c4.2,4.5,8.5,8.9,13,13.2c8.8,8.4,18,16.3,27.7,23.7c2.5,1.9,5,3.7,7.5,5.6c2.4,1.7,5.2,3.3,7.3,5.4
				c2.4,2.4,2,5.2,3.1,8.2c0.6,1.6,1.7,3,3,4c7.1,5.4,16.7,1.8,24.1-0.9c5.6-2,11.9-4,17.5-1.1C518.8,510.6,519.6,509.3,518.7,508.8
				L518.7,508.8z"/>
		</g>
	</g>
	<g>
		<g>
			<path class="st1" d="M80.2,262.8c20.7-8.7,42.5-14.6,64.8-17.3c11.2-1.4,22.4-1.4,33.6-2c5.1-0.3,10.2-0.8,15.2-2
				c5.4-1.3,10.7-3.3,16.2-4.4c5.4-1.1,10.6-0.8,16.1-0.3c4.5,0.4,9.3,0.6,13.6-1.3c4-1.8,6.6-5.3,9.5-8.4c3-3.3,6.4-6.1,10.1-8.6
				c14-9.4,31.6-14.4,42.5-28c3.2-4,5.6-8.5,8.5-12.6c3.3-4.7,7.3-8.6,11.7-12.2c9-7.4,18.1-14.6,27.2-21.8
				c4.6-3.7,9.2-7.4,13.8-11.1c4.7-3.7,9-6.8,15.1-7.4c4.9-0.5,9-1.1,13.1-4.2c3.6-2.7,6.8-5.3,11.2-6.5c14-3.6,33.5,4.6,43.6-9.2
				c2.8-3.8,4.3-8.5,7.7-12c3.8-3.9,9.2-5.9,14.1-8.1c10.2-4.7,21-9.1,32.4-9c3.9,0,8.5,1,11.2-2.5c2.4-3.1,2.3-7.6,3.9-11.1
				c3.4-7.2,10.8-11.3,17.8-14.4c7.5-3.3,15.2-6,22.5-9.9c8.3-4.4,16.3-9.3,24-14.8c3.3-2.4,6.5-4.8,9.6-7.5
				c0.7-0.6-0.3-1.7-1.1-1.1c-6.9,6.1-14.7,11.3-22.5,16c-7.5,4.5-15.2,8.6-23.3,11.9c-7.1,2.9-14.6,5.5-20.8,10.2
				c-2.7,2-5,4.5-6.7,7.4c-2,3.5-2,7.7-3.8,11.2c-1.6,3-4.5,3.3-7.6,3.1c-2.7-0.1-5.4-0.2-8.2,0.1c-5.1,0.5-10.1,1.8-15,3.5
				c-4.9,1.7-9.7,3.8-14.4,6c-4.3,2-9,3.9-12.5,7.2c-3.2,3.1-4.9,7.2-7.2,10.9c-2.4,3.9-5.7,6.8-10.1,8.2c-7.7,2.4-16.2,1-24.2,1.1
				c-3.8,0.1-7.6,0.4-11.2,1.6c-4.2,1.4-7.2,4.1-10.7,6.6c-4.6,3.3-9.6,2.8-14.9,3.9c-4.6,0.9-8.3,3.7-11.9,6.5
				c-9.2,7.3-18.4,14.7-27.5,22.1c-8.5,6.8-18.1,13.2-24.8,21.8c-3.1,4-5.5,8.5-8.5,12.7c-2.8,3.9-6.2,7.3-10,10.2
				c-6.8,5.2-14.7,8.9-22.2,12.9c-7.4,3.9-14.7,8.1-20.6,14.1c-3.4,3.5-6.1,7.9-10.8,9.7c-4.9,1.9-10.3,1.1-15.4,0.7
				c-4.9-0.4-9.6-0.2-14.4,0.8c-5.5,1.2-10.8,3.1-16.2,4.4c-11.1,2.6-22.6,1.8-33.9,2.5c-21.7,1.4-43.3,5.7-63.9,12.8
				c-5.1,1.8-10,3.7-15,5.8C78.9,261.7,79.3,263.2,80.2,262.8L80.2,262.8z"/>
		</g>
	</g>
	<g>
		<g>
			<path class="st1" d="M281.7,206.6c3.9,11.1,6,22.7,6.1,34.5c0.1,6.1-1,12.1-0.8,18.2c0.2,5.5,2.1,10.7,2.7,16.1
				c1.4,12.1-1.9,24.1-4.9,35.7c-3,11.8-5.9,23.7-8.9,35.5c-1.3,5.3-2,12.1-5,16.7c-2.8,4.4-8.4,5.9-12.7,8.3
				c-7.7,4.2-14.5,10.3-19.1,17.8c-4.7,7.7-6.9,16.7-6,25.7c0.4,4.2,1.5,8.4,3.3,12.3c1,2.1,2.2,4,3.5,5.9c1.7,2.3,3.7,4.6,3.7,7.6
				c0.2,9.7-13.5,13.8-18.9,20.1c-2.2,2.6-4.2,6-3.7,9.6c0.5,4.5,4.8,5.8,6.5,9.5c1.5,3.2-0.1,6.4-1,9.5c-0.7,2.4-1,4.9-1,7.4
				c0,5.2,1.3,10.3,2.3,15.4c1.2,5.8,1.9,11.6,1.3,17.5c-0.6,5.9-2.2,11.7-4.1,17.4c-3.8,11.3-8.4,22.4-12.7,33.5
				c-4.3,11.2-8,22.8-13,33.7c-1.1,2.4-2.3,4.6-4,6.6c-1.7,2-4,3.5-6,5.2c-3.1,2.6-5.1,5.8-5.7,9.8c-0.6,3.6,0,7.4,1.7,10.6
				c0.4,0.7,0.9,1.4,1.3,2.1c0.7,1.2,0.6,1.4,0.2,2.8c-0.8,3-1.9,5.9-2.8,8.9c-7.3,22.9-14.4,45.9-22.1,68.6
				c-3.6,10.7-7.7,21.4-13,31.4c-2.4,4.6-5,9.7-8.8,13.4c-1.4,1.5-4.1,3.9-6.4,3.6c-1.5-0.2-2.6-1.6-3.7-2.5c-2.1-1.7-4.3-2.5-7-2
				c-0.2,0-0.5,0.3-0.5,0.5c-1.6,8.7-5.4,16.7-11.3,23.3c-0.6,0.7,0.4,1.8,1.1,1.1c3.6-4.1,6.5-8.6,8.6-13.6
				c1.2-2.8,1.7-5.7,2.7-8.4c0.5-1.5,1-1.8,2.7-1.3c1.2,0.3,2.2,1.1,3.1,1.9c2,1.6,3.7,3.2,6.4,2.2c4.6-1.6,7.7-6.2,10.2-10.1
				c13.8-22.2,20.4-48.4,28.3-73.1c4.9-15.2,9.8-30.5,14.7-45.7c0.1-0.3,0-0.5-0.2-0.7c-5.3-5.8-5.2-15.2,0.5-20.7
				c2.6-2.5,5.8-4.3,8-7.3c2.2-2.8,3.6-6.2,4.9-9.5c6.7-17,13.1-34.2,19.7-51.3c3-7.9,6.2-15.9,7.9-24.2c1.7-8.1,1.3-15.9-0.4-24
				c-0.9-4.1-1.9-8.2-2.2-12.4c-0.2-2.4-0.2-4.7,0.3-7.1c0.4-2.4,1.4-4.6,2-7c0.6-2.8,0.4-5.3-1.4-7.5c-2.3-2.9-5.8-4.8-5.4-9.1
				c0.6-8,9.9-11.9,15.3-16.2c4.1-3.2,8.4-8,7.2-13.6c-0.7-3.3-3.3-5.7-5-8.5c-2.1-3.3-3.6-6.9-4.5-10.7c-1.8-7.5-1.2-15.5,1.5-22.7
				c2.7-7,7.3-13.2,12.9-18.1c2.7-2.3,5.6-4.3,8.7-6c3.4-1.9,7.2-3.1,10.3-5.5c5.7-4.3,6.4-12.4,8.1-18.9c2.3-9.2,4.6-18.3,6.9-27.5
				c2.4-9.6,5.2-19.2,6.7-29.1c0.7-4.5,1.1-9,0.9-13.5c-0.2-4.8-1.5-9.4-2.4-14.2c-1-5.3-0.4-10.4,0-15.7c0.3-4.8,0.3-9.6,0-14.4
				c-0.7-9.6-2.7-19.1-5.9-28.2C282.8,205.3,281.4,205.7,281.7,206.6L281.7,206.6z"/>
		</g>
	</g>
	<g>
		<g>
			<path class="st1" d="M133.4,366.9c-2.6-0.2-3.3,3-2.6,5c1,2.9,5.3,4.5,3.3,8c-0.8,1.5-2.2,2.6-3.4,3.8c-1,1.1-1.9,2.2-2.7,3.5
				c-1.5,2.7-2.4,5.7-3,8.7c-1.3,6.1-1.8,13-6,17.9c-4.4,5.2-11.6,6.7-16.7,11c-9.6,8-8.4,23.8-19.3,30.5c-3,1.9-6.5,3.1-9.2,5.5
				c-2.3,2.1-3.8,4.9-4.8,7.9c-2.2,6.4-2.7,13.2-6.7,18.9c-8.8,12.4-26.1,14.7-40.2,14c-2.1-0.1-4.1-0.3-6.2-0.4c-1-0.1-1,1.4,0,1.5
				c14.4,1.2,30.6,0.8,42.4-8.7c2.5-2,4.7-4.5,6.4-7.3c1.7-2.9,2.7-6,3.5-9.2c0.8-3.2,1.4-6.4,2.7-9.5c1.3-3.4,3.5-6.1,6.6-7.9
				c3-1.8,6.4-3.1,9-5.5c2.1-1.9,3.7-4.4,5.1-6.9c2.8-5.5,4.3-11.5,7.5-16.8c1.7-2.8,3.9-5,6.6-6.7c2.9-1.8,6-3.2,8.9-4.9
				c2.7-1.6,5.2-3.7,6.9-6.4c1.6-2.6,2.5-5.5,3.2-8.4c1.4-6,1.8-12.9,5.7-18.1c1.8-2.3,4.9-4.1,5.6-7.2c0.3-1.4,0-2.8-0.9-4
				c-0.9-1.2-2.3-2.2-2.9-3.6c-0.4-1-0.4-3.2,1.1-3.1C134.3,368.5,134.3,367,133.4,366.9L133.4,366.9z"/>
		</g>
	</g>
	<g>
		<g>
			<path class="st1" d="M21.6,428.8c5,21.1,19.3,38.3,33.9,53.6c3.7,3.8,7.4,7.7,11.2,11.4c3.8,3.7,7.8,7.2,12.3,9.9
				c4.2,2.6,9,4.4,14,4.6c2.5,0.1,5.9-1,7.7,1.3c1.5,1.8,1.7,4.5,2.3,6.7c5.1,19.7,17.8,37,34.8,48c7.4,4.8,16.3,9.2,21.3,16.8
				c1.2,1.8,2.1,3.7,2.6,5.8c0.7,2.9,0.5,6,0.2,8.9c-0.7,5.3-1.2,10.5-1.3,15.8c-0.1,21.2,5.1,42.8,14.8,61.6
				c1.2,2.2,2.4,4.4,3.7,6.6c0.5,0.8,1.8,0.1,1.3-0.8c-11-18.2-17.2-39.8-18.2-61c-0.3-5.3-0.2-10.6,0.3-15.8
				c0.5-5.4,2-10.9,0.4-16.3c-2.4-8.5-10.4-13.9-17.5-18.4c-4-2.6-8.2-5-12-7.9c-4.1-3.1-7.9-6.6-11.3-10.4
				c-6.9-7.7-12.3-16.7-15.7-26.4c-0.9-2.4-1.6-4.8-2.2-7.2c-0.6-2.2-0.9-4.6-2.2-6.5c-1.4-2-3.4-2.4-5.7-2.3
				c-2.6,0.2-5.2,0.1-7.8-0.5c-10.4-2.5-18.4-10.8-25.6-18.1c-15-15.3-30.6-31.6-37.9-52.2c-0.9-2.4-1.6-4.9-2.2-7.4
				C22.8,427.4,21.4,427.8,21.6,428.8L21.6,428.8z"/>
		</g>
	</g>
	<g>
		<g>
			<path class="st1" d="M307.3,399.3c-1.4,13.8-2.3,27.7-2.9,41.6c-0.3,6.9-0.8,13.8-0.9,20.7c0,2.7,0.3,5.3,2.1,7.4
				c1.5,1.8,3.7,2.9,5.7,4.1c2.2,1.2,4.3,2.5,6,4.5c1.6,1.9,2.8,4.3,3.6,6.7c1.7,5.1,2,10.6,2.3,15.9c0.9,13.9,1.6,27.8,2.2,41.8
				c0.7,15.6,1.1,31.2,1.4,46.8c0,1,1.5,1,1.5,0c-0.5-27.9-1.6-55.8-3.3-83.6c-0.3-5.7-0.5-11.5-1.6-17.1c-0.9-4.7-2.7-9.4-6.2-12.7
				c-1.8-1.7-3.9-2.8-6-4c-2.1-1.2-4.4-2.5-5.4-4.9c-1.4-3-0.6-6.9-0.5-10.1c0.1-3.5,0.3-6.9,0.4-10.4c0.7-15.5,1.6-31.1,3.2-46.5
				C308.9,398.3,307.4,398.4,307.3,399.3L307.3,399.3z"/>
		</g>
	</g>
	<g>
		<g>
			<path class="st1" d="M326.2,588.1c-2.7,4.4-1.4,9.2,0.7,13.6c2.5,5.1,6.1,9.9,7.3,15.6c1.1,5.5-0.7,11.3,0.7,16.7
				c0.6,2.4,2,4.3,4,5.7c1.6,1.1,3.3,2.2,2.5,4.4c-0.6,1.9-2.4,3.2-4,4.3c-11.3,8.1-23.8,15-32.7,25.9c-4,4.9-7.3,10.5-9,16.7
				c-0.8,3-1.3,6.1-1.3,9.1c0,2.9,0.4,6.1,2.3,8.4c2,2.4,5.1,3.1,7.8,4.4c2.7,1.3,5,3.3,6.8,5.7c3.4,4.7,4.9,10.5,6,16
				c3.1,15.5,5.1,31.3,6.5,47c1.4,15.7,2.3,31.6-1.7,47c-1.9,7.3-4.7,14.4-7.9,21.3c-2.9,6.3-6,12.7-9.6,18.7
				c-3.3,5.6-7.3,11.1-12.7,14.9c-5.6,4-12.5,5.5-18.4,9c-10.5,6.1-14.8,17.9-17.3,29.2c-0.6,2.9-1.1,5.8-1.6,8.7
				c-0.2,0.9,1.3,1.4,1.4,0.4c1.9-11.5,4.3-24.6,13-33.1c5-4.9,11.7-6.8,17.9-9.7c5.7-2.6,10.3-6.6,14.1-11.5
				c4.1-5.3,7.1-11.2,10.1-17.1c3.2-6.4,6.3-13,8.8-19.7c2.6-6.9,4.6-14.1,5.6-21.5c1-7.6,1-15.4,0.6-23.1
				c-0.8-15.6-2.6-31.3-5.1-46.7c-1.1-6.8-2-13.8-4-20.5c-1.5-5.1-3.9-10.4-8-13.9c-2.1-1.8-4.5-2.8-7-3.8c-1.6-0.7-3.2-1.4-4.3-2.8
				c-1.3-1.6-1.7-3.7-1.9-5.7c-0.5-6.8,1.6-13.5,4.9-19.4c7.1-12.5,19.3-20.6,31-28.4c2.7-1.8,5.7-3.6,8.1-5.7
				c1.9-1.6,3.8-4.2,2.7-6.8c-1.1-2.5-4.2-3.2-5.6-5.6c-1.4-2.4-1.4-5.4-1.4-8.1c0.1-2.8,0.3-5.7,0.1-8.5c-0.2-2.6-1-5.1-2.1-7.5
				c-2.3-5.1-6-9.7-7.3-15.2c-0.6-2.6-0.4-5.2,1-7.5C328,588,326.7,587.2,326.2,588.1L326.2,588.1z"/>
		</g>
	</g>
	<g>
		<g>
			<path class="st1" d="M179.3,679.9c6,5.7,12.6,10.8,19.6,15.1c3.5,2.2,7.2,4.3,10.9,6.1c3.3,1.7,7,3.5,10.8,3.4
				c3.1-0.1,5.8-1.7,7.4-4.3c1.6-2.6,2.1-5.7,2.9-8.6c0.8-3,2-5.6,4.3-7.8c2-2,4.5-3.4,7.1-4.6c5.1-2.5,10.7-4.4,15-8.2
				c2.3-2.1,3.7-4.7,4.9-7.6c0.7-1.8,1.5-3.6,2.8-5.1c1-1.1,2.3-2,3.6-2.7c5-2.7,11.3-3.9,13.2-10c0.6-1.9,1-3.7,2.5-5.1
				c1.2-1.1,2.7-1.6,4.2-2c3.2-0.8,6.6-0.9,9.9-1.9c15.4-4.8,22.3-21,26.3-35.3c0.6-2,1.1-4.1,1.6-6.1c0.2-0.9-1.2-1.3-1.4-0.4
				c-3.8,14.7-8.6,31.7-23.4,39c-3.2,1.6-6.5,2.1-10,2.7c-2.9,0.4-5.9,1-8.2,3c-2.6,2.3-2.3,6-4.4,8.6c-1.8,2.3-4.6,3.4-7.2,4.5
				c-2.5,1.1-5.2,2.2-7.2,4.1c-2.6,2.4-3.4,5.9-4.9,8.9c-2.7,5.2-8.1,7.8-13.2,10.1c-4.8,2.2-10.2,4.4-13.6,8.6
				c-1.8,2.3-2.8,5-3.5,7.8c-0.8,2.8-1.3,6-3.2,8.4c-2.5,3.2-6.6,3-10.1,1.8c-3.9-1.3-7.6-3.4-11.1-5.4c-7.1-4-13.8-8.6-20-13.9
				c-1.6-1.3-3.1-2.7-4.6-4.1C179.6,678.1,178.5,679.2,179.3,679.9L179.3,679.9z"/>
		</g>
	</g>
	<g>
		<g>
			<path class="st1" d="M485.2,511.6c-5,6.7-4.5,15.5-2.3,23.1c1.4,4.9,3.5,9.5,5.2,14.2c1.6,4.5,2.4,8.9,3.2,13.6
				c0.7,4.1,2,7.7,5.1,10.6c1.6,1.5,3.4,2.7,4.7,4.5c1.2,1.7,1.8,3.8,2,5.9c0.6,6.9-2.4,14.8,2.3,20.9c2,2.6,7,5.7,7,9.3
				c0,2.4-2.5,3.5-3.9,5c-1.3,1.5-2,3.2-2.5,5.1c-2.3,8.1-2.6,17.2-2.5,25.6c0.3,17.5,4.3,34.8,11.1,50.9
				c6.9,16.3,16.5,31.4,28.1,44.7c12.4,14.2,27.3,26.1,35.3,43.6c4.2,9.3,7.8,18.7,13.3,27.3c5,7.8,11.1,14.8,17.7,21.3
				c13.1,13.1,28.1,24.5,39.9,38.8c9.8,11.9,16,26.8,20.6,41.4c4.9,15.4,8.2,31.5,9.4,47.7c0.3,3.4,0.4,6.8,0.4,10.2
				c0,1,1.5,1,1.5,0c-0.1-15.1-2.5-30.2-6.1-44.9c-3.8-15.3-9-30.5-16.9-44.2c-8.5-14.6-21.3-25.8-33.7-37
				c-14.3-13-28.1-26.3-37-43.7c-4.5-8.8-7.3-18.3-12.6-26.7c-4.8-7.7-11.1-14.4-17.4-20.8c-6.3-6.4-12.6-12.8-18.2-19.9
				c-5.8-7.2-10.9-14.9-15.4-23c-8.7-15.6-14.8-32.8-17.3-50.5c-1.2-8.7-1.5-17.6-0.8-26.4c0.4-4.6,0.8-9.3,2-13.7
				c0.6-2.4,1.7-4.4,3.5-6c1.3-1.1,2.5-2.2,2.9-3.9c0.6-2.9-1.7-5.4-3.6-7.3c-3-3.1-5.5-5.7-5.9-10.2c-0.6-6.9,2.4-14.9-2.3-20.9
				c-1.2-1.5-2.8-2.6-4.2-3.9c-1.9-1.7-3.3-3.7-4.1-6.2c-1.4-4.4-1.5-9.1-2.8-13.6c-2.7-9.2-7.9-17.8-8.1-27.6
				c-0.1-4.5,1-8.9,3.7-12.5C487,511.6,485.7,510.8,485.2,511.6L485.2,511.6z"/>
		</g>
	</g>
	<g>
		<g>
			<path class="st1" d="M133.4,828.3c13.3-7.2,26.6-14.3,40-21.3c13.4-6.9,26.7-13.9,40.3-20.4c6.8-3.2,13.7-6.2,21.1-8
				c6.4-1.6,13.4-1.6,18.9-5.9c2.8-2.2,5.2-4.9,8.2-6.8c3.1-1.9,6.5-3.1,10-4c7.5-1.9,15.1-3.1,22.5-5.1
				c13.8-3.6,26.5-9.9,38.5-17.4c11.9-7.4,23.4-15.6,34.5-24.2c5.5-4.3,10.8-9,15.2-14.5c3.6-4.6,6.5-9.8,9.5-14.9
				c3-5,6.1-10.1,10.2-14.1c4.8-4.7,10.8-7.3,17.5-8.2c6.8-0.9,13.7-0.3,20.6-0.4c6.6-0.1,12.9-1,19.2-3.2
				c12.2-4.3,22.9-11.9,34.8-17.1c3-1.3,6.1-2.5,9.3-3.4c0.9-0.3,0.5-1.7-0.4-1.4c-12.6,3.6-23.4,11-35,16.7
				c-5.9,2.9-12.1,5.3-18.6,6.3c-7,1.1-14.1,0.5-21.1,0.5c-6.4,0-13,0.6-18.9,3.3c-5.1,2.4-9.2,6.3-12.5,10.8
				c-3.5,4.6-6.3,9.8-9.3,14.8c-3.4,5.7-7.1,10.9-11.9,15.6c-5.1,5-10.9,9.4-16.8,13.6c-5.8,4.2-11.6,8.4-17.6,12.4
				c-11.8,8.1-24.3,15.5-37.8,20.4c-7.2,2.6-14.7,4.2-22.2,5.8c-6.8,1.4-14.1,2.5-20.1,6.2c-2.8,1.7-5.1,4.1-7.6,6.2
				c-2.9,2.5-6.2,3.8-9.9,4.6c-3.5,0.7-7,1.2-10.5,2.1c-3.6,0.9-7.1,2.1-10.6,3.5c-6.9,2.7-13.5,6.1-20.1,9.4
				c-6.8,3.4-13.7,6.9-20.5,10.4c-13.3,6.8-26.4,13.7-39.6,20.8c-3.4,1.8-6.7,3.6-10.1,5.4C131.8,827.5,132.5,828.8,133.4,828.3
				L133.4,828.3z"/>
		</g>
	</g>
	<g>
		<g>
			<path class="st1" d="M512.6,616.5c12.2,0.9,23.6-4.5,33.7-10.8c10.6-6.6,20.6-14.2,31.4-20.6c11-6.6,22.9-11.8,35.9-12
				c11.2-0.2,26.2,1.6,33.2-9.5c1.8-2.8,2.5-6.1,4.2-8.9c1.4-2.3,3.4-4.2,5.4-6c4.3-3.6,9.3-6.9,14.6-8.7c0.9-0.3,0.5-1.8-0.4-1.4
				c-4.5,1.5-8.8,4.1-12.6,6.9c-3.8,2.8-7.4,6.1-9.4,10.5c-1.3,2.9-2.3,6-4.4,8.5c-1.8,2.2-4.3,3.7-6.9,4.8
				c-6,2.5-12.5,2.4-18.9,2.3c-6.6-0.1-13,0.3-19.3,2c-5.9,1.7-11.6,4.2-17,7.1c-11,6-21.2,13.5-31.6,20.4
				c-11.3,7.5-23.9,14.8-38,13.8C511.6,614.9,511.6,616.4,512.6,616.5L512.6,616.5z"/>
		</g>
	</g>
	<g>
		<g>
			<path class="st1" d="M505.1,660.8c18-5.3,36.7-7.2,55.5-7.4c18-0.3,36.1,0.3,54.1,1.2c16.2,0.8,32.6,2.5,48.1,7.6
				c7.6,2.5,15,5.9,21.7,10.3c7.1,4.7,13.2,10.8,19.2,16.8c5.8,5.9,11.7,11.9,18.7,16.5c7.5,5,15.3,9,22.3,14.7
				c5.4,4.5,10.8,9.6,17.7,11.5c3.5,1,6.8,0.6,10.3,0.4c2.2-0.2,4.5-0.2,6.2,1.4c1.4,1.4,2,3.5,3,5.2c3.4,5.8,10.8,6.4,16.8,5.8
				c8.1-0.7,16-2.6,23.6-5.4c7.6-2.8,14.8-6.7,21.4-11.4c7-5,12.7-11.9,20.3-16c13.6-7.2,30.7-5.9,44.8-1
				c13.8,4.8,26.7,13.4,35.4,25.1c2,2.6,3.7,5.5,5.2,8.4c0.4,0.9,1.7,0.1,1.3-0.8c-6.3-12.4-17-22.1-29.1-28.7
				c-12.2-6.7-26.4-10.6-40.4-9.4c-8.2,0.7-16.4,3.1-23,8.1c-3.4,2.6-6.4,5.6-9.7,8.3c-3.3,2.8-6.9,5.4-10.6,7.8
				c-7.3,4.5-15.3,8-23.6,10.4c-4.2,1.2-8.5,2.1-12.9,2.6c-3.8,0.5-7.7,0.8-11.4-0.1c-4.2-1-6.4-3.5-8.2-7.2
				c-1.4-2.9-3.5-4.7-6.8-4.9c-4-0.2-7.7,0.9-11.7-0.1c-3.8-1-7.2-3.1-10.4-5.4c-3.2-2.4-6.2-5.1-9.4-7.6c-3.2-2.6-6.7-4.9-10.2-7
				c-3.9-2.3-7.8-4.5-11.5-7.1c-3.7-2.6-7.1-5.5-10.3-8.6c-6.2-5.9-11.9-12.4-18.5-18c-6-5.1-12.8-9.3-20-12.5
				c-14.5-6.5-30.4-9.2-46.2-10.5c-17.5-1.5-35.2-1.8-52.8-2c-18.5-0.3-37.1,0.3-55.3,4c-4.7,0.9-9.3,2.1-13.9,3.5
				C503.7,659.7,504.1,661.1,505.1,660.8L505.1,660.8z"/>
		</g>
	</g>
</g>
<g>
	<path class="st2" d="M590.3,380.7c-1.2,0-2.4-0.2-3.4-0.6s-1.9-1-2.7-1.7s-1.4-1.6-1.8-2.6c-0.4-1-0.6-2.1-0.6-3.3s0.2-2.3,0.6-3.3
		c0.4-1,1-1.9,1.8-2.6c0.8-0.7,1.7-1.3,2.7-1.7c1-0.4,2.2-0.6,3.4-0.6c1.2,0,2.4,0.2,3.4,0.6c1.1,0.4,1.9,1,2.7,1.9l-1.5,1.4
		c-0.6-0.6-1.3-1.1-2.1-1.4c-0.8-0.3-1.6-0.5-2.5-0.5c-0.9,0-1.7,0.2-2.5,0.5c-0.8,0.3-1.4,0.7-2,1.3c-0.6,0.6-1,1.2-1.3,2
		c-0.3,0.8-0.5,1.6-0.5,2.5s0.2,1.7,0.5,2.5c0.3,0.8,0.8,1.4,1.3,2c0.6,0.6,1.2,1,2,1.3c0.8,0.3,1.6,0.5,2.5,0.5
		c0.9,0,1.7-0.2,2.5-0.5c0.8-0.3,1.5-0.8,2.1-1.5l1.5,1.4c-0.7,0.8-1.6,1.5-2.7,1.9C592.7,380.5,591.5,380.7,590.3,380.7z"/>
	<path class="st2" d="M602.8,380.7c-0.9,0-1.7-0.2-2.4-0.5c-0.7-0.3-1.2-0.7-1.6-1.3c-0.4-0.5-0.6-1.2-0.6-1.9
		c0-0.7,0.2-1.3,0.5-1.8c0.3-0.5,0.8-1,1.5-1.3c0.7-0.3,1.7-0.5,2.9-0.5h3.9v1.6h-3.8c-1.1,0-1.8,0.2-2.2,0.6
		c-0.4,0.4-0.6,0.8-0.6,1.3c0,0.6,0.2,1.1,0.7,1.4s1.1,0.5,2,0.5c0.8,0,1.6-0.2,2.2-0.6s1.1-0.9,1.3-1.6l0.4,1.5
		c-0.3,0.7-0.8,1.3-1.5,1.7C604.8,380.5,603.9,380.7,602.8,380.7z M606.8,380.5V378l-0.1-0.5v-4.4c0-0.9-0.3-1.7-0.8-2.2
		c-0.5-0.5-1.4-0.8-2.4-0.8c-0.7,0-1.4,0.1-2.1,0.4c-0.7,0.2-1.3,0.6-1.7,1l-0.9-1.7c0.6-0.5,1.4-0.9,2.3-1.2
		c0.9-0.3,1.8-0.4,2.8-0.4c1.7,0,3,0.4,3.9,1.2c0.9,0.8,1.4,2.1,1.4,3.7v7.4H606.8z"/>
	<path class="st2" d="M613,380.5v-17.1h2.2v17.1H613z"/>
	<path class="st2" d="M619.4,380.5v-17.1h2.2v17.1H619.4z"/>
	<path class="st2" d="M629.4,380.7c-0.9,0-1.7-0.2-2.4-0.5c-0.7-0.3-1.2-0.7-1.6-1.3c-0.4-0.5-0.6-1.2-0.6-1.9
		c0-0.7,0.2-1.3,0.5-1.8c0.3-0.5,0.8-1,1.5-1.3c0.7-0.3,1.7-0.5,2.9-0.5h3.9v1.6h-3.8c-1.1,0-1.8,0.2-2.2,0.6
		c-0.4,0.4-0.6,0.8-0.6,1.3c0,0.6,0.2,1.1,0.7,1.4s1.1,0.5,2,0.5c0.8,0,1.6-0.2,2.2-0.6s1.1-0.9,1.3-1.6l0.4,1.5
		c-0.3,0.7-0.8,1.3-1.5,1.7C631.4,380.5,630.5,380.7,629.4,380.7z M633.4,380.5V378l-0.1-0.5v-4.4c0-0.9-0.3-1.7-0.8-2.2
		c-0.5-0.5-1.4-0.8-2.4-0.8c-0.7,0-1.4,0.1-2.1,0.4c-0.7,0.2-1.3,0.6-1.7,1l-0.9-1.7c0.6-0.5,1.4-0.9,2.3-1.2
		c0.9-0.3,1.8-0.4,2.8-0.4c1.7,0,3,0.4,3.9,1.2c0.9,0.8,1.4,2.1,1.4,3.7v7.4H633.4z"/>
	<path class="st2" d="M644.9,380.7c-1.2,0-2.4-0.3-3.3-0.8c-1-0.5-1.7-1.3-2.3-2.2s-0.8-2-0.8-3.2s0.3-2.3,0.8-3.2
		c0.6-0.9,1.3-1.7,2.3-2.2c1-0.5,2.1-0.8,3.3-0.8c1.1,0,2.1,0.2,3,0.7c0.9,0.4,1.5,1.1,2,1.9l-1.7,1.1c-0.4-0.6-0.9-1-1.5-1.3
		c-0.6-0.3-1.2-0.4-1.9-0.4c-0.8,0-1.5,0.2-2.1,0.5c-0.6,0.4-1.1,0.8-1.5,1.5s-0.6,1.4-0.6,2.3s0.2,1.6,0.6,2.3
		c0.4,0.6,0.9,1.1,1.5,1.5c0.6,0.4,1.3,0.5,2.1,0.5c0.7,0,1.3-0.1,1.9-0.4c0.6-0.3,1.1-0.7,1.5-1.3l1.7,1.1c-0.5,0.8-1.1,1.5-2,1.9
		S646,380.7,644.9,380.7z"/>
	<path class="st2" d="M282.2,190.7v-16.1h1.9l7.2,12.2h-1l7.1-12.2h1.9l0,16.1h-2.2l0-12.6h0.5l-6.3,10.7h-1.1l-6.4-10.7h0.6v12.6
		H282.2z"/>
	<path class="st2" d="M309,190.8c-1.2,0-2.3-0.3-3.3-0.8c-1-0.5-1.7-1.3-2.3-2.2c-0.6-0.9-0.8-2-0.8-3.2c0-1.2,0.3-2.3,0.8-3.2
		s1.3-1.7,2.3-2.2c1-0.5,2-0.8,3.3-0.8c1.2,0,2.3,0.3,3.3,0.8c1,0.5,1.7,1.3,2.3,2.2c0.5,0.9,0.8,2,0.8,3.2s-0.3,2.3-0.8,3.2
		s-1.3,1.7-2.3,2.2C311.3,190.6,310.3,190.8,309,190.8z M309,188.9c0.8,0,1.5-0.2,2.1-0.5c0.6-0.4,1.1-0.9,1.5-1.5
		c0.4-0.7,0.5-1.4,0.5-2.3c0-0.9-0.2-1.6-0.5-2.3s-0.8-1.1-1.5-1.5c-0.6-0.4-1.3-0.5-2.1-0.5c-0.8,0-1.5,0.2-2.1,0.5
		s-1.1,0.8-1.5,1.5s-0.6,1.4-0.6,2.3c0,0.9,0.2,1.6,0.6,2.3c0.4,0.7,0.9,1.2,1.5,1.5C307.6,188.7,308.3,188.9,309,188.9z"/>
	<path class="st2" d="M318.4,190.7v-12.2h2.1v3.3l-0.2-0.8c0.3-0.8,0.9-1.5,1.7-1.9c0.8-0.4,1.8-0.7,2.9-0.7v2.1c-0.1,0-0.2,0-0.3,0
		c-0.1,0-0.2,0-0.2,0c-1.2,0-2.1,0.4-2.8,1.1c-0.7,0.7-1,1.7-1,3.1v6.1H318.4z"/>
	<path class="st2" d="M327.7,190.7v-17.1h2.2v17.1H327.7z"/>
	<path class="st2" d="M337.7,190.8c-0.9,0-1.7-0.2-2.4-0.5c-0.7-0.3-1.2-0.7-1.6-1.3c-0.4-0.5-0.6-1.2-0.6-1.9
		c0-0.7,0.2-1.3,0.5-1.8c0.3-0.5,0.8-1,1.5-1.3c0.7-0.3,1.7-0.5,2.9-0.5h3.9v1.6h-3.8c-1.1,0-1.8,0.2-2.2,0.6
		c-0.4,0.4-0.6,0.8-0.6,1.3c0,0.6,0.2,1.1,0.7,1.4s1.1,0.5,2,0.5c0.8,0,1.6-0.2,2.2-0.6s1.1-0.9,1.3-1.6l0.4,1.5
		c-0.3,0.7-0.8,1.3-1.5,1.7C339.7,190.6,338.8,190.8,337.7,190.8z M341.7,190.7v-2.6l-0.1-0.5v-4.4c0-0.9-0.3-1.7-0.8-2.2
		c-0.5-0.5-1.4-0.8-2.4-0.8c-0.7,0-1.4,0.1-2.1,0.4c-0.7,0.2-1.3,0.6-1.7,1l-0.9-1.7c0.6-0.5,1.4-0.9,2.3-1.2
		c0.9-0.3,1.8-0.4,2.8-0.4c1.7,0,3,0.4,3.9,1.2c0.9,0.8,1.4,2.1,1.4,3.7v7.4H341.7z"/>
	<path class="st2" d="M349,176.2c-0.4,0-0.8-0.1-1.1-0.4c-0.3-0.3-0.4-0.6-0.4-1c0-0.4,0.1-0.8,0.4-1c0.3-0.3,0.6-0.4,1.1-0.4
		c0.4,0,0.8,0.1,1.1,0.4c0.3,0.3,0.4,0.6,0.4,1c0,0.4-0.1,0.8-0.4,1C349.8,176,349.4,176.2,349,176.2z M347.9,190.7v-12.2h2.2v12.2
		H347.9z"/>
	<path class="st2" d="M352.5,190.7l5.2-6.8l0,1.1l-5-6.5h2.5l3.8,5h-0.9l3.8-5h2.4l-5.1,6.6l0-1.2l5.3,6.8h-2.5l-4-5.3l0.9,0.1
		l-4,5.2H352.5z"/>
	<path class="st2" d="M399.3,62.9V46.8h2.3v14.1h8.7v2H399.3z"/>
	<path class="st2" d="M417.7,63.1c-1.2,0-2.3-0.3-3.3-0.8c-1-0.5-1.7-1.3-2.3-2.2c-0.6-0.9-0.8-2-0.8-3.2c0-1.2,0.3-2.3,0.8-3.2
		s1.3-1.7,2.3-2.2c1-0.5,2-0.8,3.3-0.8c1.2,0,2.3,0.3,3.3,0.8c1,0.5,1.7,1.3,2.3,2.2c0.5,0.9,0.8,2,0.8,3.2s-0.3,2.3-0.8,3.2
		s-1.3,1.7-2.3,2.2C420,62.8,418.9,63.1,417.7,63.1z M417.7,61.1c0.8,0,1.5-0.2,2.1-0.5c0.6-0.4,1.1-0.9,1.5-1.5
		c0.4-0.7,0.5-1.4,0.5-2.3c0-0.9-0.2-1.6-0.5-2.3s-0.8-1.1-1.5-1.5c-0.6-0.4-1.3-0.5-2.1-0.5c-0.8,0-1.5,0.2-2.1,0.5
		s-1.1,0.8-1.5,1.5s-0.6,1.4-0.6,2.3c0,0.9,0.2,1.6,0.6,2.3c0.4,0.7,0.9,1.2,1.5,1.5C416.2,61,416.9,61.1,417.7,61.1z"/>
	<path class="st2" d="M432.4,63.1c-1.2,0-2.4-0.3-3.3-0.8c-1-0.5-1.7-1.3-2.3-2.2s-0.8-2-0.8-3.2s0.3-2.3,0.8-3.2
		c0.6-0.9,1.3-1.7,2.3-2.2c1-0.5,2.1-0.8,3.3-0.8c1.1,0,2.1,0.2,3,0.7c0.9,0.4,1.5,1.1,2,1.9l-1.7,1.1c-0.4-0.6-0.9-1-1.5-1.3
		c-0.6-0.3-1.2-0.4-1.9-0.4c-0.8,0-1.5,0.2-2.1,0.5c-0.6,0.4-1.1,0.8-1.5,1.5s-0.6,1.4-0.6,2.3s0.2,1.6,0.6,2.3
		c0.4,0.6,0.9,1.1,1.5,1.5c0.6,0.4,1.3,0.5,2.1,0.5c0.7,0,1.3-0.1,1.9-0.4c0.6-0.3,1.1-0.7,1.5-1.3l1.7,1.1c-0.5,0.8-1.1,1.5-2,1.9
		S433.5,63.1,432.4,63.1z"/>
	<path class="st2" d="M445.1,63.1c-1.2,0-2.2-0.3-3.2-0.8s-1.7-1.2-2.2-2.2c-0.5-0.9-0.8-2-0.8-3.3s0.3-2.3,0.8-3.3
		c0.5-0.9,1.3-1.7,2.2-2.2c0.9-0.5,2-0.8,3.2-0.8c1.1,0,2,0.2,2.8,0.7s1.5,1.2,2,2.1c0.5,0.9,0.7,2.1,0.7,3.5s-0.2,2.5-0.7,3.5
		c-0.5,0.9-1.2,1.6-2,2.1S446.1,63.1,445.1,63.1z M445.3,61.1c0.8,0,1.5-0.2,2.1-0.5c0.6-0.4,1.1-0.9,1.5-1.5
		c0.4-0.7,0.5-1.4,0.5-2.3c0-0.9-0.2-1.6-0.5-2.3s-0.9-1.1-1.5-1.5s-1.3-0.5-2.1-0.5c-0.8,0-1.5,0.2-2.1,0.5s-1.1,0.8-1.5,1.5
		s-0.6,1.4-0.6,2.3c0,0.9,0.2,1.6,0.6,2.3c0.4,0.7,0.9,1.2,1.5,1.5C443.8,61,444.5,61.1,445.3,61.1z M449.3,67.4v-7.7l0.2-2.8
		l-0.1-2.8v-3.3h2.1v16.7H449.3z"/>
	<path class="st2" d="M460.8,63.1c-1,0-2-0.2-2.7-0.6c-0.8-0.4-1.4-1-1.8-1.8c-0.4-0.8-0.7-1.8-0.7-3v-7h2.2v6.8
		c0,1.2,0.3,2.1,0.9,2.7c0.6,0.6,1.4,0.9,2.4,0.9c0.8,0,1.4-0.2,2-0.5s1-0.8,1.3-1.4s0.5-1.3,0.5-2.2v-6.3h2.2v12.2H465v-3.3
		l0.3,0.9c-0.4,0.8-1,1.4-1.8,1.9C462.7,62.8,461.8,63.1,460.8,63.1z"/>
	<path class="st2" d="M472.4,48.4c-0.4,0-0.8-0.1-1.1-0.4c-0.3-0.3-0.4-0.6-0.4-1c0-0.4,0.1-0.8,0.4-1c0.3-0.3,0.6-0.4,1.1-0.4
		c0.4,0,0.8,0.1,1.1,0.4c0.3,0.3,0.4,0.6,0.4,1c0,0.4-0.1,0.8-0.4,1C473.2,48.2,472.8,48.4,472.4,48.4z M471.3,62.9V50.7h2.2v12.2
		H471.3z"/>
	<path class="st2" d="M477.7,62.9V50.7h2.1V54l-0.2-0.8c0.3-0.8,0.9-1.5,1.7-1.9c0.8-0.4,1.8-0.7,2.9-0.7v2.1c-0.1,0-0.2,0-0.3,0
		c-0.1,0-0.2,0-0.2,0c-1.2,0-2.1,0.4-2.8,1.1c-0.7,0.7-1,1.7-1,3.1v6.1H477.7z"/>
	<path class="st2" d="M492.3,63.1c-1.3,0-2.5-0.3-3.4-0.8c-1-0.5-1.8-1.3-2.3-2.2s-0.8-2-0.8-3.2s0.3-2.3,0.8-3.2
		c0.5-0.9,1.3-1.7,2.2-2.2c0.9-0.5,2-0.8,3.1-0.8c1.2,0,2.2,0.3,3.1,0.8c0.9,0.5,1.6,1.3,2.1,2.2c0.5,0.9,0.8,2,0.8,3.3
		c0,0.1,0,0.2,0,0.3c0,0.1,0,0.2,0,0.3h-10.4V56h9.2l-0.9,0.6c0-0.8-0.1-1.5-0.5-2.1c-0.3-0.6-0.8-1.1-1.4-1.4
		c-0.6-0.3-1.3-0.5-2.1-0.5c-0.8,0-1.4,0.2-2,0.5c-0.6,0.3-1.1,0.8-1.4,1.4s-0.5,1.3-0.5,2.1v0.4c0,0.8,0.2,1.5,0.6,2.2
		c0.4,0.6,0.9,1.1,1.6,1.5c0.7,0.4,1.4,0.5,2.3,0.5c0.7,0,1.4-0.1,2-0.4c0.6-0.2,1.1-0.6,1.6-1.1l1.2,1.4c-0.6,0.6-1.2,1.1-2.1,1.5
		C494.2,62.9,493.3,63.1,492.3,63.1z"/>
	<path class="st2" d="M506.3,63.1c-1.2,0-2.4-0.3-3.3-0.8c-1-0.5-1.7-1.3-2.3-2.2s-0.8-2-0.8-3.2s0.3-2.3,0.8-3.2
		c0.6-0.9,1.3-1.7,2.3-2.2c1-0.5,2.1-0.8,3.3-0.8c1.1,0,2.1,0.2,3,0.7c0.9,0.4,1.5,1.1,2,1.9l-1.7,1.1c-0.4-0.6-0.9-1-1.5-1.3
		c-0.6-0.3-1.2-0.4-1.9-0.4c-0.8,0-1.5,0.2-2.1,0.5c-0.6,0.4-1.1,0.8-1.5,1.5S502,56,502,56.8s0.2,1.6,0.6,2.3
		c0.4,0.6,0.9,1.1,1.5,1.5c0.6,0.4,1.3,0.5,2.1,0.5c0.7,0,1.3-0.1,1.9-0.4c0.6-0.3,1.1-0.7,1.5-1.3l1.7,1.1c-0.5,0.8-1.1,1.5-2,1.9
		S507.4,63.1,506.3,63.1z"/>
	<path class="st2" d="M667.2,129.9v-16.1h7.2c1.9,0,3.3,0.4,4.3,1.1c1,0.7,1.5,1.8,1.5,3c0,0.9-0.2,1.6-0.6,2.2
		c-0.4,0.6-0.9,1.1-1.6,1.4c-0.7,0.3-1.4,0.5-2.1,0.5l0.4-0.7c0.9,0,1.7,0.2,2.4,0.5c0.7,0.3,1.3,0.8,1.7,1.4s0.6,1.4,0.6,2.3
		c0,1.4-0.5,2.4-1.6,3.2c-1,0.8-2.6,1.1-4.6,1.1H667.2z M669.5,128.1h5.3c1.3,0,2.2-0.2,2.9-0.6s1-1.1,1-2c0-0.9-0.3-1.6-1-2
		c-0.7-0.4-1.6-0.6-2.9-0.6h-5.5v-1.9h4.9c1.2,0,2.1-0.2,2.7-0.6c0.6-0.4,1-1.1,1-1.9c0-0.9-0.3-1.5-1-1.9c-0.6-0.4-1.5-0.6-2.7-0.6
		h-4.7V128.1z"/>
	<path class="st2" d="M689.7,130.1c-1.3,0-2.5-0.3-3.4-0.8c-1-0.5-1.8-1.3-2.3-2.2s-0.8-2-0.8-3.2s0.3-2.3,0.8-3.2
		c0.5-0.9,1.3-1.7,2.2-2.2c0.9-0.5,2-0.8,3.1-0.8c1.2,0,2.2,0.3,3.1,0.8c0.9,0.5,1.6,1.3,2.1,2.2c0.5,0.9,0.8,2,0.8,3.3
		c0,0.1,0,0.2,0,0.3c0,0.1,0,0.2,0,0.3h-10.4V123h9.2l-0.9,0.6c0-0.8-0.1-1.5-0.5-2.1c-0.3-0.6-0.8-1.1-1.4-1.4
		c-0.6-0.3-1.3-0.5-2.1-0.5c-0.8,0-1.4,0.2-2,0.5c-0.6,0.3-1.1,0.8-1.4,1.4s-0.5,1.3-0.5,2.1v0.4c0,0.8,0.2,1.5,0.6,2.2
		c0.4,0.6,0.9,1.1,1.6,1.5c0.7,0.4,1.4,0.5,2.3,0.5c0.7,0,1.4-0.1,2-0.4c0.6-0.2,1.1-0.6,1.6-1.1l1.2,1.4c-0.6,0.6-1.2,1.1-2.1,1.5
		C691.7,129.9,690.8,130.1,689.7,130.1z M687.6,116l3.1-3h2.8l-3.9,3H687.6z"/>
	<path class="st2" d="M703.5,129.4c-1.2,0-2.2-0.2-3.2-0.7c-0.9-0.5-1.7-1.2-2.2-2.1c-0.5-0.9-0.8-1.9-0.8-3.1
		c0-1.2,0.3-2.2,0.8-3.1c0.5-0.9,1.3-1.6,2.2-2.1c0.9-0.5,2-0.7,3.2-0.7c1,0,2,0.2,2.9,0.6c0.9,0.4,1.5,1.1,2.1,1.9
		c0.5,0.9,0.8,2,0.8,3.3c0,1.3-0.3,2.4-0.8,3.3s-1.2,1.5-2.1,2C705.4,129.2,704.5,129.4,703.5,129.4z M703.7,134.5
		c-1.1,0-2.2-0.2-3.3-0.5c-1.1-0.3-1.9-0.8-2.6-1.3l1.1-1.7c0.6,0.5,1.3,0.9,2.1,1.2c0.8,0.3,1.7,0.4,2.6,0.4c1.4,0,2.5-0.3,3.2-1
		c0.7-0.7,1-1.7,1-3.1v-2.6l0.2-2.4l-0.1-2.4v-3.3h2.1v10.5c0,2.1-0.5,3.7-1.6,4.7S705.8,134.5,703.7,134.5z M703.7,127.5
		c0.8,0,1.5-0.2,2.2-0.5c0.6-0.3,1.1-0.8,1.5-1.4c0.4-0.6,0.5-1.3,0.5-2.1s-0.2-1.5-0.5-2.1c-0.4-0.6-0.9-1.1-1.5-1.4
		c-0.6-0.3-1.3-0.5-2.2-0.5c-0.8,0-1.5,0.2-2.2,0.5c-0.6,0.3-1.1,0.8-1.5,1.4c-0.4,0.6-0.5,1.3-0.5,2.1s0.2,1.5,0.5,2.1
		c0.4,0.6,0.9,1.1,1.5,1.4C702.2,127.3,702.9,127.5,703.7,127.5z"/>
	<path class="st2" d="M717.8,130.1c-0.9,0-1.7-0.2-2.4-0.5c-0.7-0.3-1.2-0.7-1.6-1.3c-0.4-0.5-0.6-1.2-0.6-1.9
		c0-0.7,0.2-1.3,0.5-1.8c0.3-0.5,0.8-1,1.5-1.3c0.7-0.3,1.7-0.5,2.9-0.5h3.9v1.6h-3.8c-1.1,0-1.8,0.2-2.2,0.6
		c-0.4,0.4-0.6,0.8-0.6,1.3c0,0.6,0.2,1.1,0.7,1.4c0.5,0.4,1.1,0.5,2,0.5c0.8,0,1.6-0.2,2.2-0.6c0.6-0.4,1.1-0.9,1.3-1.6l0.4,1.5
		c-0.3,0.7-0.8,1.3-1.5,1.7C719.9,129.8,718.9,130.1,717.8,130.1z M721.8,129.9v-2.6l-0.1-0.5v-4.4c0-0.9-0.3-1.7-0.8-2.2
		c-0.5-0.5-1.4-0.8-2.4-0.8c-0.7,0-1.4,0.1-2.1,0.4c-0.7,0.2-1.3,0.6-1.7,1l-0.9-1.7c0.6-0.5,1.4-0.9,2.3-1.2
		c0.9-0.3,1.8-0.4,2.8-0.4c1.7,0,3,0.4,3.9,1.2c0.9,0.8,1.4,2.1,1.4,3.7v7.4H721.8z"/>
	<path class="st2" d="M728,129.9v-12.2h2.1v3.3l-0.2-0.8c0.3-0.8,0.9-1.5,1.7-1.9c0.8-0.4,1.8-0.7,2.9-0.7v2.1c-0.1,0-0.2,0-0.3,0
		c-0.1,0-0.2,0-0.2,0c-1.2,0-2.1,0.4-2.8,1.1c-0.7,0.7-1,1.7-1,3.1v6.1H728z"/>
	<path class="st2" d="M742.2,130.1c-1.2,0-2.2-0.3-3.2-0.8s-1.7-1.2-2.2-2.2c-0.5-0.9-0.8-2-0.8-3.3s0.3-2.3,0.8-3.3
		c0.5-0.9,1.3-1.7,2.2-2.2c0.9-0.5,2-0.8,3.2-0.8c1,0,2,0.2,2.8,0.7s1.5,1.2,2,2.1s0.7,2.1,0.7,3.5s-0.2,2.5-0.7,3.5
		c-0.5,0.9-1.1,1.6-2,2.1S743.3,130.1,742.2,130.1z M742.4,128.1c0.8,0,1.5-0.2,2.1-0.5c0.6-0.4,1.1-0.9,1.5-1.5
		c0.4-0.7,0.5-1.4,0.5-2.3c0-0.9-0.2-1.6-0.5-2.3s-0.9-1.1-1.5-1.5s-1.3-0.5-2.1-0.5c-0.8,0-1.5,0.2-2.1,0.5s-1.1,0.8-1.5,1.5
		s-0.6,1.4-0.6,2.3c0,0.9,0.2,1.6,0.6,2.3c0.4,0.7,0.9,1.2,1.5,1.5C740.9,127.9,741.6,128.1,742.4,128.1z M746.6,129.9v-3.3l0.1-2.8
		l-0.2-2.8v-8.1h2.2v17.1H746.6z"/>
	<path class="st2" d="M771,204.2c-0.6,0.8-1.3,1.4-2.3,1.8c-1,0.4-2.1,0.6-3.5,0.6c-1.3,0-2.5-0.3-3.5-0.9s-1.8-1.5-2.4-2.7
		c-0.6-1.2-0.9-2.5-0.9-4v-1.4c0-2.5,0.6-4.4,1.7-5.7c1.1-1.4,2.8-2,4.8-2c1.7,0,3.1,0.4,4.1,1.3s1.7,2.1,1.9,3.7h-2.2
		c-0.4-2.2-1.7-3.3-3.9-3.3c-1.4,0-2.5,0.5-3.3,1.5c-0.7,1-1.1,2.5-1.1,4.4v1.3c0,1.8,0.4,3.3,1.3,4.4c0.8,1.1,2,1.6,3.4,1.6
		c0.8,0,1.5-0.1,2.1-0.3c0.6-0.2,1.1-0.5,1.5-0.9V200h-3.8v-1.8h5.9V204.2z"/>
	<path class="st2" d="M781.8,205.2c-0.8,1-2,1.4-3.6,1.4c-1.3,0-2.3-0.4-3-1.1c-0.7-0.8-1-1.9-1-3.3v-7.9h2.1v7.9
		c0,1.8,0.7,2.8,2.2,2.8c1.6,0,2.6-0.6,3.2-1.8v-8.8h2.1v12.2h-2L781.8,205.2z"/>
	<path class="st2" d="M787,191c0-0.3,0.1-0.6,0.3-0.9c0.2-0.2,0.5-0.3,0.9-0.3s0.7,0.1,0.9,0.3c0.2,0.2,0.3,0.5,0.3,0.9
		c0,0.3-0.1,0.6-0.3,0.8s-0.5,0.3-0.9,0.3s-0.7-0.1-0.9-0.3S787,191.4,787,191z M789.2,206.4h-2.1v-12.2h2.1V206.4z"/>
	<path class="st2" d="M794.5,194.2l0.1,1.5c0.9-1.2,2.1-1.8,3.6-1.8c2.6,0,3.9,1.4,3.9,4.3v8H800v-8c0-0.9-0.2-1.5-0.6-1.9
		c-0.4-0.4-1-0.6-1.8-0.6c-0.7,0-1.3,0.2-1.8,0.5c-0.5,0.4-0.9,0.8-1.2,1.4v8.7h-2.1v-12.2H794.5z"/>
	<path class="st2" d="M804.7,200.2c0-1.9,0.4-3.4,1.3-4.5c0.9-1.1,2-1.7,3.5-1.7c1.5,0,2.6,0.5,3.5,1.6l0.1-1.3h1.9v11.9
		c0,1.6-0.5,2.8-1.4,3.7c-0.9,0.9-2.2,1.4-3.8,1.4c-0.9,0-1.7-0.2-2.6-0.6s-1.5-0.9-1.9-1.5l1.1-1.2c0.9,1.1,2,1.7,3.3,1.7
		c1,0,1.8-0.3,2.4-0.9c0.6-0.6,0.8-1.4,0.8-2.4v-1c-0.8,1-2,1.4-3.4,1.4c-1.4,0-2.6-0.6-3.5-1.7
		C805.2,203.8,804.7,202.2,804.7,200.2z M806.8,200.5c0,1.4,0.3,2.4,0.8,3.2c0.6,0.8,1.3,1.2,2.4,1.2c1.3,0,2.3-0.6,2.9-1.8v-5.5
		c-0.6-1.2-1.6-1.7-2.9-1.7c-1,0-1.8,0.4-2.4,1.2S806.8,198.9,806.8,200.5z"/>
	<path class="st2" d="M825.6,206.4c-0.1-0.2-0.2-0.7-0.3-1.3c-1,1-2.1,1.5-3.5,1.5c-1.2,0-2.2-0.3-2.9-1s-1.2-1.5-1.2-2.6
		c0-1.3,0.5-2.2,1.4-2.9s2.3-1,4.1-1h2v-1c0-0.7-0.2-1.3-0.7-1.7c-0.4-0.4-1.1-0.6-1.9-0.6c-0.7,0-1.4,0.2-1.9,0.6
		c-0.5,0.4-0.8,0.8-0.8,1.4H818c0-0.6,0.2-1.2,0.6-1.8s1-1,1.8-1.3s1.5-0.5,2.4-0.5c1.4,0,2.5,0.3,3.3,1s1.2,1.7,1.2,2.9v5.6
		c0,1.1,0.1,2,0.4,2.7v0.2H825.6z M822.2,204.8c0.7,0,1.3-0.2,1.9-0.5s1-0.8,1.3-1.3v-2.5h-1.6c-2.5,0-3.8,0.7-3.8,2.2
		c0,0.7,0.2,1.2,0.7,1.5S821.5,204.8,822.2,204.8z"/>
	<path class="st2" d="M832.6,194.2l0.1,1.3c0.9-1,2.1-1.6,3.6-1.6c1.7,0,2.9,0.7,3.5,2c0.4-0.6,0.9-1.1,1.6-1.4s1.4-0.5,2.3-0.5
		c2.7,0,4,1.4,4.1,4.2v8.1h-2.1v-8c0-0.9-0.2-1.5-0.6-1.9s-1.1-0.6-2-0.6c-0.8,0-1.4,0.2-1.9,0.7c-0.5,0.5-0.8,1.1-0.9,1.9v8.1h-2.1
		v-8c0-1.8-0.9-2.7-2.6-2.7c-1.4,0-2.3,0.6-2.8,1.7v8.9h-2.1v-12.2H832.6z"/>
	<path class="st2" d="M861.1,200.5c0,1.8-0.4,3.3-1.3,4.5c-0.8,1.1-2,1.7-3.4,1.7c-1.5,0-2.6-0.5-3.5-1.4v5.9h-2.1v-16.8h1.9
		l0.1,1.3c0.8-1,2-1.6,3.5-1.6c1.5,0,2.6,0.5,3.5,1.7c0.8,1.1,1.3,2.6,1.3,4.6V200.5z M859,200.2c0-1.4-0.3-2.5-0.9-3.2
		c-0.6-0.8-1.4-1.2-2.4-1.2c-1.3,0-2.2,0.6-2.8,1.7v5.8c0.6,1.1,1.6,1.7,2.9,1.7c1,0,1.8-0.4,2.4-1.2S859,201.8,859,200.2z"/>
	<path class="st2" d="M337.1,424.4c-1.2,0-2.4-0.2-3.4-0.6s-1.9-1-2.7-1.7s-1.4-1.6-1.8-2.6c-0.4-1-0.6-2.1-0.6-3.3s0.2-2.3,0.6-3.3
		c0.4-1,1-1.9,1.8-2.6c0.8-0.7,1.7-1.3,2.7-1.7c1-0.4,2.2-0.6,3.4-0.6c1.2,0,2.4,0.2,3.4,0.6c1.1,0.4,1.9,1,2.7,1.9l-1.5,1.4
		c-0.6-0.6-1.3-1.1-2.1-1.4c-0.8-0.3-1.6-0.5-2.5-0.5c-0.9,0-1.7,0.2-2.5,0.5c-0.8,0.3-1.4,0.7-2,1.3c-0.6,0.6-1,1.2-1.3,2
		c-0.3,0.8-0.5,1.6-0.5,2.5s0.2,1.7,0.5,2.5c0.3,0.8,0.8,1.4,1.3,2c0.6,0.6,1.2,1,2,1.3c0.8,0.3,1.6,0.5,2.5,0.5
		c0.9,0,1.7-0.2,2.5-0.5c0.8-0.3,1.5-0.8,2.1-1.5l1.5,1.4c-0.7,0.8-1.6,1.5-2.7,1.9C339.5,424.1,338.4,424.4,337.1,424.4z"/>
	<path class="st2" d="M349.6,424.3c-0.9,0-1.7-0.2-2.4-0.5c-0.7-0.3-1.2-0.7-1.6-1.3c-0.4-0.5-0.6-1.2-0.6-1.9
		c0-0.7,0.2-1.3,0.5-1.8c0.3-0.5,0.8-1,1.5-1.3c0.7-0.3,1.7-0.5,2.9-0.5h3.9v1.6h-3.8c-1.1,0-1.8,0.2-2.2,0.6
		c-0.4,0.4-0.6,0.8-0.6,1.3c0,0.6,0.2,1.1,0.7,1.4s1.1,0.5,2,0.5c0.8,0,1.6-0.2,2.2-0.6s1.1-0.9,1.3-1.6l0.4,1.5
		c-0.3,0.7-0.8,1.3-1.5,1.7C351.7,424.1,350.7,424.3,349.6,424.3z M353.6,424.2v-2.6l-0.1-0.5v-4.4c0-0.9-0.3-1.7-0.8-2.2
		c-0.5-0.5-1.4-0.8-2.4-0.8c-0.7,0-1.4,0.1-2.1,0.4c-0.7,0.2-1.3,0.6-1.7,1l-0.9-1.7c0.6-0.5,1.4-0.9,2.3-1.2
		c0.9-0.3,1.8-0.4,2.8-0.4c1.7,0,3,0.4,3.9,1.2c0.9,0.8,1.4,2.1,1.4,3.7v7.4H353.6z"/>
	<path class="st2" d="M359.8,424.2v-17.1h2.2v17.1H359.8z"/>
	<path class="st2" d="M366.2,424.2v-17.1h2.2v17.1H366.2z"/>
	<path class="st2" d="M376.2,424.3c-0.9,0-1.7-0.2-2.4-0.5c-0.7-0.3-1.2-0.7-1.6-1.3c-0.4-0.5-0.6-1.2-0.6-1.9
		c0-0.7,0.2-1.3,0.5-1.8c0.3-0.5,0.8-1,1.5-1.3c0.7-0.3,1.7-0.5,2.9-0.5h3.9v1.6h-3.8c-1.1,0-1.8,0.2-2.2,0.6
		c-0.4,0.4-0.6,0.8-0.6,1.3c0,0.6,0.2,1.1,0.7,1.4s1.1,0.5,2,0.5c0.8,0,1.6-0.2,2.2-0.6s1.1-0.9,1.3-1.6l0.4,1.5
		c-0.3,0.7-0.8,1.3-1.5,1.7C378.3,424.1,377.3,424.3,376.2,424.3z M380.2,424.2v-2.6l-0.1-0.5v-4.4c0-0.9-0.3-1.7-0.8-2.2
		c-0.5-0.5-1.4-0.8-2.4-0.8c-0.7,0-1.4,0.1-2.1,0.4c-0.7,0.2-1.3,0.6-1.7,1l-0.9-1.7c0.6-0.5,1.4-0.9,2.3-1.2
		c0.9-0.3,1.8-0.4,2.8-0.4c1.7,0,3,0.4,3.9,1.2c0.9,0.8,1.4,2.1,1.4,3.7v7.4H380.2z"/>
	<path class="st2" d="M391.7,424.3c-1.2,0-2.4-0.3-3.3-0.8c-1-0.5-1.7-1.3-2.3-2.2s-0.8-2-0.8-3.2s0.3-2.3,0.8-3.2
		c0.6-0.9,1.3-1.7,2.3-2.2c1-0.5,2.1-0.8,3.3-0.8c1.1,0,2.1,0.2,3,0.7c0.9,0.4,1.5,1.1,2,1.9l-1.7,1.1c-0.4-0.6-0.9-1-1.5-1.3
		c-0.6-0.3-1.2-0.4-1.9-0.4c-0.8,0-1.5,0.2-2.1,0.5c-0.6,0.4-1.1,0.8-1.5,1.5s-0.6,1.4-0.6,2.3s0.2,1.6,0.6,2.3
		c0.4,0.6,0.9,1.1,1.5,1.5c0.6,0.4,1.3,0.5,2.1,0.5c0.7,0,1.3-0.1,1.9-0.4c0.6-0.3,1.1-0.7,1.5-1.3l1.7,1.1c-0.5,0.8-1.1,1.5-2,1.9
		S392.8,424.3,391.7,424.3z"/>
	<path class="st2" d="M93.3,264.9v-16.1h2.3v14.1h8.7v2H93.3z"/>
	<path class="st2" d="M110.2,265c-0.9,0-1.7-0.2-2.4-0.5c-0.7-0.3-1.2-0.7-1.6-1.3c-0.4-0.5-0.6-1.2-0.6-1.9c0-0.7,0.2-1.3,0.5-1.8
		c0.3-0.5,0.8-1,1.5-1.3c0.7-0.3,1.7-0.5,2.9-0.5h3.9v1.6h-3.8c-1.1,0-1.8,0.2-2.2,0.6c-0.4,0.4-0.6,0.8-0.6,1.3
		c0,0.6,0.2,1.1,0.7,1.4s1.1,0.5,2,0.5c0.8,0,1.6-0.2,2.2-0.6s1.1-0.9,1.3-1.6l0.4,1.5c-0.3,0.7-0.8,1.3-1.5,1.7
		C112.2,264.8,111.3,265,110.2,265z M114.2,264.9v-2.6l-0.1-0.5v-4.4c0-0.9-0.3-1.7-0.8-2.2c-0.5-0.5-1.4-0.8-2.4-0.8
		c-0.7,0-1.4,0.1-2.1,0.4c-0.7,0.2-1.3,0.6-1.7,1l-0.9-1.7c0.6-0.5,1.4-0.9,2.3-1.2c0.9-0.3,1.8-0.4,2.8-0.4c1.7,0,3,0.4,3.9,1.2
		c0.9,0.8,1.4,2.1,1.4,3.7v7.4H114.2z"/>
	<path class="st2" d="M126.9,252.6c1,0,1.9,0.2,2.6,0.6c0.8,0.4,1.4,1,1.8,1.7c0.4,0.8,0.6,1.8,0.6,3v7h-2.2v-6.8
		c0-1.2-0.3-2.1-0.9-2.7c-0.6-0.6-1.4-0.9-2.4-0.9c-0.8,0-1.5,0.2-2,0.5c-0.6,0.3-1,0.8-1.3,1.4c-0.3,0.6-0.5,1.3-0.5,2.2v6.3h-2.2
		v-12.2h2.1v3.3l-0.3-0.9c0.4-0.8,1-1.4,1.8-1.9C124.8,252.8,125.8,252.6,126.9,252.6z"/>
	<path class="st2" d="M141.1,265c-1.2,0-2.2-0.3-3.2-0.8s-1.7-1.2-2.2-2.2c-0.5-0.9-0.8-2-0.8-3.3s0.3-2.3,0.8-3.3
		c0.5-0.9,1.3-1.7,2.2-2.2c0.9-0.5,2-0.8,3.2-0.8c1,0,2,0.2,2.8,0.7s1.5,1.2,2,2.1s0.7,2.1,0.7,3.5s-0.2,2.5-0.7,3.5
		c-0.5,0.9-1.1,1.6-2,2.1S142.1,265,141.1,265z M141.3,263.1c0.8,0,1.5-0.2,2.1-0.5c0.6-0.4,1.1-0.9,1.5-1.5
		c0.4-0.7,0.5-1.4,0.5-2.3c0-0.9-0.2-1.6-0.5-2.3s-0.9-1.1-1.5-1.5s-1.3-0.5-2.1-0.5c-0.8,0-1.5,0.2-2.1,0.5s-1.1,0.8-1.5,1.5
		s-0.6,1.4-0.6,2.3c0,0.9,0.2,1.6,0.6,2.3c0.4,0.7,0.9,1.2,1.5,1.5C139.8,262.9,140.5,263.1,141.3,263.1z M145.4,264.9v-3.3l0.1-2.8
		l-0.2-2.8v-8.1h2.2v17.1H145.4z"/>
	<path class="st2" d="M152.8,250.4c-0.4,0-0.8-0.1-1.1-0.4c-0.3-0.3-0.4-0.6-0.4-1c0-0.4,0.1-0.8,0.4-1c0.3-0.3,0.6-0.4,1.1-0.4
		c0.4,0,0.8,0.1,1.1,0.4c0.3,0.3,0.4,0.6,0.4,1c0,0.4-0.1,0.8-0.4,1C153.6,250.2,153.3,250.4,152.8,250.4z M151.7,264.9v-12.2h2.2
		v12.2H151.7z"/>
	<path class="st2" d="M161.3,264.9l-5.3-12.2h2.3l4.7,11h-1.1l4.8-11h2.2l-5.3,12.2H161.3z"/>
	<path class="st2" d="M172.1,250.4c-0.4,0-0.8-0.1-1.1-0.4c-0.3-0.3-0.4-0.6-0.4-1c0-0.4,0.1-0.8,0.4-1c0.3-0.3,0.6-0.4,1.1-0.4
		c0.4,0,0.8,0.1,1.1,0.4c0.3,0.3,0.4,0.6,0.4,1c0,0.4-0.1,0.8-0.4,1C172.9,250.2,172.5,250.4,172.1,250.4z M171,264.9v-12.2h2.2
		v12.2H171z"/>
	<path class="st2" d="M180.9,265c-1,0-2-0.1-2.9-0.4c-0.9-0.3-1.6-0.6-2.2-1l0.9-1.7c0.5,0.4,1.2,0.7,1.9,0.9
		c0.8,0.2,1.5,0.4,2.3,0.4c1,0,1.8-0.1,2.2-0.4c0.5-0.3,0.7-0.7,0.7-1.2c0-0.4-0.1-0.7-0.4-0.9c-0.3-0.2-0.6-0.4-1.1-0.5
		s-1-0.2-1.5-0.3c-0.6-0.1-1.1-0.2-1.7-0.3c-0.6-0.1-1.1-0.3-1.5-0.6c-0.5-0.2-0.8-0.6-1.1-1c-0.3-0.4-0.4-1-0.4-1.7
		c0-0.7,0.2-1.4,0.6-1.9c0.4-0.6,1-1,1.8-1.3s1.7-0.4,2.7-0.4c0.8,0,1.6,0.1,2.4,0.3c0.8,0.2,1.5,0.5,2,0.8l-0.9,1.7
		c-0.6-0.4-1.1-0.6-1.7-0.8s-1.2-0.2-1.8-0.2c-1,0-1.7,0.2-2.2,0.5s-0.7,0.7-0.7,1.2c0,0.4,0.1,0.7,0.4,1c0.3,0.2,0.7,0.4,1.1,0.5
		c0.5,0.1,1,0.2,1.5,0.3c0.6,0.1,1.1,0.2,1.7,0.3c0.6,0.1,1.1,0.3,1.5,0.5c0.5,0.2,0.8,0.6,1.1,1c0.3,0.4,0.4,1,0.4,1.7
		c0,0.7-0.2,1.4-0.6,1.9c-0.4,0.5-1,1-1.8,1.3C182.9,264.9,182,265,180.9,265z"/>
	<path class="st2" d="M190,250.4c-0.4,0-0.8-0.1-1.1-0.4c-0.3-0.3-0.4-0.6-0.4-1c0-0.4,0.1-0.8,0.4-1c0.3-0.3,0.6-0.4,1.1-0.4
		c0.4,0,0.8,0.1,1.1,0.4c0.3,0.3,0.4,0.6,0.4,1c0,0.4-0.1,0.8-0.4,1C190.8,250.2,190.5,250.4,190,250.4z M188.9,264.9v-12.2h2.2
		v12.2H188.9z"/>
	<path class="st2" d="M198.9,265c-0.9,0-1.7-0.2-2.4-0.5c-0.7-0.3-1.2-0.7-1.6-1.3c-0.4-0.5-0.6-1.2-0.6-1.9c0-0.7,0.2-1.3,0.5-1.8
		c0.3-0.5,0.8-1,1.5-1.3c0.7-0.3,1.7-0.5,2.9-0.5h3.9v1.6h-3.8c-1.1,0-1.8,0.2-2.2,0.6c-0.4,0.4-0.6,0.8-0.6,1.3
		c0,0.6,0.2,1.1,0.7,1.4s1.1,0.5,2,0.5c0.8,0,1.6-0.2,2.2-0.6s1.1-0.9,1.3-1.6l0.4,1.5c-0.3,0.7-0.8,1.3-1.5,1.7
		C201,264.8,200,265,198.9,265z M202.9,264.9v-2.6l-0.1-0.5v-4.4c0-0.9-0.3-1.7-0.8-2.2c-0.5-0.5-1.4-0.8-2.4-0.8
		c-0.7,0-1.4,0.1-2.1,0.4c-0.7,0.2-1.3,0.6-1.7,1l-0.9-1.7c0.6-0.5,1.4-0.9,2.3-1.2c0.9-0.3,1.8-0.4,2.8-0.4c1.7,0,3,0.4,3.9,1.2
		c0.9,0.8,1.4,2.1,1.4,3.7v7.4H202.9z"/>
	<path class="st2" d="M214.2,265c-1,0-2-0.2-2.7-0.6c-0.8-0.4-1.4-1-1.8-1.8c-0.4-0.8-0.7-1.8-0.7-3v-7h2.2v6.8
		c0,1.2,0.3,2.1,0.9,2.7c0.6,0.6,1.4,0.9,2.4,0.9c0.8,0,1.4-0.2,2-0.5s1-0.8,1.3-1.4s0.5-1.3,0.5-2.2v-6.3h2.2v12.2h-2.1v-3.3
		l0.3,0.9c-0.4,0.8-1,1.4-1.8,1.9C216.1,264.8,215.2,265,214.2,265z"/>
	<path class="st2" d="M70,605.4c-1.2,0-2.4-0.2-3.4-0.6s-1.9-1-2.7-1.7s-1.4-1.6-1.8-2.6c-0.4-1-0.6-2.1-0.6-3.3s0.2-2.3,0.6-3.3
		c0.4-1,1-1.9,1.8-2.6c0.8-0.7,1.7-1.3,2.7-1.7c1-0.4,2.2-0.6,3.4-0.6c1.2,0,2.4,0.2,3.4,0.6c1.1,0.4,1.9,1,2.7,1.9l-1.5,1.4
		c-0.6-0.6-1.3-1.1-2.1-1.4c-0.8-0.3-1.6-0.5-2.5-0.5c-0.9,0-1.7,0.2-2.5,0.5c-0.8,0.3-1.4,0.7-2,1.3c-0.6,0.6-1,1.2-1.3,2
		c-0.3,0.8-0.5,1.6-0.5,2.5s0.2,1.7,0.5,2.5c0.3,0.8,0.8,1.4,1.3,2c0.6,0.6,1.2,1,2,1.3c0.8,0.3,1.6,0.5,2.5,0.5
		c0.9,0,1.7-0.2,2.5-0.5c0.8-0.3,1.5-0.8,2.1-1.5l1.5,1.4c-0.7,0.8-1.6,1.5-2.7,1.9C72.4,605.2,71.3,605.4,70,605.4z"/>
	<path class="st2" d="M85.6,592.9c1,0,1.9,0.2,2.6,0.6c0.8,0.4,1.4,1,1.8,1.7c0.4,0.8,0.6,1.8,0.6,3v7h-2.2v-6.8
		c0-1.2-0.3-2.1-0.9-2.7c-0.6-0.6-1.4-0.9-2.4-0.9c-0.8,0-1.5,0.2-2,0.5c-0.6,0.3-1,0.8-1.3,1.4c-0.3,0.6-0.5,1.3-0.5,2.2v6.3h-2.2
		v-17.1h2.2v8.2l-0.4-0.9c0.4-0.8,1-1.4,1.8-1.9C83.6,593.1,84.5,592.9,85.6,592.9z"/>
	<path class="st2" d="M98.3,605.3c-0.9,0-1.7-0.2-2.4-0.5c-0.7-0.3-1.2-0.7-1.6-1.3c-0.4-0.5-0.6-1.2-0.6-1.9c0-0.7,0.2-1.3,0.5-1.8
		c0.3-0.5,0.8-1,1.5-1.3c0.7-0.3,1.7-0.5,2.9-0.5h3.9v1.6h-3.8c-1.1,0-1.8,0.2-2.2,0.6c-0.4,0.4-0.6,0.8-0.6,1.3
		c0,0.6,0.2,1.1,0.7,1.4s1.1,0.5,2,0.5c0.8,0,1.6-0.2,2.2-0.6s1.1-0.9,1.3-1.6l0.4,1.5c-0.3,0.7-0.8,1.3-1.5,1.7
		C100.4,605.1,99.5,605.3,98.3,605.3z M102.3,605.2v-2.6l-0.1-0.5v-4.4c0-0.9-0.3-1.7-0.8-2.2c-0.5-0.5-1.4-0.8-2.4-0.8
		c-0.7,0-1.4,0.1-2.1,0.4c-0.7,0.2-1.3,0.6-1.7,1l-0.9-1.7c0.6-0.5,1.4-0.9,2.3-1.2c0.9-0.3,1.8-0.4,2.8-0.4c1.7,0,3,0.4,3.9,1.2
		c0.9,0.8,1.4,2.1,1.4,3.7v7.4H102.3z"/>
	<path class="st2" d="M106.8,594.8V593h7.8v1.8H106.8z M112.7,605.3c-1.2,0-2.2-0.3-2.9-1s-1-1.6-1-2.8v-11.2h2.2v11.1
		c0,0.7,0.2,1.2,0.5,1.5s0.8,0.5,1.4,0.5c0.7,0,1.3-0.2,1.7-0.6l0.7,1.6c-0.3,0.3-0.7,0.5-1.2,0.6
		C113.7,605.3,113.2,605.3,112.7,605.3z"/>
	<path class="st2" d="M123.1,605.3c-1.3,0-2.5-0.3-3.4-0.8c-1-0.5-1.8-1.3-2.3-2.2s-0.8-2-0.8-3.2s0.3-2.3,0.8-3.2
		c0.5-0.9,1.3-1.7,2.2-2.2c0.9-0.5,2-0.8,3.1-0.8c1.2,0,2.2,0.3,3.1,0.8c0.9,0.5,1.6,1.3,2.1,2.2c0.5,0.9,0.8,2,0.8,3.3
		c0,0.1,0,0.2,0,0.3c0,0.1,0,0.2,0,0.3h-10.4v-1.6h9.2l-0.9,0.6c0-0.8-0.1-1.5-0.5-2.1c-0.3-0.6-0.8-1.1-1.4-1.4
		c-0.6-0.3-1.3-0.5-2.1-0.5c-0.8,0-1.4,0.2-2,0.5c-0.6,0.3-1.1,0.8-1.4,1.4s-0.5,1.3-0.5,2.1v0.4c0,0.8,0.2,1.5,0.6,2.2
		c0.4,0.6,0.9,1.1,1.6,1.5c0.7,0.4,1.4,0.5,2.3,0.5c0.7,0,1.4-0.1,2-0.4c0.6-0.2,1.1-0.6,1.6-1.1l1.2,1.4c-0.6,0.6-1.2,1.1-2.1,1.5
		C125,605.2,124.1,605.3,123.1,605.3z"/>
	<path class="st2" d="M134.9,605.3c-0.9,0-1.7-0.2-2.4-0.5c-0.7-0.3-1.2-0.7-1.6-1.3c-0.4-0.5-0.6-1.2-0.6-1.9
		c0-0.7,0.2-1.3,0.5-1.8c0.3-0.5,0.8-1,1.5-1.3c0.7-0.3,1.7-0.5,2.9-0.5h3.9v1.6h-3.8c-1.1,0-1.8,0.2-2.2,0.6
		c-0.4,0.4-0.6,0.8-0.6,1.3c0,0.6,0.2,1.1,0.7,1.4s1.1,0.5,2,0.5c0.8,0,1.6-0.2,2.2-0.6s1.1-0.9,1.3-1.6l0.4,1.5
		c-0.3,0.7-0.8,1.3-1.5,1.7C137,605.1,136.1,605.3,134.9,605.3z M138.9,605.2v-2.6l-0.1-0.5v-4.4c0-0.9-0.3-1.7-0.8-2.2
		c-0.5-0.5-1.4-0.8-2.4-0.8c-0.7,0-1.4,0.1-2.1,0.4c-0.7,0.2-1.3,0.6-1.7,1l-0.9-1.7c0.6-0.5,1.4-0.9,2.3-1.2
		c0.9-0.3,1.8-0.4,2.8-0.4c1.7,0,3,0.4,3.9,1.2c0.9,0.8,1.4,2.1,1.4,3.7v7.4H138.9z"/>
	<path class="st2" d="M150.3,605.3c-1,0-2-0.2-2.7-0.6c-0.8-0.4-1.4-1-1.8-1.8c-0.4-0.8-0.7-1.8-0.7-3v-7h2.2v6.8
		c0,1.2,0.3,2.1,0.9,2.7c0.6,0.6,1.4,0.9,2.4,0.9c0.8,0,1.4-0.2,2-0.5s1-0.8,1.3-1.4s0.5-1.3,0.5-2.2V593h2.2v12.2h-2.1v-3.3
		l0.3,0.9c-0.4,0.8-1,1.4-1.8,1.9C152.2,605.1,151.3,605.3,150.3,605.3z"/>
	<path class="st2" d="M160.7,605.2v-17.1h2.2v17.1H160.7z"/>
	<path class="st2" d="M168.2,590.7c-0.4,0-0.8-0.1-1.1-0.4c-0.3-0.3-0.4-0.6-0.4-1c0-0.4,0.1-0.8,0.4-1c0.3-0.3,0.6-0.4,1.1-0.4
		c0.4,0,0.8,0.1,1.1,0.4c0.3,0.3,0.4,0.6,0.4,1c0,0.4-0.1,0.8-0.4,1C169,590.5,168.7,590.7,168.2,590.7z M167.1,605.2V593h2.2v12.2
		H167.1z"/>
	<path class="st2" d="M180,592.9c1,0,1.9,0.2,2.6,0.6c0.8,0.4,1.4,1,1.8,1.7c0.4,0.8,0.6,1.8,0.6,3v7h-2.2v-6.8
		c0-1.2-0.3-2.1-0.9-2.7c-0.6-0.6-1.4-0.9-2.4-0.9c-0.8,0-1.5,0.2-2,0.5c-0.6,0.3-1,0.8-1.3,1.4c-0.3,0.6-0.5,1.3-0.5,2.2v6.3h-2.2
		V593h2.1v3.3l-0.3-0.9c0.4-0.8,1-1.4,1.8-1.9C178,593.1,178.9,592.9,180,592.9z"/>
	<path class="st2" d="M232.4,615.5c-1.2,0-2.4-0.2-3.4-0.6s-1.9-1-2.7-1.7s-1.4-1.6-1.8-2.6c-0.4-1-0.6-2.1-0.6-3.3s0.2-2.3,0.6-3.3
		c0.4-1,1-1.9,1.8-2.6c0.8-0.7,1.7-1.3,2.7-1.7c1-0.4,2.2-0.6,3.4-0.6c1.2,0,2.4,0.2,3.4,0.6c1.1,0.4,1.9,1,2.7,1.9L237,603
		c-0.6-0.6-1.3-1.1-2.1-1.4c-0.8-0.3-1.6-0.5-2.5-0.5c-0.9,0-1.7,0.2-2.5,0.5c-0.8,0.3-1.4,0.7-2,1.3c-0.6,0.6-1,1.2-1.3,2
		c-0.3,0.8-0.5,1.6-0.5,2.5s0.2,1.7,0.5,2.5c0.3,0.8,0.8,1.4,1.3,2c0.6,0.6,1.2,1,2,1.3c0.8,0.3,1.6,0.5,2.5,0.5
		c0.9,0,1.7-0.2,2.5-0.5c0.8-0.3,1.5-0.8,2.1-1.5l1.5,1.4c-0.7,0.8-1.6,1.5-2.7,1.9C234.8,615.3,233.6,615.5,232.4,615.5z"/>
	<path class="st2" d="M248,603c1,0,1.9,0.2,2.6,0.6c0.8,0.4,1.4,1,1.8,1.7c0.4,0.8,0.6,1.8,0.6,3v7h-2.2v-6.8c0-1.2-0.3-2.1-0.9-2.7
		c-0.6-0.6-1.4-0.9-2.4-0.9c-0.8,0-1.5,0.2-2,0.5c-0.6,0.3-1,0.8-1.3,1.4c-0.3,0.6-0.5,1.3-0.5,2.2v6.3h-2.2v-17.1h2.2v8.2l-0.4-0.9
		c0.4-0.8,1-1.4,1.8-1.9C245.9,603.2,246.9,603,248,603z"/>
	<path class="st2" d="M260.7,615.4c-0.9,0-1.7-0.2-2.4-0.5c-0.7-0.3-1.2-0.7-1.6-1.3c-0.4-0.5-0.6-1.2-0.6-1.9
		c0-0.7,0.2-1.3,0.5-1.8c0.3-0.5,0.8-1,1.5-1.3c0.7-0.3,1.7-0.5,2.9-0.5h3.9v1.6h-3.8c-1.1,0-1.8,0.2-2.2,0.6
		c-0.4,0.4-0.6,0.8-0.6,1.3c0,0.6,0.2,1.1,0.7,1.4s1.1,0.5,2,0.5c0.8,0,1.6-0.2,2.2-0.6s1.1-0.9,1.3-1.6l0.4,1.5
		c-0.3,0.7-0.8,1.3-1.5,1.7C262.8,615.2,261.8,615.4,260.7,615.4z M264.7,615.3v-2.6l-0.1-0.5v-4.4c0-0.9-0.3-1.7-0.8-2.2
		c-0.5-0.5-1.4-0.8-2.4-0.8c-0.7,0-1.4,0.1-2.1,0.4c-0.7,0.2-1.3,0.6-1.7,1l-0.9-1.7c0.6-0.5,1.4-0.9,2.3-1.2
		c0.9-0.3,1.8-0.4,2.8-0.4c1.7,0,3,0.4,3.9,1.2c0.9,0.8,1.4,2.1,1.4,3.7v7.4H264.7z M257.6,601.4l3.1-3h2.1l3.1,3h-2l-3-2.5h1.8
		l-3,2.5H257.6z"/>
	<path class="st2" d="M269.1,604.9v-1.8h7.8v1.8H269.1z M275.1,615.4c-1.2,0-2.2-0.3-2.9-1s-1-1.6-1-2.8v-11.2h2.2v11.1
		c0,0.7,0.2,1.2,0.5,1.5s0.8,0.5,1.4,0.5c0.7,0,1.3-0.2,1.7-0.6l0.7,1.6c-0.3,0.3-0.7,0.5-1.2,0.6
		C276.1,615.4,275.6,615.4,275.1,615.4z"/>
	<path class="st2" d="M285.4,615.4c-1.3,0-2.5-0.3-3.4-0.8c-1-0.5-1.8-1.3-2.3-2.2s-0.8-2-0.8-3.2s0.3-2.3,0.8-3.2
		c0.5-0.9,1.3-1.7,2.2-2.2c0.9-0.5,2-0.8,3.1-0.8c1.2,0,2.2,0.3,3.1,0.8c0.9,0.5,1.6,1.3,2.1,2.2c0.5,0.9,0.8,2,0.8,3.3
		c0,0.1,0,0.2,0,0.3c0,0.1,0,0.2,0,0.3h-10.4v-1.6h9.2l-0.9,0.6c0-0.8-0.1-1.5-0.5-2.1c-0.3-0.6-0.8-1.1-1.4-1.4
		c-0.6-0.3-1.3-0.5-2.1-0.5c-0.8,0-1.4,0.2-2,0.5c-0.6,0.3-1.1,0.8-1.4,1.4s-0.5,1.3-0.5,2.1v0.4c0,0.8,0.2,1.5,0.6,2.2
		c0.4,0.6,0.9,1.1,1.6,1.5c0.7,0.4,1.4,0.5,2.3,0.5c0.7,0,1.4-0.1,2-0.4c0.6-0.2,1.1-0.6,1.6-1.1l1.2,1.4c-0.6,0.6-1.2,1.1-2.1,1.5
		C287.4,615.3,286.4,615.4,285.4,615.4z"/>
	<path class="st2" d="M297.3,615.4c-0.9,0-1.7-0.2-2.4-0.5c-0.7-0.3-1.2-0.7-1.6-1.3c-0.4-0.5-0.6-1.2-0.6-1.9
		c0-0.7,0.2-1.3,0.5-1.8c0.3-0.5,0.8-1,1.5-1.3c0.7-0.3,1.7-0.5,2.9-0.5h3.9v1.6h-3.8c-1.1,0-1.8,0.2-2.2,0.6
		c-0.4,0.4-0.6,0.8-0.6,1.3c0,0.6,0.2,1.1,0.7,1.4s1.1,0.5,2,0.5c0.8,0,1.6-0.2,2.2-0.6s1.1-0.9,1.3-1.6l0.4,1.5
		c-0.3,0.7-0.8,1.3-1.5,1.7C299.3,615.2,298.4,615.4,297.3,615.4z M301.3,615.3v-2.6l-0.1-0.5v-4.4c0-0.9-0.3-1.7-0.8-2.2
		c-0.5-0.5-1.4-0.8-2.4-0.8c-0.7,0-1.4,0.1-2.1,0.4c-0.7,0.2-1.3,0.6-1.7,1l-0.9-1.7c0.6-0.5,1.4-0.9,2.3-1.2
		c0.9-0.3,1.8-0.4,2.8-0.4c1.7,0,3,0.4,3.9,1.2c0.9,0.8,1.4,2.1,1.4,3.7v7.4H301.3z"/>
	<path class="st2" d="M312.6,615.4c-1,0-2-0.2-2.7-0.6c-0.8-0.4-1.4-1-1.8-1.8c-0.4-0.8-0.7-1.8-0.7-3v-7h2.2v6.8
		c0,1.2,0.3,2.1,0.9,2.7c0.6,0.6,1.4,0.9,2.4,0.9c0.8,0,1.4-0.2,2-0.5s1-0.8,1.3-1.4s0.5-1.3,0.5-2.2v-6.3h2.2v12.2h-2.1V612
		l0.3,0.9c-0.4,0.8-1,1.4-1.8,1.9C314.5,615.2,313.6,615.4,312.6,615.4z"/>
	<path class="st2" d="M329.6,603c1,0,1.9,0.2,2.6,0.6c0.8,0.4,1.4,1,1.8,1.7c0.4,0.8,0.6,1.8,0.6,3v7h-2.2v-6.8
		c0-1.2-0.3-2.1-0.9-2.7c-0.6-0.6-1.4-0.9-2.4-0.9c-0.8,0-1.5,0.2-2,0.5c-0.6,0.3-1,0.8-1.3,1.4c-0.3,0.6-0.5,1.3-0.5,2.2v6.3h-2.2
		v-12.2h2.1v3.3l-0.3-0.9c0.4-0.8,1-1.4,1.8-1.9C327.5,603.2,328.5,603,329.6,603z"/>
	<path class="st2" d="M344.2,615.4c-1.3,0-2.5-0.3-3.4-0.8c-1-0.5-1.8-1.3-2.3-2.2s-0.8-2-0.8-3.2s0.3-2.3,0.8-3.2
		c0.5-0.9,1.3-1.7,2.2-2.2c0.9-0.5,2-0.8,3.1-0.8c1.2,0,2.2,0.3,3.1,0.8c0.9,0.5,1.6,1.3,2.1,2.2c0.5,0.9,0.8,2,0.8,3.3
		c0,0.1,0,0.2,0,0.3c0,0.1,0,0.2,0,0.3h-10.4v-1.6h9.2l-0.9,0.6c0-0.8-0.1-1.5-0.5-2.1c-0.3-0.6-0.8-1.1-1.4-1.4
		c-0.6-0.3-1.3-0.5-2.1-0.5c-0.8,0-1.4,0.2-2,0.5c-0.6,0.3-1.1,0.8-1.4,1.4s-0.5,1.3-0.5,2.1v0.4c0,0.8,0.2,1.5,0.6,2.2
		c0.4,0.6,0.9,1.1,1.6,1.5c0.7,0.4,1.4,0.5,2.3,0.5c0.7,0,1.4-0.1,2-0.4c0.6-0.2,1.1-0.6,1.6-1.1l1.2,1.4c-0.6,0.6-1.2,1.1-2.1,1.5
		C346.1,615.3,345.2,615.4,344.2,615.4z"/>
	<path class="st2" d="M357.9,615.4c-1,0-2-0.2-2.7-0.6c-0.8-0.4-1.4-1-1.8-1.8c-0.4-0.8-0.7-1.8-0.7-3v-7h2.2v6.8
		c0,1.2,0.3,2.1,0.9,2.7c0.6,0.6,1.4,0.9,2.4,0.9c0.8,0,1.4-0.2,2-0.5s1-0.8,1.3-1.4s0.5-1.3,0.5-2.2v-6.3h2.2v12.2h-2.1V612
		l0.3,0.9c-0.4,0.8-1,1.4-1.8,1.9C359.8,615.2,358.9,615.4,357.9,615.4z"/>
	<path class="st2" d="M366.6,604.9v-1.8h7.8v1.8H366.6z M368.7,615.3V602c0-1.2,0.3-2.2,1-2.9c0.7-0.7,1.7-1.1,3-1.1
		c0.5,0,0.9,0.1,1.4,0.2c0.4,0.1,0.8,0.3,1.1,0.5l-0.7,1.7c-0.2-0.2-0.5-0.3-0.8-0.4s-0.6-0.1-0.9-0.1c-0.6,0-1.1,0.2-1.5,0.5
		c-0.3,0.4-0.5,0.9-0.5,1.6v1.6l0,1v10.6H368.7z"/>
	<path class="st2" d="M375.5,610V608h6.2v1.9H375.5z"/>
	<path class="st2" d="M390.3,615.4c-1.2,0-2.2-0.3-3.2-0.8s-1.7-1.2-2.2-2.2c-0.5-0.9-0.8-2-0.8-3.3s0.3-2.3,0.8-3.3
		c0.5-0.9,1.3-1.7,2.2-2.2c0.9-0.5,2-0.8,3.2-0.8c1,0,2,0.2,2.8,0.7s1.5,1.2,2,2.1s0.7,2.1,0.7,3.5s-0.2,2.5-0.7,3.5
		c-0.5,0.9-1.1,1.6-2,2.1S391.4,615.4,390.3,615.4z M390.5,613.5c0.8,0,1.5-0.2,2.1-0.5c0.6-0.4,1.1-0.9,1.5-1.5
		c0.4-0.7,0.5-1.4,0.5-2.3c0-0.9-0.2-1.6-0.5-2.3s-0.9-1.1-1.5-1.5s-1.3-0.5-2.1-0.5c-0.8,0-1.5,0.2-2.1,0.5s-1.1,0.8-1.5,1.5
		s-0.6,1.4-0.6,2.3c0,0.9,0.2,1.6,0.6,2.3c0.4,0.7,0.9,1.2,1.5,1.5C389,613.3,389.7,613.5,390.5,613.5z M394.7,615.3V612l0.1-2.8
		l-0.2-2.8v-8.1h2.2v17.1H394.7z"/>
	<path class="st2" d="M406.1,615.4c-1,0-2-0.2-2.7-0.6c-0.8-0.4-1.4-1-1.8-1.8c-0.4-0.8-0.7-1.8-0.7-3v-7h2.2v6.8
		c0,1.2,0.3,2.1,0.9,2.7c0.6,0.6,1.4,0.9,2.4,0.9c0.8,0,1.4-0.2,2-0.5s1-0.8,1.3-1.4s0.5-1.3,0.5-2.2v-6.3h2.2v12.2h-2.1V612
		l0.3,0.9c-0.4,0.8-1,1.4-1.8,1.9C408,615.2,407.1,615.4,406.1,615.4z"/>
	<path class="st2" d="M415.8,610V608h6.2v1.9H415.8z"/>
	<path class="st2" d="M428,615.3h-2.3v-16.1H437v2H428V615.3z M427.8,606.8h8.3v2h-8.3V606.8z"/>
	<path class="st2" d="M443.1,615.4c-0.9,0-1.7-0.2-2.4-0.5c-0.7-0.3-1.2-0.7-1.6-1.3c-0.4-0.5-0.6-1.2-0.6-1.9
		c0-0.7,0.2-1.3,0.5-1.8c0.3-0.5,0.8-1,1.5-1.3c0.7-0.3,1.7-0.5,2.9-0.5h3.9v1.6h-3.8c-1.1,0-1.8,0.2-2.2,0.6
		c-0.4,0.4-0.6,0.8-0.6,1.3c0,0.6,0.2,1.1,0.7,1.4s1.1,0.5,2,0.5c0.8,0,1.6-0.2,2.2-0.6s1.1-0.9,1.3-1.6l0.4,1.5
		c-0.3,0.7-0.8,1.3-1.5,1.7C445.1,615.2,444.2,615.4,443.1,615.4z M447.1,615.3v-2.6l-0.1-0.5v-4.4c0-0.9-0.3-1.7-0.8-2.2
		c-0.5-0.5-1.4-0.8-2.4-0.8c-0.7,0-1.4,0.1-2.1,0.4c-0.7,0.2-1.3,0.6-1.7,1l-0.9-1.7c0.6-0.5,1.4-0.9,2.3-1.2
		c0.9-0.3,1.8-0.4,2.8-0.4c1.7,0,3,0.4,3.9,1.2c0.9,0.8,1.4,2.1,1.4,3.7v7.4H447.1z"/>
	<path class="st2" d="M458.5,615.4c-1.2,0-2.3-0.3-3.3-0.8c-1-0.5-1.7-1.3-2.3-2.2c-0.6-0.9-0.8-2-0.8-3.2c0-1.2,0.3-2.3,0.8-3.2
		s1.3-1.7,2.3-2.2c1-0.5,2-0.8,3.3-0.8c1.2,0,2.3,0.3,3.3,0.8c1,0.5,1.7,1.3,2.3,2.2c0.5,0.9,0.8,2,0.8,3.2s-0.3,2.3-0.8,3.2
		s-1.3,1.7-2.3,2.2C460.8,615.2,459.7,615.4,458.5,615.4z M458.5,613.5c0.8,0,1.5-0.2,2.1-0.5c0.6-0.4,1.1-0.9,1.5-1.5
		c0.4-0.7,0.5-1.4,0.5-2.3c0-0.9-0.2-1.6-0.5-2.3s-0.8-1.1-1.5-1.5c-0.6-0.4-1.3-0.5-2.1-0.5c-0.8,0-1.5,0.2-2.1,0.5
		s-1.1,0.8-1.5,1.5s-0.6,1.4-0.6,2.3c0,0.9,0.2,1.6,0.6,2.3c0.4,0.7,0.9,1.2,1.5,1.5C457,613.3,457.7,613.5,458.5,613.5z"/>
	<path class="st2" d="M473,615.4c-1,0-2-0.2-2.7-0.6c-0.8-0.4-1.4-1-1.8-1.8c-0.4-0.8-0.7-1.8-0.7-3v-7h2.2v6.8
		c0,1.2,0.3,2.1,0.9,2.7c0.6,0.6,1.4,0.9,2.4,0.9c0.8,0,1.4-0.2,2-0.5s1-0.8,1.3-1.4s0.5-1.3,0.5-2.2v-6.3h2.2v12.2h-2.1V612
		l0.3,0.9c-0.4,0.8-1,1.4-1.8,1.9C474.9,615.2,474,615.4,473,615.4z"/>
	<path class="st2" d="M162.6,710.1V694h7.2c1.9,0,3.3,0.4,4.3,1.1c1,0.7,1.5,1.8,1.5,3c0,0.9-0.2,1.6-0.6,2.2
		c-0.4,0.6-0.9,1.1-1.6,1.4c-0.7,0.3-1.4,0.5-2.1,0.5l0.4-0.7c0.9,0,1.7,0.2,2.4,0.5c0.7,0.3,1.3,0.8,1.7,1.4s0.6,1.4,0.6,2.3
		c0,1.4-0.5,2.4-1.6,3.2c-1,0.8-2.6,1.1-4.6,1.1H162.6z M164.9,708.3h5.3c1.3,0,2.2-0.2,2.9-0.6s1-1.1,1-2c0-0.9-0.3-1.6-1-2
		c-0.7-0.4-1.6-0.6-2.9-0.6h-5.5V701h4.9c1.2,0,2.1-0.2,2.7-0.6c0.6-0.4,1-1.1,1-1.9c0-0.9-0.3-1.5-1-1.9c-0.6-0.4-1.5-0.6-2.7-0.6
		h-4.7V708.3z"/>
	<path class="st2" d="M179.6,710.1v-12.2h2.1v3.3l-0.2-0.8c0.3-0.8,0.9-1.5,1.7-1.9c0.8-0.4,1.8-0.7,2.9-0.7v2.1c-0.1,0-0.2,0-0.3,0
		c-0.1,0-0.2,0-0.2,0c-1.2,0-2.1,0.4-2.8,1.1c-0.7,0.7-1,1.7-1,3.1v6.1H179.6z"/>
	<path class="st2" d="M190,695.6c-0.4,0-0.8-0.1-1.1-0.4c-0.3-0.3-0.4-0.6-0.4-1c0-0.4,0.1-0.8,0.4-1c0.3-0.3,0.6-0.4,1.1-0.4
		c0.4,0,0.8,0.1,1.1,0.4c0.3,0.3,0.4,0.6,0.4,1c0,0.4-0.1,0.8-0.4,1C190.8,695.4,190.5,695.6,190,695.6z M188.9,710.1v-12.2h2.2
		v12.2H188.9z"/>
	<path class="st2" d="M200.8,710.3c-1.3,0-2.5-0.3-3.4-0.8c-1-0.5-1.8-1.3-2.3-2.2s-0.8-2-0.8-3.2s0.3-2.3,0.8-3.2
		c0.5-0.9,1.3-1.7,2.2-2.2c0.9-0.5,2-0.8,3.1-0.8c1.2,0,2.2,0.3,3.1,0.8c0.9,0.5,1.6,1.3,2.1,2.2c0.5,0.9,0.8,2,0.8,3.3
		c0,0.1,0,0.2,0,0.3c0,0.1,0,0.2,0,0.3h-10.4v-1.6h9.2l-0.9,0.6c0-0.8-0.1-1.5-0.5-2.1c-0.3-0.6-0.8-1.1-1.4-1.4
		c-0.6-0.3-1.3-0.5-2.1-0.5c-0.8,0-1.4,0.2-2,0.5c-0.6,0.3-1.1,0.8-1.4,1.4s-0.5,1.3-0.5,2.1v0.4c0,0.8,0.2,1.5,0.6,2.2
		c0.4,0.6,0.9,1.1,1.6,1.5c0.7,0.4,1.4,0.5,2.3,0.5c0.7,0,1.4-0.1,2-0.4c0.6-0.2,1.1-0.6,1.6-1.1l1.2,1.4c-0.6,0.6-1.2,1.1-2.1,1.5
		C202.7,710.1,201.8,710.3,200.8,710.3z"/>
	<path class="st2" d="M214.7,710.3c-1.2,0-2.4-0.3-3.3-0.8c-1-0.5-1.7-1.3-2.3-2.2s-0.8-2-0.8-3.2s0.3-2.3,0.8-3.2
		c0.6-0.9,1.3-1.7,2.3-2.2c1-0.5,2.1-0.8,3.3-0.8c1.1,0,2.1,0.2,3,0.7c0.9,0.4,1.5,1.1,2,1.9l-1.7,1.1c-0.4-0.6-0.9-1-1.5-1.3
		c-0.6-0.3-1.2-0.4-1.9-0.4c-0.8,0-1.5,0.2-2.1,0.5c-0.6,0.4-1.1,0.8-1.5,1.5s-0.6,1.4-0.6,2.3s0.2,1.6,0.6,2.3
		c0.4,0.6,0.9,1.1,1.5,1.5c0.6,0.4,1.3,0.5,2.1,0.5c0.7,0,1.3-0.1,1.9-0.4c0.6-0.3,1.1-0.7,1.5-1.3l1.7,1.1c-0.5,0.8-1.1,1.5-2,1.9
		S215.8,710.3,214.7,710.3z"/>
	<path class="st2" d="M265.3,864.5v-16.1h6.3c1.4,0,2.6,0.2,3.6,0.7c1,0.4,1.8,1.1,2.3,1.9c0.5,0.8,0.8,1.8,0.8,3
		c0,1.2-0.3,2.2-0.8,3c-0.5,0.8-1.3,1.5-2.3,1.9c-1,0.4-2.2,0.7-3.6,0.7h-5l1-1.1v6H265.3z M267.6,858.7l-1-1.1h4.9
		c1.5,0,2.6-0.3,3.3-1c0.8-0.6,1.1-1.5,1.1-2.7c0-1.1-0.4-2-1.1-2.7c-0.8-0.6-1.9-0.9-3.3-0.9h-4.9l1-1.2V858.7z M276.1,864.5
		l-4.1-5.8h2.5l4.1,5.8H276.1z"/>
	<path class="st2" d="M286.9,864.6c-1.2,0-2.3-0.3-3.3-0.8c-1-0.5-1.7-1.3-2.3-2.2c-0.6-0.9-0.8-2-0.8-3.2c0-1.2,0.3-2.3,0.8-3.2
		s1.3-1.7,2.3-2.2c1-0.5,2-0.8,3.3-0.8c1.2,0,2.3,0.3,3.3,0.8c1,0.5,1.7,1.3,2.3,2.2c0.5,0.9,0.8,2,0.8,3.2s-0.3,2.3-0.8,3.2
		s-1.3,1.7-2.3,2.2C289.2,864.3,288.1,864.6,286.9,864.6z M286.9,862.7c0.8,0,1.5-0.2,2.1-0.5c0.6-0.4,1.1-0.9,1.5-1.5
		c0.4-0.7,0.5-1.4,0.5-2.3c0-0.9-0.2-1.6-0.5-2.3s-0.8-1.1-1.5-1.5c-0.6-0.4-1.3-0.5-2.1-0.5c-0.8,0-1.5,0.2-2.1,0.5
		s-1.1,0.8-1.5,1.5s-0.6,1.4-0.6,2.3c0,0.9,0.2,1.6,0.6,2.3c0.4,0.7,0.9,1.2,1.5,1.5C285.5,862.5,286.2,862.7,286.9,862.7z"/>
	<path class="st2" d="M299.8,864.6c-1,0-2-0.1-2.9-0.4c-0.9-0.3-1.6-0.6-2.2-1l0.9-1.7c0.5,0.4,1.2,0.7,1.9,0.9
		c0.8,0.2,1.5,0.4,2.3,0.4c1,0,1.8-0.1,2.2-0.4c0.5-0.3,0.7-0.7,0.7-1.2c0-0.4-0.1-0.7-0.4-0.9c-0.3-0.2-0.6-0.4-1.1-0.5
		s-1-0.2-1.5-0.3c-0.6-0.1-1.1-0.2-1.7-0.3c-0.6-0.1-1.1-0.3-1.5-0.6c-0.5-0.2-0.8-0.6-1.1-1c-0.3-0.4-0.4-1-0.4-1.7
		c0-0.7,0.2-1.4,0.6-1.9c0.4-0.6,1-1,1.8-1.3s1.7-0.4,2.7-0.4c0.8,0,1.6,0.1,2.4,0.3c0.8,0.2,1.5,0.5,2,0.8l-0.9,1.7
		c-0.6-0.4-1.1-0.6-1.7-0.8s-1.2-0.2-1.8-0.2c-1,0-1.7,0.2-2.2,0.5s-0.7,0.7-0.7,1.2c0,0.4,0.1,0.7,0.4,1c0.3,0.2,0.7,0.4,1.1,0.5
		c0.5,0.1,1,0.2,1.5,0.3c0.6,0.1,1.1,0.2,1.7,0.3c0.6,0.1,1.1,0.3,1.5,0.5c0.5,0.2,0.8,0.6,1.1,1c0.3,0.4,0.4,1,0.4,1.7
		c0,0.7-0.2,1.4-0.6,1.9c-0.4,0.5-1,1-1.8,1.3C301.8,864.5,300.9,864.6,299.8,864.6z"/>
	<path class="st2" d="M307.8,868.9v-16.7h2.1v3.3l-0.1,2.8l0.2,2.8v7.7H307.8z M314.3,864.6c-1,0-1.9-0.2-2.8-0.7s-1.5-1.2-2-2.1
		c-0.5-0.9-0.7-2.1-0.7-3.5s0.2-2.5,0.7-3.5c0.5-0.9,1.1-1.6,2-2.1s1.8-0.7,2.8-0.7c1.2,0,2.3,0.3,3.2,0.8c0.9,0.5,1.6,1.2,2.2,2.2
		c0.5,0.9,0.8,2,0.8,3.3s-0.3,2.3-0.8,3.3c-0.5,0.9-1.3,1.7-2.2,2.2C316.6,864.3,315.5,864.6,314.3,864.6z M314.1,862.7
		c0.8,0,1.5-0.2,2.1-0.5c0.6-0.4,1.1-0.9,1.5-1.5c0.4-0.7,0.5-1.4,0.5-2.3c0-0.9-0.2-1.6-0.5-2.3s-0.9-1.1-1.5-1.5s-1.3-0.5-2.1-0.5
		c-0.8,0-1.5,0.2-2.1,0.5c-0.6,0.4-1.1,0.8-1.5,1.5s-0.5,1.4-0.5,2.3c0,0.9,0.2,1.6,0.5,2.3c0.4,0.7,0.9,1.2,1.5,1.5
		C312.7,862.5,313.4,862.7,314.1,862.7z"/>
	<path class="st2" d="M328.7,864.6c-1.2,0-2.3-0.3-3.3-0.8c-1-0.5-1.7-1.3-2.3-2.2c-0.6-0.9-0.8-2-0.8-3.2c0-1.2,0.3-2.3,0.8-3.2
		s1.3-1.7,2.3-2.2c1-0.5,2-0.8,3.3-0.8c1.2,0,2.3,0.3,3.3,0.8c1,0.5,1.7,1.3,2.3,2.2c0.5,0.9,0.8,2,0.8,3.2s-0.3,2.3-0.8,3.2
		s-1.3,1.7-2.3,2.2C331,864.3,330,864.6,328.7,864.6z M328.7,862.7c0.8,0,1.5-0.2,2.1-0.5c0.6-0.4,1.1-0.9,1.5-1.5
		c0.4-0.7,0.5-1.4,0.5-2.3c0-0.9-0.2-1.6-0.5-2.3s-0.8-1.1-1.5-1.5c-0.6-0.4-1.3-0.5-2.1-0.5c-0.8,0-1.5,0.2-2.1,0.5
		s-1.1,0.8-1.5,1.5s-0.6,1.4-0.6,2.3c0,0.9,0.2,1.6,0.6,2.3c0.4,0.7,0.9,1.2,1.5,1.5C327.3,862.5,328,862.7,328.7,862.7z"/>
	<path class="st2" d="M338.1,864.5v-12.2h2.1v3.3l-0.2-0.8c0.3-0.8,0.9-1.5,1.7-1.9c0.8-0.4,1.8-0.7,2.9-0.7v2.1c-0.1,0-0.2,0-0.3,0
		c-0.1,0-0.2,0-0.2,0c-1.2,0-2.1,0.4-2.8,1.1c-0.7,0.7-1,1.7-1,3.1v6.1H338.1z"/>
	<path class="st2" d="M352.3,864.6c-1.2,0-2.2-0.3-3.2-0.8s-1.7-1.2-2.2-2.2c-0.5-0.9-0.8-2-0.8-3.3s0.3-2.3,0.8-3.3
		c0.5-0.9,1.3-1.7,2.2-2.2c0.9-0.5,2-0.8,3.2-0.8c1,0,2,0.2,2.8,0.7s1.5,1.2,2,2.1s0.7,2.1,0.7,3.5s-0.2,2.5-0.7,3.5
		c-0.5,0.9-1.1,1.6-2,2.1S353.4,864.6,352.3,864.6z M352.5,862.7c0.8,0,1.5-0.2,2.1-0.5c0.6-0.4,1.1-0.9,1.5-1.5
		c0.4-0.7,0.5-1.4,0.5-2.3c0-0.9-0.2-1.6-0.5-2.3s-0.9-1.1-1.5-1.5s-1.3-0.5-2.1-0.5c-0.8,0-1.5,0.2-2.1,0.5s-1.1,0.8-1.5,1.5
		s-0.6,1.4-0.6,2.3c0,0.9,0.2,1.6,0.6,2.3c0.4,0.7,0.9,1.2,1.5,1.5C351,862.5,351.7,862.7,352.5,862.7z M356.7,864.5v-3.3l0.1-2.8
		l-0.2-2.8v-8.1h2.2v17.1H356.7z"/>
	<path class="st2" d="M368.4,864.6c-1.3,0-2.5-0.3-3.4-0.8c-1-0.5-1.8-1.3-2.3-2.2s-0.8-2-0.8-3.2s0.3-2.3,0.8-3.2
		c0.5-0.9,1.3-1.7,2.2-2.2c0.9-0.5,2-0.8,3.1-0.8c1.2,0,2.2,0.3,3.1,0.8c0.9,0.5,1.6,1.3,2.1,2.2c0.5,0.9,0.8,2,0.8,3.3
		c0,0.1,0,0.2,0,0.3c0,0.1,0,0.2,0,0.3h-10.4v-1.6h9.2l-0.9,0.6c0-0.8-0.1-1.5-0.5-2.1c-0.3-0.6-0.8-1.1-1.4-1.4
		c-0.6-0.3-1.3-0.5-2.1-0.5c-0.8,0-1.4,0.2-2,0.5c-0.6,0.3-1.1,0.8-1.4,1.4s-0.5,1.3-0.5,2.1v0.4c0,0.8,0.2,1.5,0.6,2.2
		c0.4,0.6,0.9,1.1,1.6,1.5c0.7,0.4,1.4,0.5,2.3,0.5c0.7,0,1.4-0.1,2-0.4c0.6-0.2,1.1-0.6,1.6-1.1l1.2,1.4c-0.6,0.6-1.2,1.1-2.1,1.5
		C370.3,864.4,369.4,864.6,368.4,864.6z"/>
	<path class="st2" d="M383.6,852.2c1,0,1.9,0.2,2.6,0.6c0.8,0.4,1.4,1,1.8,1.7c0.4,0.8,0.6,1.8,0.6,3v7h-2.2v-6.8
		c0-1.2-0.3-2.1-0.9-2.7c-0.6-0.6-1.4-0.9-2.4-0.9c-0.8,0-1.5,0.2-2,0.5c-0.6,0.3-1,0.8-1.3,1.4c-0.3,0.6-0.5,1.3-0.5,2.2v6.3H377
		v-12.2h2.1v3.3l-0.3-0.9c0.4-0.8,1-1.4,1.8-1.9C381.5,852.4,382.5,852.2,383.6,852.2z"/>
	<path class="st2" d="M484.7,959c-1.2,0-2.4-0.2-3.4-0.6c-1.1-0.4-2-1-2.7-1.7c-0.8-0.7-1.4-1.6-1.8-2.6c-0.4-1-0.6-2.1-0.6-3.3
		s0.2-2.3,0.6-3.3c0.4-1,1-1.9,1.8-2.6c0.8-0.7,1.7-1.3,2.7-1.7s2.2-0.6,3.4-0.6c1.2,0,2.4,0.2,3.4,0.6c1,0.4,1.9,1,2.7,1.7
		c0.8,0.7,1.4,1.6,1.8,2.6c0.4,1,0.6,2.1,0.6,3.3c0,1.2-0.2,2.3-0.6,3.3c-0.4,1-1,1.9-1.8,2.6s-1.7,1.3-2.7,1.7S485.9,959,484.7,959
		z M484.7,956.9c0.9,0,1.7-0.2,2.5-0.5c0.8-0.3,1.4-0.7,2-1.3c0.6-0.6,1-1.2,1.3-2c0.3-0.8,0.5-1.6,0.5-2.4c0-0.9-0.2-1.7-0.5-2.5
		s-0.8-1.4-1.3-2c-0.6-0.6-1.2-1-2-1.3c-0.8-0.3-1.6-0.5-2.5-0.5c-0.9,0-1.7,0.2-2.5,0.5c-0.8,0.3-1.4,0.7-2,1.3
		c-0.6,0.6-1,1.2-1.3,2c-0.3,0.8-0.5,1.6-0.5,2.5c0,0.9,0.2,1.7,0.5,2.4c0.3,0.8,0.8,1.4,1.3,2c0.6,0.6,1.2,1,2,1.3
		C483,956.8,483.8,956.9,484.7,956.9z M490,962.1c-0.5,0-1.1-0.1-1.5-0.2c-0.5-0.1-1-0.3-1.5-0.6c-0.5-0.3-1-0.7-1.5-1.1
		s-1.1-1-1.7-1.7l2.5-0.6c0.5,0.6,0.9,1,1.3,1.4c0.4,0.4,0.8,0.6,1.3,0.8s0.8,0.2,1.2,0.2c1.1,0,2.1-0.5,2.9-1.4l1.1,1.3
		C493,961.5,491.6,962.1,490,962.1z"/>
	<path class="st2" d="M501.6,958.9c-1,0-2-0.2-2.7-0.6c-0.8-0.4-1.4-1-1.8-1.8c-0.4-0.8-0.7-1.8-0.7-3v-7h2.2v6.8
		c0,1.2,0.3,2.1,0.9,2.7c0.6,0.6,1.4,0.9,2.4,0.9c0.8,0,1.4-0.2,2-0.5s1-0.8,1.3-1.4s0.5-1.3,0.5-2.2v-6.3h2.2v12.2h-2.1v-3.3
		l0.3,0.9c-0.4,0.8-1,1.4-1.8,1.9C503.5,958.7,502.6,958.9,501.6,958.9z"/>
	<path class="st2" d="M513.1,944.2c-0.4,0-0.8-0.1-1.1-0.4c-0.3-0.3-0.4-0.6-0.4-1c0-0.4,0.1-0.8,0.4-1c0.3-0.3,0.6-0.4,1.1-0.4
		c0.4,0,0.8,0.1,1.1,0.4c0.3,0.3,0.4,0.6,0.4,1c0,0.4-0.1,0.8-0.4,1C513.9,944.1,513.5,944.2,513.1,944.2z M512,958.8v-12.2h2.2
		v12.2H512z"/>
	<path class="st2" d="M533.7,946.5c1,0,1.8,0.2,2.6,0.6c0.8,0.4,1.3,1,1.8,1.7c0.4,0.8,0.6,1.8,0.6,3v7h-2.2V952
		c0-1.2-0.3-2.1-0.8-2.7c-0.6-0.6-1.3-0.9-2.3-0.9c-0.7,0-1.4,0.2-1.9,0.5s-1,0.8-1.3,1.4c-0.3,0.6-0.4,1.3-0.4,2.2v6.3h-2.2V952
		c0-1.2-0.3-2.1-0.8-2.7c-0.5-0.6-1.3-0.9-2.3-0.9c-0.7,0-1.4,0.2-1.9,0.5s-1,0.8-1.3,1.4c-0.3,0.6-0.5,1.3-0.5,2.2v6.3h-2.2v-12.2
		h2.1v3.2l-0.3-0.8c0.4-0.8,1-1.4,1.8-1.9c0.8-0.4,1.7-0.7,2.8-0.7c1.2,0,2.2,0.3,3,0.9c0.8,0.6,1.4,1.4,1.7,2.6l-0.9-0.4
		c0.4-0.9,1-1.7,1.9-2.3S532.4,946.5,533.7,946.5z"/>
	<path class="st2" d="M542.7,963.2v-16.7h2.1v3.3l-0.1,2.8l0.2,2.8v7.7H542.7z M549.2,958.9c-1,0-1.9-0.2-2.8-0.7s-1.5-1.2-2-2.1
		c-0.5-0.9-0.7-2.1-0.7-3.5s0.2-2.5,0.7-3.5c0.5-0.9,1.1-1.6,2-2.1s1.8-0.7,2.8-0.7c1.2,0,2.3,0.3,3.2,0.8c0.9,0.5,1.6,1.2,2.2,2.2
		c0.5,0.9,0.8,2,0.8,3.3s-0.3,2.3-0.8,3.3c-0.5,0.9-1.3,1.7-2.2,2.2C551.4,958.7,550.4,958.9,549.2,958.9z M549,957
		c0.8,0,1.5-0.2,2.1-0.5c0.6-0.4,1.1-0.9,1.5-1.5c0.4-0.7,0.5-1.4,0.5-2.3c0-0.9-0.2-1.6-0.5-2.3s-0.9-1.1-1.5-1.5s-1.3-0.5-2.1-0.5
		c-0.8,0-1.5,0.2-2.1,0.5c-0.6,0.4-1.1,0.8-1.5,1.5s-0.5,1.4-0.5,2.3c0,0.9,0.2,1.6,0.5,2.3c0.4,0.7,0.9,1.2,1.5,1.5
		C547.5,956.8,548.2,957,549,957z"/>
	<path class="st2" d="M563.8,958.9c-1.3,0-2.5-0.3-3.4-0.8c-1-0.5-1.8-1.3-2.3-2.2s-0.8-2-0.8-3.2s0.3-2.3,0.8-3.2
		c0.5-0.9,1.3-1.7,2.2-2.2c0.9-0.5,2-0.8,3.1-0.8c1.2,0,2.2,0.3,3.1,0.8c0.9,0.5,1.6,1.3,2.1,2.2c0.5,0.9,0.8,2,0.8,3.3
		c0,0.1,0,0.2,0,0.3c0,0.1,0,0.2,0,0.3H559v-1.6h9.2l-0.9,0.6c0-0.8-0.1-1.5-0.5-2.1c-0.3-0.6-0.8-1.1-1.4-1.4
		c-0.6-0.3-1.3-0.5-2.1-0.5c-0.8,0-1.4,0.2-2,0.5c-0.6,0.3-1.1,0.8-1.4,1.4s-0.5,1.3-0.5,2.1v0.4c0,0.8,0.2,1.5,0.6,2.2
		c0.4,0.6,0.9,1.1,1.6,1.5c0.7,0.4,1.4,0.5,2.3,0.5c0.7,0,1.4-0.1,2-0.4c0.6-0.2,1.1-0.6,1.6-1.1l1.2,1.4c-0.6,0.6-1.2,1.1-2.1,1.5
		C565.8,958.7,564.9,958.9,563.8,958.9z"/>
	<path class="st2" d="M572.5,958.8v-12.2h2.1v3.3l-0.2-0.8c0.3-0.8,0.9-1.5,1.7-1.9c0.8-0.4,1.8-0.7,2.9-0.7v2.1c-0.1,0-0.2,0-0.3,0
		c-0.1,0-0.2,0-0.2,0c-1.2,0-2.1,0.4-2.8,1.1c-0.7,0.7-1,1.7-1,3.1v6.1H572.5z"/>
	<path class="st2" d="M581.8,958.8v-17.1h2.2v17.1H581.8z"/>
	<path class="st2" d="M593.6,958.9c-1.3,0-2.5-0.3-3.4-0.8c-1-0.5-1.8-1.3-2.3-2.2s-0.8-2-0.8-3.2s0.3-2.3,0.8-3.2
		c0.5-0.9,1.3-1.7,2.2-2.2c0.9-0.5,2-0.8,3.1-0.8c1.2,0,2.2,0.3,3.1,0.8c0.9,0.5,1.6,1.3,2.1,2.2c0.5,0.9,0.8,2,0.8,3.3
		c0,0.1,0,0.2,0,0.3c0,0.1,0,0.2,0,0.3h-10.4v-1.6h9.2l-0.9,0.6c0-0.8-0.1-1.5-0.5-2.1c-0.3-0.6-0.8-1.1-1.4-1.4
		c-0.6-0.3-1.3-0.5-2.1-0.5c-0.8,0-1.4,0.2-2,0.5c-0.6,0.3-1.1,0.8-1.4,1.4s-0.5,1.3-0.5,2.1v0.4c0,0.8,0.2,1.5,0.6,2.2
		c0.4,0.6,0.9,1.1,1.6,1.5c0.7,0.4,1.4,0.5,2.3,0.5c0.7,0,1.4-0.1,2-0.4c0.6-0.2,1.1-0.6,1.6-1.1l1.2,1.4c-0.6,0.6-1.2,1.1-2.1,1.5
		C595.5,958.7,594.6,958.9,593.6,958.9z M591.4,944.8l3.1-3h2.8l-3.9,3H591.4z"/>
	<path class="st2" d="M858.4,739.6v-16.1h6.3c1.4,0,2.6,0.2,3.6,0.7c1,0.4,1.8,1.1,2.3,1.9c0.5,0.8,0.8,1.8,0.8,3
		c0,1.2-0.3,2.2-0.8,3c-0.5,0.8-1.3,1.5-2.3,1.9c-1,0.5-2.2,0.7-3.6,0.7h-5l1-1.1v6H858.4z M860.7,733.9l-1-1.2h4.9
		c1.5,0,2.6-0.3,3.3-0.9c0.8-0.6,1.1-1.5,1.1-2.7c0-1.1-0.4-2-1.1-2.7c-0.8-0.6-1.9-0.9-3.3-0.9h-4.9l1-1.2V733.9z"/>
	<path class="st2" d="M879.6,739.8c-1.2,0-2.3-0.3-3.3-0.8c-1-0.5-1.7-1.3-2.3-2.2c-0.6-0.9-0.8-2-0.8-3.2c0-1.2,0.3-2.3,0.8-3.2
		s1.3-1.7,2.3-2.2c1-0.5,2-0.8,3.3-0.8c1.2,0,2.3,0.3,3.3,0.8c1,0.5,1.7,1.3,2.3,2.2c0.5,0.9,0.8,2,0.8,3.2s-0.3,2.3-0.8,3.2
		s-1.3,1.7-2.3,2.2C881.9,739.5,880.9,739.8,879.6,739.8z M879.6,737.8c0.8,0,1.5-0.2,2.1-0.5c0.6-0.4,1.1-0.9,1.5-1.5
		c0.4-0.7,0.5-1.4,0.5-2.3c0-0.9-0.2-1.6-0.5-2.3s-0.8-1.1-1.5-1.5c-0.6-0.4-1.3-0.5-2.1-0.5c-0.8,0-1.5,0.2-2.1,0.5
		s-1.1,0.8-1.5,1.5s-0.6,1.4-0.6,2.3c0,0.9,0.2,1.6,0.6,2.3c0.4,0.7,0.9,1.2,1.5,1.5C878.2,737.7,878.9,737.8,879.6,737.8z"/>
	<path class="st2" d="M895.5,727.3c1,0,1.9,0.2,2.6,0.6c0.8,0.4,1.4,1,1.8,1.7c0.4,0.8,0.6,1.8,0.6,3v7h-2.2v-6.8
		c0-1.2-0.3-2.1-0.9-2.7c-0.6-0.6-1.4-0.9-2.4-0.9c-0.8,0-1.5,0.2-2,0.5c-0.6,0.3-1,0.8-1.3,1.4c-0.3,0.6-0.5,1.3-0.5,2.2v6.3H889
		v-12.2h2.1v3.3l-0.3-0.9c0.4-0.8,1-1.4,1.8-1.9C893.5,727.5,894.4,727.3,895.5,727.3z"/>
	<path class="st2" d="M902.9,729.3v-1.8h7.8v1.8H902.9z M908.9,739.8c-1.2,0-2.2-0.3-2.9-1s-1-1.6-1-2.8v-11.2h2.2v11.1
		c0,0.7,0.2,1.2,0.5,1.5s0.8,0.5,1.4,0.5c0.7,0,1.3-0.2,1.7-0.6l0.7,1.6c-0.3,0.3-0.7,0.5-1.2,0.6
		C909.9,739.7,909.4,739.8,908.9,739.8z"/>
	<path class="st2" d="M915.3,725.1c-0.4,0-0.8-0.1-1.1-0.4c-0.3-0.3-0.4-0.6-0.4-1c0-0.4,0.1-0.8,0.4-1c0.3-0.3,0.6-0.4,1.1-0.4
		c0.4,0,0.8,0.1,1.1,0.4c0.3,0.3,0.4,0.6,0.4,1c0,0.4-0.1,0.8-0.4,1C916.1,724.9,915.8,725.1,915.3,725.1z M914.2,739.6v-12.2h2.2
		v12.2H914.2z"/>
	<path class="st2" d="M923.8,739.6l-5.3-12.2h2.3l4.7,11h-1.1l4.8-11h2.2l-5.3,12.2H923.8z"/>
	<path class="st2" d="M933.8,744.2c-0.6,0-1.2-0.1-1.7-0.3c-0.6-0.2-1-0.5-1.4-0.8l0.9-1.7c0.3,0.3,0.6,0.5,1,0.7
		c0.4,0.2,0.8,0.2,1.2,0.2c0.5,0,1-0.1,1.3-0.4c0.4-0.3,0.7-0.8,1-1.5l0.8-1.7l0.2-0.3l4.8-11.1h2.2l-5.9,13.4
		c-0.4,0.9-0.7,1.5-1.2,2c-0.4,0.5-0.9,0.8-1.4,1S934.5,744.2,933.8,744.2z M936.7,740l-5.6-12.6h2.3l4.7,10.9L936.7,740z"/>
	<g>
		<path d="M473.6,519c-0.2,1.7-0.8,3.1-1.9,4s-2.5,1.4-4.3,1.4c-1.9,0-3.5-0.7-4.6-2.1c-1.2-1.4-1.7-3.2-1.7-5.6v-1.6
			c0-1.5,0.3-2.9,0.8-4c0.5-1.2,1.3-2,2.3-2.7c1-0.6,2.1-0.9,3.5-0.9c1.7,0,3.1,0.5,4.2,1.5c1,1,1.7,2.3,1.8,4h-2.2
			c-0.2-1.3-0.6-2.3-1.2-2.8s-1.5-0.9-2.6-0.9c-1.4,0-2.5,0.5-3.2,1.5s-1.2,2.5-1.2,4.3v1.6c0,1.8,0.4,3.2,1.1,4.2
			c0.7,1,1.8,1.6,3.1,1.6c1.2,0,2.1-0.3,2.8-0.8c0.6-0.5,1.1-1.5,1.3-2.8H473.6z"/>
		<path d="M483.8,524.2c-0.1-0.2-0.2-0.7-0.3-1.3c-1,1-2.1,1.5-3.5,1.5c-1.2,0-2.2-0.3-2.9-1s-1.2-1.5-1.2-2.6
			c0-1.3,0.5-2.2,1.4-2.9s2.3-1,4.1-1h2v-1c0-0.7-0.2-1.3-0.7-1.7c-0.4-0.4-1.1-0.6-1.9-0.6c-0.7,0-1.4,0.2-1.9,0.6
			c-0.5,0.4-0.8,0.8-0.8,1.4h-2.1c0-0.6,0.2-1.2,0.6-1.8s1-1,1.8-1.3s1.5-0.5,2.4-0.5c1.4,0,2.5,0.3,3.3,1s1.2,1.7,1.2,2.9v5.6
			c0,1.1,0.1,2,0.4,2.7v0.2H483.8z M480.3,522.6c0.7,0,1.3-0.2,1.9-0.5s1-0.8,1.3-1.3v-2.5h-1.6c-2.5,0-3.8,0.7-3.8,2.2
			c0,0.7,0.2,1.2,0.7,1.5S479.6,522.6,480.3,522.6z"/>
		<path d="M494.6,513.9c-0.3-0.1-0.7-0.1-1-0.1c-1.4,0-2.3,0.6-2.8,1.7v8.6h-2.1v-12.2h2l0,1.4c0.7-1.1,1.6-1.6,2.9-1.6
			c0.4,0,0.7,0.1,0.9,0.2V513.9z"/>
		<path d="M498.6,513.5c0.9-1.1,2.1-1.7,3.6-1.7c2.6,0,3.9,1.4,3.9,4.3v8H504v-8c0-0.9-0.2-1.5-0.6-1.9c-0.4-0.4-1-0.6-1.8-0.6
			c-0.7,0-1.3,0.2-1.8,0.5c-0.5,0.4-0.9,0.8-1.2,1.4v8.7h-2.1V507h2.1V513.5z"/>
		<path d="M516.7,524.2c-0.1-0.2-0.2-0.7-0.3-1.3c-1,1-2.1,1.5-3.5,1.5c-1.2,0-2.2-0.3-2.9-1s-1.2-1.5-1.2-2.6
			c0-1.3,0.5-2.2,1.4-2.9s2.3-1,4.1-1h2v-1c0-0.7-0.2-1.3-0.7-1.7c-0.4-0.4-1.1-0.6-1.9-0.6c-0.7,0-1.4,0.2-1.9,0.6
			c-0.5,0.4-0.8,0.8-0.8,1.4h-2.1c0-0.6,0.2-1.2,0.6-1.8s1-1,1.8-1.3s1.5-0.5,2.4-0.5c1.4,0,2.5,0.3,3.3,1s1.2,1.7,1.2,2.9v5.6
			c0,1.1,0.1,2,0.4,2.7v0.2H516.7z M513.3,522.6c0.7,0,1.3-0.2,1.9-0.5s1-0.8,1.3-1.3v-2.5h-1.6c-2.5,0-3.8,0.7-3.8,2.2
			c0,0.7,0.2,1.2,0.7,1.5S512.6,522.6,513.3,522.6z"/>
		<path d="M521.7,508.9c0-0.3,0.1-0.6,0.3-0.9c0.2-0.2,0.5-0.3,0.9-0.3s0.7,0.1,0.9,0.3c0.2,0.2,0.3,0.5,0.3,0.9
			c0,0.3-0.1,0.6-0.3,0.8s-0.5,0.3-0.9,0.3s-0.7-0.1-0.9-0.3S521.7,509.2,521.7,508.9z M524,524.2h-2.1v-12.2h2.1V524.2z"/>
		<path d="M531.4,516.5l2.7-4.4h2.4l-4,6l4.1,6.1h-2.4l-2.8-4.5l-2.8,4.5h-2.4l4.1-6.1l-4-6h2.4L531.4,516.5z"/>
	</g>
	<path class="st2" d="M640.3,562.4v-16.1h6.3c1.4,0,2.6,0.2,3.6,0.7c1,0.4,1.8,1.1,2.3,1.9c0.5,0.8,0.8,1.8,0.8,3
		c0,1.2-0.3,2.2-0.8,3c-0.5,0.8-1.3,1.5-2.3,1.9c-1,0.4-2.2,0.7-3.6,0.7h-5l1-1.1v6H640.3z M642.6,556.7l-1-1.1h4.9
		c1.5,0,2.6-0.3,3.3-1c0.8-0.6,1.1-1.5,1.1-2.7c0-1.1-0.4-2-1.1-2.7c-0.8-0.6-1.9-0.9-3.3-0.9h-4.9l1-1.2V556.7z M651.1,562.4
		l-4.1-5.8h2.5l4.1,5.8H651.1z"/>
	<path class="st2" d="M661.9,562.6c-1.2,0-2.3-0.3-3.3-0.8c-1-0.5-1.7-1.3-2.3-2.2c-0.6-0.9-0.8-2-0.8-3.2c0-1.2,0.3-2.3,0.8-3.2
		s1.3-1.7,2.3-2.2c1-0.5,2-0.8,3.3-0.8c1.2,0,2.3,0.3,3.3,0.8c1,0.5,1.7,1.3,2.3,2.2c0.5,0.9,0.8,2,0.8,3.2s-0.3,2.3-0.8,3.2
		s-1.3,1.7-2.3,2.2C664.2,562.3,663.2,562.6,661.9,562.6z M661.9,560.6c0.8,0,1.5-0.2,2.1-0.5c0.6-0.4,1.1-0.9,1.5-1.5
		c0.4-0.7,0.5-1.4,0.5-2.3c0-0.9-0.2-1.6-0.5-2.3s-0.8-1.1-1.5-1.5c-0.6-0.4-1.3-0.5-2.1-0.5c-0.8,0-1.5,0.2-2.1,0.5
		s-1.1,0.8-1.5,1.5s-0.6,1.4-0.6,2.3c0,0.9,0.2,1.6,0.6,2.3c0.4,0.7,0.9,1.2,1.5,1.5C660.5,560.5,661.2,560.6,661.9,560.6z"/>
	<path class="st2" d="M674.8,562.6c-1,0-2-0.1-2.9-0.4c-0.9-0.3-1.6-0.6-2.2-1l0.9-1.7c0.5,0.4,1.2,0.7,1.9,0.9
		c0.8,0.2,1.5,0.4,2.3,0.4c1,0,1.8-0.1,2.2-0.4c0.5-0.3,0.7-0.7,0.7-1.2c0-0.4-0.1-0.7-0.4-0.9c-0.3-0.2-0.6-0.4-1.1-0.5
		s-1-0.2-1.5-0.3c-0.6-0.1-1.1-0.2-1.7-0.3c-0.6-0.1-1.1-0.3-1.5-0.6c-0.5-0.2-0.8-0.6-1.1-1c-0.3-0.4-0.4-1-0.4-1.7
		c0-0.7,0.2-1.4,0.6-1.9c0.4-0.6,1-1,1.8-1.3s1.7-0.4,2.7-0.4c0.8,0,1.6,0.1,2.4,0.3c0.8,0.2,1.5,0.5,2,0.8l-0.9,1.7
		c-0.6-0.4-1.1-0.6-1.7-0.8s-1.2-0.2-1.8-0.2c-1,0-1.7,0.2-2.2,0.5s-0.7,0.7-0.7,1.2c0,0.4,0.1,0.7,0.4,1c0.3,0.2,0.7,0.4,1.1,0.5
		c0.5,0.1,1,0.2,1.5,0.3c0.6,0.1,1.1,0.2,1.7,0.3c0.6,0.1,1.1,0.3,1.5,0.5c0.5,0.2,0.8,0.6,1.1,1c0.3,0.4,0.4,1,0.4,1.7
		c0,0.7-0.2,1.4-0.6,1.9c-0.4,0.5-1,1-1.8,1.3C676.8,562.4,675.9,562.6,674.8,562.6z"/>
	<path class="st2" d="M681.1,552v-1.8h7.8v1.8H681.1z M687,562.6c-1.2,0-2.2-0.3-2.9-1s-1-1.6-1-2.8v-11.2h2.2v11.1
		c0,0.7,0.2,1.2,0.5,1.5s0.8,0.5,1.4,0.5c0.7,0,1.3-0.2,1.7-0.6l0.7,1.6c-0.3,0.3-0.7,0.5-1.2,0.6C688,562.5,687.5,562.6,687,562.6z
		"/>
	<path class="st2" d="M692.4,562.4v-12.2h2.1v3.3l-0.2-0.8c0.3-0.8,0.9-1.5,1.7-1.9c0.8-0.4,1.8-0.7,2.9-0.7v2.1c-0.1,0-0.2,0-0.3,0
		c-0.1,0-0.2,0-0.2,0c-1.2,0-2.1,0.4-2.8,1.1c-0.7,0.7-1,1.7-1,3.1v6.1H692.4z"/>
	<path class="st2" d="M707,562.6c-1.3,0-2.5-0.3-3.4-0.8c-1-0.5-1.8-1.3-2.3-2.2s-0.8-2-0.8-3.2s0.3-2.3,0.8-3.2
		c0.5-0.9,1.3-1.7,2.2-2.2c0.9-0.5,2-0.8,3.1-0.8c1.2,0,2.2,0.3,3.1,0.8c0.9,0.5,1.6,1.3,2.1,2.2c0.5,0.9,0.8,2,0.8,3.3
		c0,0.1,0,0.2,0,0.3c0,0.1,0,0.2,0,0.3h-10.4v-1.6h9.2l-0.9,0.6c0-0.8-0.1-1.5-0.5-2.1c-0.3-0.6-0.8-1.1-1.4-1.4
		c-0.6-0.3-1.3-0.5-2.1-0.5c-0.8,0-1.4,0.2-2,0.5c-0.6,0.3-1.1,0.8-1.4,1.4s-0.5,1.3-0.5,2.1v0.4c0,0.8,0.2,1.5,0.6,2.2
		c0.4,0.6,0.9,1.1,1.6,1.5c0.7,0.4,1.4,0.5,2.3,0.5c0.7,0,1.4-0.1,2-0.4c0.6-0.2,1.1-0.6,1.6-1.1l1.2,1.4c-0.6,0.6-1.2,1.1-2.1,1.5
		C708.9,562.4,708,562.6,707,562.6z"/>
	<path class="st2" d="M722.1,550.1c1,0,1.9,0.2,2.6,0.6c0.8,0.4,1.4,1,1.8,1.7c0.4,0.8,0.6,1.8,0.6,3v7H725v-6.8
		c0-1.2-0.3-2.1-0.9-2.7c-0.6-0.6-1.4-0.9-2.4-0.9c-0.8,0-1.5,0.2-2,0.5c-0.6,0.3-1,0.8-1.3,1.4c-0.3,0.6-0.5,1.3-0.5,2.2v6.3h-2.2
		v-12.2h2.1v3.3l-0.3-0.9c0.4-0.8,1-1.4,1.8-1.9C720,550.3,721,550.1,722.1,550.1z"/>
	<path class="st2" d="M736.7,562.6c-1.3,0-2.5-0.3-3.4-0.8c-1-0.5-1.8-1.3-2.3-2.2s-0.8-2-0.8-3.2s0.3-2.3,0.8-3.2
		c0.5-0.9,1.3-1.7,2.2-2.2c0.9-0.5,2-0.8,3.1-0.8c1.2,0,2.2,0.3,3.1,0.8c0.9,0.5,1.6,1.3,2.1,2.2c0.5,0.9,0.8,2,0.8,3.3
		c0,0.1,0,0.2,0,0.3c0,0.1,0,0.2,0,0.3h-10.4v-1.6h9.2l-0.9,0.6c0-0.8-0.1-1.5-0.5-2.1c-0.3-0.6-0.8-1.1-1.4-1.4
		c-0.6-0.3-1.3-0.5-2.1-0.5c-0.8,0-1.4,0.2-2,0.5c-0.6,0.3-1.1,0.8-1.4,1.4s-0.5,1.3-0.5,2.1v0.4c0,0.8,0.2,1.5,0.6,2.2
		c0.4,0.6,0.9,1.1,1.6,1.5c0.7,0.4,1.4,0.5,2.3,0.5c0.7,0,1.4-0.1,2-0.4c0.6-0.2,1.1-0.6,1.6-1.1l1.2,1.4c-0.6,0.6-1.2,1.1-2.1,1.5
		C738.6,562.4,737.7,562.6,736.7,562.6z"/>
	<path class="st2" d="M751.8,550.1c1,0,1.9,0.2,2.6,0.6c0.8,0.4,1.4,1,1.8,1.7c0.4,0.8,0.6,1.8,0.6,3v7h-2.2v-6.8
		c0-1.2-0.3-2.1-0.9-2.7c-0.6-0.6-1.4-0.9-2.4-0.9c-0.8,0-1.5,0.2-2,0.5c-0.6,0.3-1,0.8-1.3,1.4c-0.3,0.6-0.5,1.3-0.5,2.2v6.3h-2.2
		v-12.2h2.1v3.3l-0.3-0.9c0.4-0.8,1-1.4,1.8-1.9C749.8,550.3,750.7,550.1,751.8,550.1z"/>
	<path class="st2" d="M499.3,507l-12.6-16.8c-2.3-3-3.4-6.8-3.1-10.6c0.3-3.8,1.9-7.4,4.6-10c3-3,6.9-4.6,11.2-4.6
		c4.2,0,8.2,1.6,11.2,4.6c2.7,2.7,4.3,6.3,4.6,10c0.3,3.8-0.8,7.6-3.1,10.6L499.3,507z M499.3,467.2c-3.6,0-7,1.4-9.5,3.9
		c-4.7,4.7-5.3,12.3-1.2,17.6l10.8,14.3l10.8-14.3c4-5.3,3.5-12.9-1.2-17.6h0C506.3,468.6,502.9,467.2,499.3,467.2 M499.3,489.2
		c-4.7,0-8.5-3.8-8.5-8.5c0-4.7,3.8-8.5,8.5-8.5c4.7,0,8.5,3.8,8.5,8.5C507.8,485.4,504,489.2,499.3,489.2 M499.3,474.6
		c-3.4,0-6.2,2.8-6.2,6.2c0,3.4,2.8,6.2,6.2,6.2c3.4,0,6.2-2.8,6.2-6.2C505.5,477.3,502.7,474.6,499.3,474.6"/>
</g>
</svg>
