<?xml version="1.0" encoding="utf-8"?>
<!-- Generator: Adobe Illustrator 23.0.6, SVG Export Plug-In . SVG Version: 6.00 Build 0)  -->
<svg version="1.1" id="Calque_1" xmlns="http://www.w3.org/2000/svg" xmlns:xlink="http://www.w3.org/1999/xlink" x="0px" y="0px"
	 viewBox="0 0 1000 1000" style="enable-background:new 0 0 1000 1000;" xml:space="preserve">
<style type="text/css">
	.st0{display:none;fill:none;stroke:#F9E930;stroke-width:3;stroke-miterlimit:10;}
	.st1{fill:#F9E930;}
	.st2{fill:none;}
	.st3{enable-background:new    ;}
	.st4{fill:#010202;}
</style>
<image style="display:none;overflow:visible;enable-background:new    ;" width="1921" height="1081" xlink:href="E139EF38.jpeg"  transform="matrix(1.5985 0 0 1.5985 -967.6741 -395.6479)">
</image>
<circle class="st0" cx="500" cy="500" r="497.2"/>
<g>
	<g>
		<g>
			<path class="st1" d="M504.4,500.5c13-14.3,23.6-30.6,35.6-45.7c5.8-7.3,12.5-13.8,17.8-21.4c2.6-3.9,4.8-8.1,5.8-12.7
				c1-4.9,0.1-9.5-0.5-14.3c-0.3-2.4-0.5-4.9,0.2-7.3c0.8-2.8,2.8-4.7,5.3-6.1c4.1-2.3,8.6-3.9,12.9-5.9c8.4-4,16.6-8.4,24.1-13.9
				c7.3-5.4,13.8-11.7,18.8-19.3c3.8-5.8,6.2-12.4,8.9-18.7c1.5-3.4,3-6.9,4.8-10.2c1.3-2.4,2.6-4.8,4.6-6.5
				c5.3-4.5,11.3-8.3,17.2-12c3-1.9,6-3.7,9.1-5.4c2.8-1.5,5.6-2.6,8.5-3.8c7.2-3.2,13.6-8,19.3-13.5c11.2-11,19.4-24.7,30.7-35.6
				c6.1-5.9,12.9-10.4,20.6-14c7.1-3.4,13.9-7.4,20.3-11.9c5.8-4.1,11.4-8.7,17.2-12.9c7.1-5.2,14.5-9.9,22.3-14
				c15.6-8.3,32.1-15,48.3-22c4.5-2,8.9-3.9,13.4-5.9c0.9-0.4,0.1-1.7-0.8-1.3c-15.7,7-31.4,13.7-47,20.9
				c-9.4,4.3-18.7,8.9-27.4,14.6c-6.4,4.1-12.5,8.8-18.5,13.4c-5.8,4.4-11.7,8.8-18,12.5c-7.4,4.3-15.5,7.3-22.5,12.2
				c-12.9,9.2-21.7,22.5-31.8,34.5c-5.1,6-10.6,11.8-17.1,16.4c-3.4,2.4-7.1,4.5-11,6.1c-2.7,1.1-5.3,2.3-7.9,3.7
				c-6.5,3.6-12.8,7.7-18.9,12c-2.4,1.7-4.8,3.4-7,5.2c-1.9,1.7-3.3,3.9-4.5,6.1c-3.5,6.4-6.2,13.3-9.1,20
				c-3.2,7.4-7.6,14-13.3,19.7c-6.7,6.8-14.6,12.2-22.9,16.8c-4.2,2.3-8.4,4.5-12.8,6.5c-4.2,1.9-8.9,3.4-12.7,6.1
				c-8.9,6.3-2.9,16.9-3.9,25.6c-1.2,10.2-8.7,18.4-15.3,25.6c-13,14.4-23.5,30.7-35.6,45.8c-2.7,3.3-5.4,6.6-8.3,9.8
				C502.6,500.2,503.7,501.3,504.4,500.5L504.4,500.5z"/>
		</g>
	</g>
	<g>
		<g>
			<path class="st1" d="M503.3,500.5c4.4,4.8,10.2,6.9,16.3,8.5c3.5,0.9,6.9,1.8,10.3,3c3.7,1.3,7.2,3.2,10.9,4.6
				c15.3,5.8,32.3,6.6,48.4,8.5c35.9,4.1,71.8,8.3,107.7,12.4c18,2.1,35.9,4.1,53.9,6.2c17.9,2.1,35.9,3.7,53.7,6.3
				c8.3,1.2,16.3,3.2,23.7,7.3c6.7,3.7,13,8,20.7,9.1c8.1,1.1,16.3-0.6,24.4-1.2c7.8-0.5,15.3,0.6,22.7,2.9
				c14,4.3,27,11.7,41.4,14.6c13.8,2.7,28.2-0.4,41.9,3.5c3.4,0.9,6.5,2.3,9.4,4.3c0.8,0.5,1.5-0.8,0.8-1.3
				c-11.3-7.7-26.1-6.6-39.1-6.8c-7.4-0.1-14.5-1.3-21.6-3.5c-6.9-2.2-13.5-5.1-20.2-7.8c-6.8-2.7-13.6-5.3-20.8-6.6
				c-7.7-1.4-15.3-0.8-23,0.1c-8.7,1-17.2,1.3-25.3-2.7c-6.8-3.3-12.8-7.7-20-10.1c-7.6-2.5-15.5-3.4-23.4-4.3c-9-1-18-2.1-26.9-3.1
				c-18-2.1-35.9-4.1-53.9-6.2c-35.8-4.1-71.5-8.3-107.2-12.4c-9-1-18-2.1-26.9-3.1c-8.5-1-17-1.8-25.4-3.5
				c-3.8-0.8-7.6-1.7-11.3-2.9c-3.8-1.3-7.4-3-11.1-4.6c-6.5-2.8-13.6-3.7-20.2-6.3c-3.4-1.4-6.4-3.3-8.9-6
				C503.7,498.8,502.6,499.8,503.3,500.5L503.3,500.5z"/>
		</g>
	</g>
	<g>
		<g>
			<path class="st1" d="M688,536.4c10.8-4.7,18.2-14,25.4-22.9c2.8-3.4,5.5-6.8,8.7-9.8c2.8-2.6,5.7-5,8.6-7.5
				c6.4-5.4,12.9-10.6,19.3-15.8c1.1-0.9,2.2-2,3.5-2.7c2.3-1.5,5.1-2.2,7.9-2.5c5.5-0.6,11,0,16.4-0.9c3.2-0.5,6.2-1.9,9.2-2.9
				c3-1.1,6-2.1,9-3.2c5.5-1.9,11.1-3.8,16.8-5.4c11-3.1,22.3-5.2,33.7-6c6.7-0.5,13.5-0.3,20.2-0.5c3.2-0.1,6.4-0.5,9.4-1.8
				c2.8-1.2,5.3-3,7.7-4.9c10.6-8.2,23.1-13,34.4-20.2c22-14.1,41.2-33.1,56.6-54.2c1.8-2.5,3.6-5,5.3-7.6c0.5-0.8-0.8-1.6-1.3-0.8
				c-14.5,21.9-33.2,41.6-54.7,56.8c-5.2,3.7-10.6,7.1-16.3,10.2c-5.9,3.2-12,6-17.7,9.5c-2.9,1.8-5.6,3.9-8.3,6
				c-2.6,2-5.3,3.8-8.5,4.6c-3.4,0.9-7,0.9-10.6,0.9c-3.4,0-6.9,0-10.3,0.2c-11.4,0.5-22.8,2-33.9,4.7c-11.6,2.9-22.9,6.9-34.1,11
				c-2.9,1-5.8,2.1-8.9,2.4c-2.8,0.3-5.5,0.3-8.3,0.3c-5.2,0.1-10.8,0.3-15.1,3.4c-2.4,1.8-4.6,3.8-7,5.6c-3.4,2.7-6.7,5.5-10,8.2
				c-3.4,2.8-6.8,5.6-10.1,8.5c-2.3,2-4.6,3.9-6.6,6.2c-7.7,8.6-14.2,18.8-23.8,25.6c-2.3,1.6-4.8,3-7.3,4.2
				C686.3,535.5,687.1,536.8,688,536.4L688,536.4z"/>
		</g>
	</g>
	<g>
		<g>
			<path class="st1" d="M914.7,224.5c-52.3-14-105.5-24.9-158.7-34.8c-13.2-2.5-26.4-5-39.7-7.2c-12.4-2.1-25.1-3.5-37.5-0.9
				c-12.1,2.6-23.2,8.2-34.5,12.8c-12.1,4.9-24.8,7.9-37.8,9c-26,2.1-52-2.6-77.5-7.7c-13.3-2.7-26.5-5.4-39.8-8.1
				c-12.6-2.6-25.4-5.2-37.4-10.1c-5.9-2.4-11.6-5.4-17.8-6.8c-5.9-1.3-12.1-1.3-18.1-0.9c-13.5,0.7-27.1,2.6-40.6,1.4
				c-12.5-1.1-24.1-5.6-35.8-9.9c-10-3.6-20.7-7.3-31.5-6.4c-4.5,0.4-8.9,1.6-13,3.7c-5,2.6-10.3,7.9-16.3,7.6
				c-6.6-0.4-8.3-7.8-9.4-13.1c-0.9-4.3-2.1-8.4-4-12.3c-8.6-17.3-26.3-29.1-42.6-38.4c-4.1-2.4-8.4-4.7-12.6-6.9
				c-0.9-0.4-1.6,0.8-0.8,1.3c17.6,9.2,36.2,19.6,48.7,35.5c3.2,4,5.9,8.5,7.7,13.3c1.6,4.4,2,9,3.5,13.4c1.1,3.3,2.9,6.5,6.3,7.9
				c4.3,1.8,8.8-0.1,12.5-2.3c5.3-3.1,9.9-6.5,16-7.7c5.8-1.2,11.7-0.7,17.5,0.5c11.4,2.4,22,7.2,33,10.8
				c12.1,3.9,24.2,5.1,36.9,4.6c13.4-0.6,27.6-3.6,40.9-1c6.3,1.2,12,4.1,17.9,6.6c6,2.5,12.1,4.4,18.4,6.1
				c12.8,3.4,25.9,5.7,38.9,8.3c25.3,5.2,50.7,11,76.6,12.3c12.6,0.6,25.3,0.1,37.7-2.3c12.1-2.4,23.2-7,34.5-11.9
				c12.4-5.3,24.8-9.5,38.4-9.3c13.8,0.2,27.5,3.4,41,5.8c53.3,9.7,106.5,20.1,159.1,33.4c6.5,1.6,13,3.3,19.5,5.1
				C915.2,226.2,915.6,224.8,914.7,224.5L914.7,224.5z"/>
		</g>
	</g>
	<g>
		<g>
			<path class="st1" d="M598.6,13.3c5.9,3.8,12.5,6.4,18.9,9.4c6.4,3,13.3,6,18.6,10.8c3.3,3,5.3,7,7.2,10.9c2.3,4.7,4.7,9.3,7,13.9
				c4.8,9.3,9.8,18.5,15,27.6s10.5,18.1,16,27.1c5.1,8.3,10,16.8,18.3,22.3c2,1.3,4,2.3,6.2,3.3c2.1,0.9,4.2,1.9,5.8,3.7
				c1.7,1.8,2.9,3.9,4.2,5.9c1.3,1.9,2.7,3.8,4.1,5.6c5.7,7.4,12.3,14,19.7,19.7c7.6,5.9,16.3,9.8,25,13.8c4.4,2,8.6,4.1,13.1,5.9
				c4.7,1.8,9.5,3.2,14.5,4.2c1.5,0.3,5.1,0.3,5.7,2.1c0.3,0.9,1.8,0.5,1.5-0.4c-0.6-1.6-2-2.2-3.6-2.5c-2.4-0.5-4.8-0.9-7.2-1.5
				c-5-1.3-9.8-2.9-14.5-5c-4.4-2-8.8-4.1-13.3-6.1c-4.3-2-8.6-4-12.7-6.4c-8.3-4.9-15.7-11.5-22.2-18.8c-3.2-3.6-6.2-7.4-8.9-11.4
				c-1.3-1.9-2.4-3.8-3.9-5.6s-3.3-2.9-5.3-3.9c-4.4-2-8.5-4.2-12.1-7.5c-3.7-3.5-6.6-7.7-9.3-12c-5.6-8.9-11-18-16.3-27.1
				c-5.3-9.1-10.4-18.4-15.3-27.7c-2.5-4.7-4.9-9.4-7.3-14.1c-2.2-4.4-4.1-9-6.9-13.1c-4-5.9-10.8-9.3-17-12.4
				c-6.8-3.4-13.8-6.2-20.5-9.8c-1.3-0.7-2.5-1.4-3.7-2.2C598.6,11.5,597.8,12.8,598.6,13.3L598.6,13.3z"/>
		</g>
	</g>
	<g>
		<g>
			<path class="st1" d="M524.7,510.1c-11,0-21.1,4.7-30.9,9.3c-5.1,2.4-10.3,4.9-15.6,6.8c-6,2.1-12.1,3-18.5,3.6
				c-6.3,0.6-12.4,1.4-18.4,3.4c-6,2-11.6,4.8-17.2,7.7c-5,2.6-10,5-14.4,8.6c-2.1,1.7-3.9,3.7-5.3,6c-1.5,2.3-2.6,4.9-4.4,7
				c-3.7,4.4-9.3,4.4-14.5,3.5c-5-0.9-10-2.4-15.1-2c-9.9,0.7-16,9.6-24.1,14.1c-5.6,3.2-11.8,2.7-18,2.1c-6.2-0.6-12-0.4-18.1,1
				c-6,1.3-11.8,3.2-17.7,4.3c-6.2,1.2-12.3,1.4-18.4-0.2c-5.8-1.5-11.3-4-17-5.9c-2.7-0.9-5.5-1.7-8.4-2.1c-2.9-0.4-6.3,0-8.9-1.7
				c-2.5-1.6-4.5-4.2-6.9-6c-2.1-1.6-4.3-3.1-6.7-4.3c-4.8-2.5-10-4-15.4-4.4c-2.7-0.2-5.3,0-8,0.4c-0.9,0.1-0.6,1.6,0.4,1.5
				c11.7-1.8,23.2,2.7,31.8,10.6c2,1.9,3.8,3.9,6.6,4.6c2.9,0.7,5.9,0.5,8.8,1.1c5.7,1.2,11.1,3.5,16.5,5.5c5.6,2,11.3,3.5,17.2,3.3
				c5.9-0.2,11.7-1.7,17.4-3.2c6-1.6,12-3.3,18.2-3.5c6.5-0.3,12.9,1.5,19.3,0.7c10.2-1.2,16-10.2,24.6-14.6
				c4.9-2.5,10-2.2,15.2-1.2c4.7,0.9,9.6,2.3,14.4,1.6c5.1-0.8,8.1-4.3,10.6-8.5c1.5-2.5,2.9-4.9,5-7c2-2,4.4-3.7,6.8-5.1
				c5.1-3.1,10.6-5.8,16-8.4c5.9-2.8,12-5.2,18.5-6.4c6.5-1.2,13-1.2,19.5-2.4c5.5-1,10.7-3,15.8-5.2c10.2-4.4,20-10.3,31-12.5
				c2.7-0.6,5.5-0.8,8.3-0.8C525.6,511.6,525.7,510.1,524.7,510.1L524.7,510.1z"/>
		</g>
	</g>
	<g>
		<g>
			<path class="st1" d="M202.9,561.5c-18.3,3.3-37,4.3-55,9.1c-14.9,3.9-29.7,10.9-40.3,22.4c-2.8,3-5.3,6.4-7.4,10
				c-1.1,1.8-1.8,3.8-2.9,5.7c-1,1.7-2.5,3.8-4.7,3.2c-0.6-0.2-1,0.4-0.9,0.9c0.4,2.8,0.7,5.7-0.2,8.4c-1,2.8-3.5,4.3-5.8,5.9
				c-4.3,2.9-7,7-10.1,11c-3.5,4.6-7.9,8-13,10.6c-4.8,2.5-9.8,4.5-14.7,6.9c-5.8,2.8-11.5,5.7-17.5,8.2c-0.9,0.4-0.5,1.8,0.4,1.5
				c5.4-2.3,10.6-4.9,15.9-7.4s10.7-4.8,15.9-7.4c5.2-2.6,9.9-5.9,13.5-10.5c1.7-2.2,3.3-4.5,5.1-6.7c1.8-2.2,3.9-4,6.3-5.6
				c2.4-1.6,4.6-3.3,5.5-6.1c1-3,0.6-6.2,0.2-9.2c-0.3,0.3-0.6,0.6-0.9,0.9c3.3,1,5.7-2.3,7-4.9c1.8-3.4,3.5-6.8,5.8-9.9
				c4.7-6.3,10.8-11.5,17.5-15.6c14.9-9.2,32.1-12.8,49.2-15.3c10.5-1.5,21.1-2.7,31.6-4.6C204.3,562.7,203.9,561.3,202.9,561.5
				L202.9,561.5z"/>
		</g>
	</g>
	<g>
		<g>
			<path class="st1" d="M505.8,501.9c-10.1-5.3-19.9,3.2-29.8,4.3c-4,0.5-8.9,0.2-12.1-2.6c-1.9-1.8-2.4-4-2.8-6.4
				c-0.5-2.5-1.6-4.4-3.6-6c-4.4-3.7-9.4-6.7-13.9-10.2c-5.1-3.9-10.1-7.9-14.9-12.1c-9.3-8-18-16.5-26.4-25.5
				c-7-7.5-14.7-15.6-25.3-17.2c-11.3-1.7-23.5,3.6-34.2-1.7c-8.8-4.4-13.9-13.4-20.8-19.9c-6.6-6.3-15-8.9-23-12.9
				c-3.7-1.9-7.5-4.1-10-7.4c-3.5-4.6-3.2-10.2-3.5-15.7c-0.3-4.7-1.7-9.1-5.4-12.2c-3.3-2.8-7.6-4.2-11.8-4.7
				c-5.4-0.5-10.8,0.8-15.9,2.4c-5.9,1.9-11.8,4-17.9,5.1c-12.6,2.3-25.7,1.2-38.1-1.9c-6.1-1.5-11.9-3.7-17.8-5.6
				c-5.6-1.8-11.3-2.3-17.2-1.5c-5.9,0.8-11.6,2.9-17.2,5.1c-2.7,1.1-5.4,2.3-8.1,3.5c-2.8,1.2-6.6,3.8-9.8,3
				c-2.8-0.6-4.9-3.4-6.8-5.3c-2.1-2.1-4.1-4.4-5.8-6.8c-3.3-4.6-5.8-10.3-4.4-16.1c1.3-5.4,5.5-9.5,8.7-13.9c3.3-4.6,6-9.7,7.9-15
				c1.9-5.2,3-10.8,3.4-16.3c0.4-6.2-0.5-12.4-0.7-18.6c-0.1-3.2,0-6.4,0.8-9.5c0.7-2.8,2-5.4,3.4-7.9c2.4-4.4,5.4-8.7,6.1-13.8
				c0.7-5.6-2.6-10.1-3.5-15.4c-1.1-6.6,0.9-13.3,3.1-19.5c4.4-12.1,9.5-23.9,11.2-36.7c0.8-5.8,0.8-11.5,0-17.3
				c-0.1-0.9-1.6-0.6-1.4,0.4c2,13.3-1.4,26.4-5.8,38.9c-3.9,11-10.8,23.3-8.3,35.4c0.6,2.9,2,5.6,2.9,8.5c0.8,2.8,0.7,5.7-0.2,8.5
				c-1.6,5.2-5.1,9.5-7.3,14.4c-4.9,11.1-0.6,23.4-1.8,35c-0.7,6.1-2.3,12.1-4.8,17.8c-2.4,5.5-5.8,10.2-9.5,14.9
				c-3.1,4-5.8,8.3-5.9,13.4c-0.1,5,2.2,9.7,5,13.7c1.6,2.2,3.3,4.2,5.1,6.1c1.8,1.9,3.6,3.9,5.7,5.4c4.7,3.3,10.1-0.3,14.6-2.3
				c11.5-5.1,23.9-10.5,36.7-7.5c6.1,1.4,11.8,4,17.9,5.6c5.9,1.6,11.9,2.9,18.1,3.5c12.4,1.3,24.6,0,36.5-3.9
				c10-3.3,22.3-7.6,31.7-0.3c5,3.9,5.3,9.6,5.5,15.5c0.2,4.6,0.9,9,3.9,12.8c5.3,6.6,14.1,9.2,21.5,12.7c4.3,2,8.2,4.5,11.6,7.8
				c3.5,3.4,6.5,7.3,9.8,10.9c3.1,3.4,6.5,6.7,10.6,8.8c4.6,2.4,9.8,3,14.9,2.8c5.9-0.2,11.8-1.3,17.7-1c5.9,0.4,11.2,2.7,15.9,6.3
				c4.4,3.3,8.1,7.4,11.9,11.4c4.2,4.5,8.5,8.9,13,13.2c8.8,8.4,18,16.3,27.7,23.7c2.5,1.9,5,3.7,7.5,5.5c2.4,1.7,5.2,3.3,7.3,5.4
				c2.4,2.4,2,5.3,3.1,8.2c0.6,1.6,1.7,3,3,4c7.1,5.4,16.7,1.8,24.1-0.9c5.6-2,11.9-4,17.5-1.1C505.9,503.6,506.6,502.3,505.8,501.9
				L505.8,501.9z"/>
		</g>
	</g>
	<g>
		<g>
			<path class="st1" d="M67.2,255.8c20.7-8.7,42.5-14.6,64.8-17.3c11.2-1.4,22.4-1.4,33.6-2c5.1-0.3,10.2-0.8,15.3-2.1
				c5.4-1.3,10.7-3.3,16.2-4.4c5.4-1.1,10.6-0.8,16.1-0.4c4.5,0.4,9.3,0.6,13.6-1.3c4-1.8,6.6-5.3,9.5-8.4c3-3.3,6.4-6.1,10.1-8.6
				c14-9.4,31.6-14.4,42.5-28c3.2-4,5.6-8.5,8.5-12.6c3.3-4.7,7.4-8.6,11.7-12.2c9-7.4,18.1-14.6,27.2-21.9
				c4.6-3.7,9.2-7.4,13.8-11.1c4.7-3.8,9-6.8,15.1-7.4c4.9-0.5,9-1.1,13.1-4.2c3.6-2.7,6.8-5.3,11.2-6.5c14-3.6,33.5,4.6,43.5-9.2
				c2.8-3.8,4.4-8.5,7.7-12c3.8-3.9,9.2-5.9,14.1-8.1c10.2-4.7,21-9.1,32.4-9c3.9,0,8.5,1,11.2-2.6c2.4-3.1,2.3-7.6,3.9-11.1
				c3.4-7.3,10.8-11.3,17.8-14.4c7.5-3.3,15.2-6,22.5-9.9c8.3-4.4,16.3-9.3,24-14.8c3.3-2.4,6.5-4.8,9.6-7.5
				c0.7-0.6-0.3-1.7-1.1-1.1c-6.9,6.1-14.7,11.3-22.5,16c-7.5,4.5-15.2,8.6-23.3,11.9c-7.1,2.9-14.6,5.5-20.8,10.2
				c-2.6,2-5,4.5-6.7,7.4c-2,3.5-2,7.7-3.8,11.2c-1.6,3-4.5,3.3-7.6,3.2c-2.7-0.1-5.4-0.2-8.2,0.1c-5.1,0.5-10.1,1.8-15,3.5
				c-4.9,1.7-9.7,3.8-14.4,6c-4.3,2-9,3.9-12.5,7.2c-3.2,3.1-4.9,7.2-7.2,10.9c-2.4,3.9-5.7,6.8-10.1,8.2c-7.7,2.4-16.2,1-24.2,1.1
				c-3.8,0.1-7.6,0.4-11.2,1.6c-4.2,1.4-7.2,4.1-10.7,6.6c-4.6,3.3-9.6,2.8-14.9,3.9c-4.6,0.9-8.3,3.7-11.9,6.6
				c-9.2,7.3-18.4,14.7-27.5,22.1c-8.5,6.8-18.1,13.2-24.8,21.8c-3.1,4-5.5,8.5-8.5,12.7c-2.8,3.9-6.2,7.3-10,10.2
				c-6.9,5.2-14.7,8.9-22.2,12.9c-7.4,3.9-14.7,8.1-20.6,14.1c-3.4,3.5-6.1,7.9-10.8,9.7c-4.9,1.9-10.3,1.1-15.4,0.7
				c-4.9-0.4-9.6-0.2-14.4,0.8c-5.5,1.2-10.8,3.1-16.2,4.4c-11.1,2.6-22.6,1.8-33.9,2.5c-21.7,1.4-43.3,5.7-63.8,12.8
				c-5.1,1.8-10,3.7-15,5.8C65.9,254.8,66.3,256.2,67.2,255.8L67.2,255.8z"/>
		</g>
	</g>
	<g>
		<g>
			<path class="st1" d="M268.7,199.6c3.9,11.1,6,22.7,6.1,34.5c0,6.1-1,12.1-0.8,18.2c0.2,5.5,2.1,10.7,2.7,16.1
				c1.4,12.1-1.9,24.1-4.9,35.7c-3,11.8-5.9,23.6-8.9,35.5c-1.3,5.3-2,12.1-5,16.8c-2.8,4.4-8.4,5.9-12.7,8.3
				c-7.7,4.2-14.5,10.3-19.1,17.8c-4.7,7.7-6.9,16.7-6,25.7c0.4,4.2,1.5,8.4,3.3,12.3c1,2.1,2.2,4,3.5,5.9c1.7,2.3,3.7,4.6,3.7,7.6
				c0.2,9.7-13.5,13.8-18.9,20.1c-2.3,2.6-4.2,6-3.7,9.6c0.6,4.5,4.8,5.8,6.5,9.5c1.4,3.2-0.1,6.4-1,9.5c-0.7,2.4-1,4.9-1,7.4
				c0,5.2,1.3,10.4,2.3,15.4c1.2,5.8,1.9,11.6,1.3,17.5c-0.6,5.9-2.2,11.7-4.1,17.4c-3.8,11.3-8.4,22.4-12.7,33.5
				c-4.3,11.2-8,22.8-13,33.7c-1.1,2.3-2.3,4.6-4,6.6c-1.7,2-4,3.5-6,5.2c-3.1,2.6-5.1,5.8-5.7,9.8c-0.6,3.6,0,7.4,1.7,10.6
				c0.4,0.7,0.9,1.4,1.4,2.1c0.7,1.2,0.6,1.4,0.2,2.8c-0.8,3-1.9,5.9-2.8,8.9c-7.3,22.9-14.4,45.8-22.1,68.6
				c-3.6,10.7-7.7,21.4-13,31.4c-2.4,4.6-5,9.7-8.8,13.4c-1.4,1.5-4.1,4-6.4,3.6c-1.5-0.2-2.6-1.6-3.7-2.5c-2.2-1.7-4.3-2.5-7-2
				c-0.2,0-0.5,0.3-0.5,0.5c-1.6,8.7-5.4,16.7-11.3,23.3c-0.6,0.7,0.4,1.8,1.1,1.1c3.6-4,6.5-8.6,8.6-13.6c1.2-2.8,1.7-5.7,2.7-8.5
				c0.5-1.5,1-1.8,2.7-1.3c1.2,0.3,2.2,1.1,3.1,1.9c2,1.6,3.7,3.2,6.4,2.2c4.6-1.6,7.7-6.2,10.2-10.1c13.8-22.2,20.4-48.4,28.3-73.1
				c4.9-15.2,9.8-30.5,14.7-45.7c0.1-0.3,0-0.5-0.2-0.7c-5.3-5.8-5.2-15.2,0.5-20.7c2.6-2.5,5.8-4.3,8.1-7.3
				c2.2-2.8,3.6-6.2,4.9-9.5c6.7-17,13.1-34.2,19.7-51.3c3-7.9,6.2-15.9,7.9-24.2c1.7-8.1,1.3-15.9-0.4-24
				c-0.9-4.1-1.9-8.2-2.2-12.4c-0.2-2.4-0.1-4.7,0.3-7.1c0.4-2.4,1.4-4.6,2-7c0.6-2.8,0.4-5.3-1.4-7.5c-2.3-2.9-5.8-4.8-5.4-9.1
				c0.6-8,9.9-11.9,15.3-16.2c4.1-3.2,8.4-8,7.2-13.6c-0.7-3.3-3.3-5.7-5-8.5c-2.1-3.3-3.6-6.9-4.5-10.7c-1.8-7.5-1.2-15.5,1.5-22.7
				c2.6-7,7.3-13.2,12.9-18.1c2.7-2.3,5.6-4.3,8.7-6c3.4-1.9,7.2-3.1,10.3-5.5c5.7-4.3,6.4-12.4,8.1-18.9c2.3-9.2,4.6-18.3,6.9-27.5
				c2.4-9.6,5.2-19.2,6.7-29c0.7-4.5,1.1-9,0.9-13.5c-0.2-4.9-1.5-9.4-2.4-14.2c-1-5.3-0.4-10.4,0-15.7c0.3-4.8,0.3-9.6,0-14.4
				c-0.7-9.6-2.7-19.1-5.9-28.2C269.9,198.3,268.4,198.7,268.7,199.6L268.7,199.6z"/>
		</g>
	</g>
	<g>
		<g>
			<path class="st1" d="M120.4,359.9c-2.6-0.2-3.3,3-2.6,5c1,2.9,5.3,4.5,3.3,8c-0.8,1.5-2.2,2.6-3.4,3.8c-1,1-1.9,2.2-2.7,3.5
				c-1.5,2.7-2.4,5.7-3.1,8.7c-1.3,6-1.8,13-6,17.9c-4.4,5.2-11.6,6.7-16.7,11c-9.6,8-8.4,23.8-19.3,30.5c-3.1,1.9-6.5,3.1-9.2,5.5
				c-2.3,2.1-3.8,4.9-4.8,7.9c-2.2,6.4-2.7,13.2-6.7,18.9c-8.8,12.4-26.1,14.7-40.2,14c-2.1-0.1-4.1-0.3-6.2-0.4c-1-0.1-1,1.4,0,1.5
				c14.4,1.2,30.6,0.8,42.4-8.7c2.5-2,4.7-4.5,6.4-7.3c1.7-2.9,2.7-6,3.5-9.2c0.8-3.2,1.4-6.4,2.7-9.5c1.3-3.4,3.5-6.1,6.7-7.9
				c3-1.8,6.4-3,9-5.5c2.1-1.9,3.8-4.4,5.1-6.9c2.8-5.5,4.3-11.5,7.5-16.8c1.7-2.8,3.9-5,6.7-6.7c2.9-1.8,6-3.2,8.9-4.9
				c2.7-1.6,5.2-3.7,6.9-6.4c1.6-2.6,2.5-5.5,3.2-8.4c1.4-6,1.8-12.9,5.7-18.1c1.8-2.4,4.9-4.1,5.6-7.2c0.3-1.4,0-2.8-0.9-4
				c-0.9-1.2-2.3-2.2-2.9-3.6c-0.4-1-0.4-3.2,1.1-3.1C121.4,361.5,121.4,360,120.4,359.9L120.4,359.9z"/>
		</g>
	</g>
	<g>
		<g>
			<path class="st1" d="M8.6,421.8c5,21.1,19.3,38.3,34,53.6c3.7,3.9,7.4,7.7,11.2,11.4c3.8,3.6,7.8,7.1,12.3,9.9
				c4.2,2.6,9,4.4,14,4.6c2.5,0.1,5.9-1,7.7,1.3c1.5,1.8,1.8,4.5,2.3,6.7c5.1,19.7,17.8,37,34.8,48c7.4,4.8,16.3,9.2,21.3,16.8
				c1.2,1.8,2.1,3.7,2.6,5.8c0.7,2.9,0.5,6,0.1,8.9c-0.7,5.3-1.2,10.5-1.3,15.8c-0.1,21.2,5.1,42.8,14.8,61.6
				c1.2,2.2,2.4,4.4,3.7,6.6c0.5,0.8,1.8,0.1,1.3-0.8c-11-18.2-17.1-39.8-18.2-61c-0.3-5.3-0.2-10.6,0.3-15.8
				c0.5-5.4,1.9-10.9,0.4-16.3c-2.4-8.5-10.4-13.9-17.5-18.4c-4-2.6-8.2-5-12-7.9c-4.1-3.1-7.8-6.6-11.3-10.4
				c-6.9-7.7-12.3-16.7-15.7-26.4c-0.8-2.4-1.6-4.8-2.2-7.3c-0.6-2.2-0.9-4.6-2.2-6.5c-1.4-2-3.4-2.5-5.7-2.3
				c-2.6,0.2-5.2,0.1-7.8-0.5c-10.4-2.5-18.4-10.8-25.6-18.1c-15-15.3-30.6-31.6-37.9-52.2c-0.9-2.4-1.6-4.9-2.2-7.4
				C9.9,420.5,8.4,420.9,8.6,421.8L8.6,421.8z"/>
		</g>
	</g>
	<g>
		<g>
			<path class="st1" d="M294.3,392.3c-1.4,13.8-2.3,27.7-2.9,41.6c-0.3,6.9-0.8,13.8-0.9,20.7c0,2.7,0.3,5.3,2.1,7.4
				c1.5,1.8,3.7,3,5.7,4.1c2.2,1.2,4.3,2.5,6,4.5c1.6,1.9,2.8,4.3,3.6,6.6c1.7,5.1,2,10.5,2.3,15.9c0.9,13.9,1.6,27.9,2.2,41.8
				c0.6,15.6,1.1,31.2,1.4,46.8c0,1,1.5,1,1.5,0c-0.5-27.9-1.6-55.8-3.3-83.6c-0.3-5.7-0.5-11.5-1.6-17.1c-0.9-4.7-2.7-9.4-6.2-12.8
				c-1.8-1.7-3.9-2.8-6-4c-2.1-1.2-4.4-2.5-5.4-4.9c-1.4-3-0.6-6.9-0.5-10.1c0.1-3.5,0.3-6.9,0.5-10.4c0.7-15.5,1.6-31.1,3.1-46.5
				C295.9,391.4,294.4,391.4,294.3,392.3L294.3,392.3z"/>
		</g>
	</g>
	<g>
		<g>
			<path class="st1" d="M313.2,581.1c-2.6,4.4-1.4,9.2,0.7,13.6c2.5,5.1,6.1,9.9,7.3,15.6c1.1,5.5-0.7,11.3,0.7,16.7
				c0.6,2.4,2,4.3,4,5.7c1.5,1.1,3.3,2.2,2.5,4.3c-0.6,1.9-2.4,3.2-4,4.3c-11.3,8.1-23.8,15-32.7,25.9c-4,4.9-7.3,10.5-9,16.7
				c-0.8,3-1.3,6.1-1.3,9.1c0,2.9,0.4,6.1,2.3,8.4c2,2.4,5.1,3.1,7.8,4.4c2.7,1.3,5,3.3,6.8,5.7c3.4,4.7,4.9,10.5,6,16
				c3.1,15.5,5,31.3,6.5,47c1.4,15.7,2.4,31.6-1.7,47c-1.9,7.3-4.7,14.4-7.9,21.3c-2.9,6.3-6,12.7-9.6,18.7
				c-3.3,5.7-7.3,11.1-12.7,14.9c-5.6,4-12.5,5.5-18.4,9c-10.5,6.1-14.8,17.9-17.3,29.2c-0.6,2.9-1.1,5.8-1.6,8.7
				c-0.2,0.9,1.3,1.3,1.4,0.4c1.9-11.5,4.3-24.5,13-33.1c5-4.9,11.7-6.8,18-9.7c5.7-2.6,10.3-6.5,14.1-11.5
				c4.1-5.3,7.1-11.2,10.1-17.1c3.3-6.4,6.3-13,8.9-19.7c2.6-6.9,4.6-14.1,5.6-21.5c1-7.6,1-15.4,0.6-23.1
				c-0.8-15.6-2.6-31.3-5.1-46.8c-1.1-6.8-2-13.8-4-20.5c-1.5-5.1-3.9-10.3-8-13.9c-2.1-1.8-4.5-2.8-7-3.8c-1.6-0.7-3.2-1.4-4.3-2.8
				c-1.3-1.6-1.8-3.7-1.9-5.7c-0.5-6.8,1.6-13.5,4.9-19.4c7.1-12.5,19.3-20.6,31-28.4c2.7-1.8,5.7-3.6,8.1-5.7
				c1.9-1.7,3.8-4.2,2.7-6.8c-1.1-2.5-4.2-3.2-5.6-5.6c-1.4-2.4-1.4-5.4-1.4-8.1c0.1-2.8,0.3-5.7,0.1-8.5c-0.2-2.6-1-5.1-2.1-7.5
				c-2.3-5.1-6-9.7-7.3-15.2c-0.6-2.6-0.4-5.2,1-7.5C315,581,313.7,580.3,313.2,581.1L313.2,581.1z"/>
		</g>
	</g>
	<g>
		<g>
			<path class="st1" d="M166.3,672.9c6,5.7,12.6,10.8,19.6,15.2c3.5,2.2,7.2,4.3,10.9,6.1c3.4,1.7,7,3.5,10.8,3.4
				c3.1-0.1,5.8-1.7,7.4-4.3c1.6-2.6,2.1-5.7,2.9-8.7c0.8-3,2-5.6,4.3-7.8c2-2,4.6-3.4,7.1-4.7c5.1-2.5,10.7-4.4,15-8.2
				c2.3-2.1,3.7-4.7,4.9-7.6c0.7-1.8,1.5-3.6,2.8-5.1c1-1.1,2.3-2,3.6-2.7c5-2.7,11.3-3.9,13.2-10c0.6-1.9,1-3.7,2.5-5.1
				c1.2-1.1,2.7-1.6,4.2-2c3.3-0.8,6.6-0.9,9.9-1.9c15.4-4.8,22.3-21,26.3-35.3c0.6-2,1.1-4.1,1.6-6.1c0.2-0.9-1.2-1.3-1.5-0.4
				c-3.8,14.7-8.6,31.7-23.4,39c-3.2,1.5-6.5,2.1-10,2.7c-2.9,0.4-5.9,1-8.1,3c-2.6,2.3-2.3,6-4.4,8.6c-1.8,2.3-4.6,3.4-7.2,4.5
				c-2.5,1.1-5.2,2.2-7.2,4.2c-2.6,2.4-3.4,5.9-4.9,8.9c-2.7,5.2-8.1,7.8-13.2,10.1c-4.9,2.2-10.2,4.3-13.6,8.6
				c-1.8,2.3-2.8,5-3.5,7.8c-0.8,2.8-1.3,6-3.2,8.4c-2.5,3.2-6.6,3-10.1,1.8c-3.9-1.3-7.6-3.4-11.1-5.4c-7.1-4-13.8-8.7-20-13.9
				c-1.6-1.3-3.1-2.7-4.6-4.1C166.6,671.2,165.6,672.2,166.3,672.9L166.3,672.9z"/>
		</g>
	</g>
	<g>
		<g>
			<path class="st1" d="M472.2,504.6c-5,6.7-4.5,15.5-2.3,23.1c1.4,4.8,3.5,9.5,5.2,14.2c1.6,4.5,2.4,8.9,3.2,13.6
				c0.7,4.1,2,7.7,5.1,10.6c1.6,1.5,3.4,2.7,4.7,4.5c1.2,1.7,1.8,3.8,2,6c0.6,7-2.4,14.8,2.3,20.9c2,2.6,7,5.7,7,9.3
				c0,2.3-2.5,3.5-3.9,5c-1.3,1.5-2,3.2-2.5,5.1c-2.3,8.1-2.6,17.2-2.5,25.6c0.3,17.5,4.3,34.8,11.1,50.9
				c6.9,16.3,16.5,31.4,28.1,44.7c12.4,14.2,27.3,26.1,35.3,43.6c4.2,9.3,7.8,18.7,13.3,27.3c5,7.8,11.1,14.8,17.7,21.3
				c13.1,13.1,28.1,24.5,39.9,38.8c9.8,11.9,16,26.8,20.6,41.4c4.9,15.4,8.2,31.5,9.4,47.7c0.3,3.4,0.4,6.8,0.4,10.2
				c0,1,1.5,1,1.5,0c-0.1-15.1-2.5-30.2-6.1-44.9c-3.8-15.3-9-30.5-17-44.2c-8.5-14.6-21.3-25.8-33.7-37c-14.3-13-28.1-26.3-37-43.7
				c-4.5-8.8-7.3-18.3-12.6-26.7c-4.8-7.7-11.1-14.4-17.4-20.8c-6.3-6.4-12.6-12.8-18.2-19.8c-5.8-7.2-10.9-14.9-15.4-23
				c-8.7-15.6-14.8-32.8-17.3-50.5c-1.2-8.7-1.5-17.6-0.9-26.4c0.4-4.6,0.8-9.3,2-13.7c0.6-2.4,1.6-4.4,3.5-6
				c1.3-1.1,2.5-2.2,2.9-3.9c0.6-2.9-1.8-5.4-3.6-7.3c-3-3.1-5.5-5.7-5.9-10.2c-0.6-6.9,2.4-14.9-2.3-20.9c-1.2-1.5-2.8-2.6-4.2-3.9
				c-1.9-1.7-3.3-3.7-4.1-6.2c-1.4-4.4-1.5-9.1-2.8-13.6c-2.7-9.2-7.9-17.8-8.1-27.6c-0.1-4.5,1-8.9,3.7-12.5
				C474.1,504.6,472.8,503.9,472.2,504.6L472.2,504.6z"/>
		</g>
	</g>
	<g>
		<g>
			<path class="st1" d="M120.4,821.4c13.3-7.2,26.6-14.3,40.1-21.3c13.4-6.9,26.7-13.9,40.3-20.4c6.8-3.2,13.8-6.2,21.1-8
				c6.4-1.6,13.4-1.6,18.9-5.8c2.8-2.2,5.2-4.9,8.2-6.8c3.1-1.9,6.5-3.1,10-4c7.5-1.9,15.1-3.1,22.5-5.1
				c13.8-3.6,26.5-9.9,38.5-17.4c11.9-7.4,23.4-15.6,34.5-24.2c5.5-4.3,10.8-9,15.2-14.5c3.6-4.6,6.5-9.8,9.5-14.9
				c3-5,6.1-10,10.3-14.1c4.8-4.7,10.8-7.3,17.5-8.2c6.8-0.9,13.7-0.3,20.5-0.4c6.6-0.1,12.9-1,19.2-3.2c12.2-4.3,22.9-12,34.8-17.2
				c3-1.3,6.1-2.5,9.3-3.3c0.9-0.3,0.5-1.7-0.4-1.5c-12.5,3.6-23.4,11-35,16.7c-5.9,2.9-12.1,5.3-18.6,6.3c-7,1.1-14.1,0.5-21.1,0.5
				c-6.5,0-13,0.6-18.9,3.3c-5.1,2.4-9.1,6.3-12.5,10.8c-3.5,4.7-6.3,9.8-9.3,14.8c-3.4,5.7-7.1,10.9-11.9,15.6
				c-5.1,5-10.9,9.3-16.8,13.6c-5.8,4.2-11.6,8.4-17.6,12.4c-11.8,8-24.3,15.5-37.8,20.4c-7.2,2.6-14.7,4.3-22.2,5.8
				c-6.8,1.4-14.1,2.5-20.1,6.2c-2.8,1.7-5.1,4.1-7.6,6.2c-2.9,2.5-6.2,3.8-9.9,4.6c-3.5,0.7-7,1.2-10.5,2.1
				c-3.6,0.9-7.1,2.2-10.6,3.5c-6.9,2.7-13.5,6.1-20.1,9.4c-6.8,3.5-13.7,6.9-20.5,10.4c-13.3,6.8-26.4,13.7-39.6,20.8
				c-3.4,1.8-6.7,3.6-10.1,5.4C118.8,820.5,119.6,821.8,120.4,821.4L120.4,821.4z"/>
		</g>
	</g>
	<g>
		<g>
			<path class="st1" d="M499.6,609.5c12.2,0.9,23.6-4.5,33.7-10.8c10.6-6.6,20.6-14.2,31.4-20.6c11-6.6,22.9-11.8,35.9-12
				c11.2-0.2,26.2,1.6,33.2-9.5c1.8-2.8,2.5-6.1,4.2-8.9c1.4-2.3,3.4-4.2,5.4-6c4.3-3.6,9.3-6.9,14.6-8.7c0.9-0.3,0.5-1.8-0.4-1.5
				c-4.5,1.5-8.8,4.1-12.6,6.9c-3.8,2.8-7.5,6.1-9.4,10.5c-1.3,2.9-2.3,6-4.4,8.5c-1.8,2.2-4.3,3.7-6.9,4.8
				c-6,2.5-12.5,2.4-18.9,2.3c-6.6-0.1-13,0.3-19.3,2c-5.9,1.7-11.6,4.2-17,7.1c-11,6-21.2,13.5-31.6,20.4
				c-11.3,7.5-23.9,14.8-38,13.8C498.7,608,498.7,609.5,499.6,609.5L499.6,609.5z"/>
		</g>
	</g>
	<g>
		<g>
			<path class="st1" d="M492.1,653.8c18-5.3,36.7-7.2,55.5-7.5c18-0.3,36.1,0.3,54.1,1.2c16.2,0.8,32.6,2.5,48.1,7.6
				c7.6,2.5,15,5.9,21.7,10.3c7.2,4.7,13.2,10.8,19.2,16.8c5.8,5.9,11.7,11.8,18.7,16.5c7.5,5,15.3,9,22.3,14.7
				c5.4,4.5,10.8,9.5,17.7,11.5c3.5,1,6.8,0.7,10.3,0.4c2.2-0.2,4.5-0.2,6.2,1.4c1.4,1.4,2,3.5,3,5.2c3.4,5.8,10.8,6.3,16.8,5.8
				c8.1-0.7,16-2.6,23.6-5.4c7.6-2.8,14.8-6.7,21.4-11.4c7-5,12.7-11.9,20.3-16c13.6-7.2,30.7-5.9,44.8-1
				c13.8,4.8,26.7,13.4,35.4,25.1c2,2.7,3.7,5.5,5.2,8.4c0.4,0.9,1.7,0.1,1.3-0.8c-6.3-12.4-17-22.1-29.1-28.7
				c-12.2-6.7-26.4-10.6-40.4-9.4c-8.2,0.7-16.4,3.1-23,8.1c-3.4,2.6-6.5,5.6-9.7,8.3c-3.3,2.8-6.9,5.4-10.7,7.8
				c-7.3,4.5-15.3,8-23.6,10.4c-4.2,1.2-8.5,2.1-12.9,2.6c-3.8,0.5-7.7,0.8-11.4-0.1c-4.2-1-6.4-3.5-8.2-7.2
				c-1.4-2.9-3.5-4.7-6.8-4.9c-4-0.2-7.7,1-11.7-0.1c-3.8-1-7.2-3.1-10.4-5.4c-3.2-2.4-6.2-5.1-9.3-7.6c-3.2-2.6-6.7-4.9-10.2-7
				c-3.9-2.3-7.8-4.5-11.5-7.1c-3.7-2.6-7.1-5.5-10.3-8.6c-6.2-6-11.9-12.4-18.5-18c-6-5.1-12.8-9.3-20-12.5
				c-14.5-6.5-30.4-9.2-46.2-10.5c-17.5-1.5-35.2-1.8-52.8-2c-18.5-0.3-37.1,0.3-55.3,4c-4.7,1-9.3,2.1-13.9,3.5
				C490.8,652.7,491.2,654.1,492.1,653.8L492.1,653.8z"/>
		</g>
	</g>
</g>
<rect x="567.7" y="356.5" class="st2" width="125.2" height="21.5"/>
<g class="st3">
	<path class="st4" d="M573.5,374c-1.4-0.8-2.5-1.8-3.3-3.2c-0.8-1.4-1.2-2.9-1.2-4.6s0.4-3.2,1.2-4.6c0.8-1.4,1.9-2.4,3.3-3.2
		s3-1.2,4.7-1.2c1.3,0,2.5,0.2,3.6,0.7c1.1,0.4,2,1.1,2.8,1.9l-1.2,1.2c-1.4-1.4-3.1-2.1-5.2-2.1c-1.4,0-2.6,0.3-3.8,1
		c-1.1,0.6-2,1.5-2.7,2.6c-0.6,1.1-1,2.3-1,3.7c0,1.4,0.3,2.6,1,3.7c0.6,1.1,1.5,2,2.7,2.6c1.1,0.6,2.4,1,3.8,1
		c2.1,0,3.8-0.7,5.2-2.1l1.2,1.2c-0.8,0.8-1.7,1.5-2.8,1.9c-1.1,0.4-2.3,0.7-3.6,0.7C576.4,375.2,574.9,374.8,573.5,374z"/>
	<path class="st4" d="M596.5,363.1c0.9,0.9,1.4,2.1,1.4,3.8v8.2h-1.7v-2c-0.4,0.7-1,1.2-1.8,1.6c-0.8,0.4-1.7,0.6-2.8,0.6
		c-1.5,0-2.6-0.3-3.5-1s-1.3-1.6-1.3-2.8c0-1.1,0.4-2,1.2-2.7c0.8-0.7,2.1-1,3.9-1h4.2v-0.8c0-1.1-0.3-2-1-2.6s-1.6-0.9-2.8-0.9
		c-0.8,0-1.6,0.1-2.4,0.4c-0.8,0.3-1.4,0.7-2,1.1l-0.8-1.3c0.7-0.6,1.5-1,2.4-1.3s1.9-0.5,3-0.5
		C594.3,361.8,595.6,362.2,596.5,363.1z M594.5,373.1c0.7-0.5,1.3-1.1,1.6-2V369H592c-2.3,0-3.4,0.8-3.4,2.3c0,0.8,0.3,1.4,0.9,1.8
		c0.6,0.4,1.4,0.7,2.5,0.7C592.9,373.8,593.8,373.5,594.5,373.1z"/>
	<path class="st4" d="M602.7,356.5h1.8V375h-1.8V356.5z"/>
	<path class="st4" d="M609.4,356.5h1.8V375h-1.8V356.5z"/>
	<path class="st4" d="M624.7,363.1c0.9,0.9,1.4,2.1,1.4,3.8v8.2h-1.7v-2c-0.4,0.7-1,1.2-1.8,1.6c-0.8,0.4-1.7,0.6-2.8,0.6
		c-1.5,0-2.6-0.3-3.5-1c-0.9-0.7-1.3-1.6-1.3-2.8c0-1.1,0.4-2,1.2-2.7c0.8-0.7,2.1-1,3.9-1h4.2v-0.8c0-1.1-0.3-2-0.9-2.6
		c-0.6-0.6-1.6-0.9-2.8-0.9c-0.8,0-1.6,0.1-2.4,0.4c-0.8,0.3-1.4,0.7-2,1.1l-0.8-1.3c0.7-0.6,1.5-1,2.4-1.3s1.9-0.5,3-0.5
		C622.5,361.8,623.8,362.2,624.7,363.1z M622.7,373.1c0.7-0.5,1.3-1.1,1.6-2V369h-4.1c-2.3,0-3.4,0.8-3.4,2.3c0,0.8,0.3,1.4,0.9,1.8
		c0.6,0.4,1.4,0.7,2.5,0.7C621.1,373.8,622,373.5,622.7,373.1z"/>
	<path class="st4" d="M632.9,374.3c-1-0.6-1.8-1.4-2.4-2.4c-0.6-1-0.9-2.2-0.9-3.5c0-1.3,0.3-2.4,0.9-3.5c0.6-1,1.4-1.8,2.4-2.4
		c1-0.6,2.2-0.8,3.5-0.8c1.1,0,2.1,0.2,3,0.7c0.9,0.4,1.6,1.1,2.1,1.9l-1.3,0.9c-0.4-0.7-1-1.1-1.7-1.5c-0.7-0.3-1.4-0.5-2.2-0.5
		c-0.9,0-1.8,0.2-2.6,0.6c-0.8,0.4-1.3,1-1.8,1.8s-0.6,1.7-0.6,2.7c0,1,0.2,1.9,0.6,2.7c0.4,0.8,1,1.4,1.8,1.8
		c0.8,0.4,1.6,0.6,2.6,0.6c0.8,0,1.5-0.2,2.2-0.5c0.7-0.3,1.2-0.8,1.7-1.5l1.3,0.9c-0.5,0.8-1.2,1.5-2.1,1.9s-1.9,0.7-3,0.7
		C635.1,375.2,633.9,374.9,632.9,374.3z"/>
</g>
<rect x="266.8" y="166.7" class="st2" width="125.2" height="21.5"/>
<g class="st3">
	<path class="st4" d="M287.8,167.7v17.5h-1.8v-14l-6.9,11.8h-0.9l-6.9-11.7v13.9h-1.8v-17.5h1.5l7.6,13l7.5-13H287.8z"/>
	<path class="st4" d="M295.1,184.5c-1-0.6-1.8-1.4-2.4-2.4s-0.9-2.2-0.9-3.5c0-1.3,0.3-2.4,0.9-3.5c0.6-1,1.4-1.8,2.4-2.4
		c1-0.6,2.2-0.8,3.4-0.8c1.3,0,2.4,0.3,3.4,0.8c1,0.6,1.8,1.4,2.4,2.4c0.6,1,0.9,2.2,0.9,3.5c0,1.3-0.3,2.4-0.9,3.5
		c-0.6,1-1.4,1.8-2.4,2.4s-2.2,0.9-3.4,0.9C297.3,185.3,296.1,185,295.1,184.5z M301,183.1c0.7-0.4,1.3-1,1.7-1.8
		c0.4-0.8,0.6-1.7,0.6-2.7s-0.2-1.9-0.6-2.7c-0.4-0.8-1-1.4-1.7-1.8s-1.6-0.6-2.5-0.6c-0.9,0-1.8,0.2-2.5,0.6s-1.3,1-1.8,1.8
		c-0.4,0.8-0.6,1.7-0.6,2.7s0.2,1.9,0.6,2.7c0.4,0.8,1,1.4,1.8,1.8c0.7,0.4,1.6,0.6,2.5,0.6C299.5,183.8,300.3,183.5,301,183.1z"/>
	<path class="st4" d="M312.4,172.6c0.8-0.5,1.8-0.7,3.1-0.7v1.7l-0.4,0c-1.4,0-2.5,0.4-3.3,1.3c-0.8,0.9-1.2,2-1.2,3.6v6.7h-1.8
		v-13.2h1.7v2.6C310.9,173.7,311.6,173.1,312.4,172.6z"/>
	<path class="st4" d="M318.7,166.7h1.8v18.5h-1.8V166.7z"/>
	<path class="st4" d="M333.9,173.2c0.9,0.9,1.4,2.1,1.4,3.8v8.2h-1.7v-2c-0.4,0.7-1,1.2-1.8,1.6c-0.8,0.4-1.7,0.6-2.8,0.6
		c-1.5,0-2.6-0.3-3.5-1s-1.3-1.6-1.3-2.8c0-1.1,0.4-2,1.2-2.7c0.8-0.7,2.1-1,3.9-1h4.2V177c0-1.1-0.3-2-1-2.6s-1.6-0.9-2.8-0.9
		c-0.8,0-1.6,0.1-2.4,0.4c-0.8,0.3-1.4,0.7-2,1.1l-0.8-1.3c0.7-0.6,1.5-1,2.4-1.3c0.9-0.3,1.9-0.5,3-0.5
		C331.7,172,333,172.4,333.9,173.2z M331.9,183.2c0.7-0.5,1.3-1.1,1.6-2v-2.1h-4.1c-2.3,0-3.4,0.8-3.4,2.3c0,0.8,0.3,1.4,0.9,1.8
		c0.6,0.4,1.4,0.7,2.5,0.7C330.4,183.9,331.2,183.7,331.9,183.2z"/>
	<path class="st4" d="M340.1,168.8c-0.3-0.3-0.4-0.5-0.4-0.9c0-0.3,0.1-0.6,0.4-0.9s0.6-0.4,0.9-0.4c0.4,0,0.7,0.1,0.9,0.4
		c0.3,0.2,0.4,0.5,0.4,0.9c0,0.4-0.1,0.7-0.4,0.9s-0.6,0.4-0.9,0.4C340.7,169.2,340.4,169.1,340.1,168.8z M340.1,172.1h1.8v13.2
		h-1.8V172.1z"/>
	<path class="st4" d="M355.2,185.2l-4.2-5.5l-4.2,5.5h-2l5.2-6.8l-4.9-6.4h2l3.9,5.2l4-5.2h2l-5,6.4l5.3,6.8H355.2z"/>
</g>
<rect x="383.9" y="38.9" class="st2" width="170.6" height="38"/>
<g class="st3">
	<path class="st4" d="M386.8,39.9h1.9v15.9h9.8v1.6h-11.6V39.9z"/>
	<path class="st4" d="M402.9,56.7c-1-0.6-1.8-1.4-2.4-2.4s-0.9-2.2-0.9-3.5c0-1.3,0.3-2.4,0.9-3.5c0.6-1,1.4-1.8,2.4-2.4
		c1-0.6,2.2-0.8,3.4-0.8c1.3,0,2.4,0.3,3.4,0.8c1,0.6,1.8,1.4,2.4,2.4c0.6,1,0.9,2.2,0.9,3.5c0,1.3-0.3,2.4-0.9,3.5
		c-0.6,1-1.4,1.8-2.4,2.4s-2.2,0.9-3.4,0.9C405,57.6,403.9,57.3,402.9,56.7z M408.8,55.3c0.7-0.4,1.3-1,1.7-1.8
		c0.4-0.8,0.6-1.7,0.6-2.7s-0.2-1.9-0.6-2.7c-0.4-0.8-1-1.4-1.7-1.8s-1.6-0.6-2.5-0.6c-0.9,0-1.8,0.2-2.5,0.6s-1.3,1-1.8,1.8
		c-0.4,0.8-0.6,1.7-0.6,2.7s0.2,1.9,0.6,2.7c0.4,0.8,1,1.4,1.8,1.8c0.7,0.4,1.6,0.6,2.5,0.6C407.2,56,408.1,55.8,408.8,55.3z"/>
	<path class="st4" d="M418.6,56.7c-1-0.6-1.8-1.4-2.4-2.4c-0.6-1-0.9-2.2-0.9-3.5c0-1.3,0.3-2.4,0.9-3.5c0.6-1,1.4-1.8,2.4-2.4
		c1-0.6,2.2-0.8,3.5-0.8c1.1,0,2.1,0.2,3,0.7c0.9,0.4,1.6,1.1,2.1,1.9l-1.3,0.9c-0.4-0.7-1-1.1-1.6-1.5c-0.7-0.3-1.4-0.5-2.2-0.5
		c-0.9,0-1.8,0.2-2.6,0.6s-1.3,1-1.8,1.8c-0.4,0.8-0.6,1.7-0.6,2.7c0,1,0.2,1.9,0.6,2.7c0.4,0.8,1,1.4,1.8,1.8
		c0.8,0.4,1.6,0.6,2.6,0.6c0.8,0,1.5-0.2,2.2-0.5c0.7-0.3,1.2-0.8,1.6-1.5l1.3,0.9c-0.5,0.8-1.2,1.5-2.1,1.9c-0.9,0.4-1.9,0.7-3,0.7
		C420.8,57.6,419.6,57.3,418.6,56.7z"/>
	<path class="st4" d="M442.5,44.3v18h-1.8V55c-0.6,0.8-1.3,1.5-2.1,1.9s-1.8,0.7-2.9,0.7c-1.3,0-2.4-0.3-3.4-0.8
		c-1-0.6-1.8-1.3-2.3-2.4c-0.6-1-0.9-2.2-0.9-3.5c0-1.3,0.3-2.5,0.9-3.5c0.6-1,1.4-1.8,2.4-2.4s2.1-0.8,3.4-0.8c1.1,0,2.1,0.2,3,0.7
		s1.6,1.1,2.1,2v-2.6H442.5z M438.3,55.3c0.7-0.4,1.3-1,1.8-1.8c0.4-0.8,0.6-1.7,0.6-2.7s-0.2-1.9-0.6-2.7c-0.4-0.8-1-1.4-1.8-1.8
		s-1.6-0.7-2.5-0.7c-0.9,0-1.8,0.2-2.5,0.7s-1.3,1-1.8,1.8c-0.4,0.8-0.6,1.7-0.6,2.7s0.2,1.9,0.6,2.7c0.4,0.8,1,1.4,1.8,1.8
		c0.7,0.4,1.6,0.6,2.5,0.6C436.7,56,437.6,55.8,438.3,55.3z"/>
	<path class="st4" d="M459.3,44.3v13.2h-1.7V55c-0.5,0.8-1.1,1.4-1.9,1.9c-0.8,0.4-1.8,0.7-2.8,0.7c-1.7,0-3.1-0.5-4.1-1.4
		c-1-1-1.5-2.4-1.5-4.2v-7.6h1.8v7.5c0,1.4,0.3,2.4,1,3.2c0.7,0.7,1.7,1.1,2.9,1.1c1.4,0,2.5-0.4,3.3-1.3c0.8-0.8,1.2-2,1.2-3.5
		v-6.9H459.3z"/>
	<path class="st4" d="M464.2,41c-0.3-0.3-0.4-0.5-0.4-0.9c0-0.3,0.1-0.6,0.4-0.9s0.6-0.4,0.9-0.4c0.4,0,0.7,0.1,0.9,0.4
		c0.3,0.2,0.4,0.5,0.4,0.9c0,0.4-0.1,0.7-0.4,0.9s-0.6,0.4-0.9,0.4C464.8,41.4,464.5,41.3,464.2,41z M464.2,44.3h1.8v13.2h-1.8V44.3
		z"/>
	<path class="st4" d="M474.5,44.9c0.8-0.5,1.8-0.7,3.1-0.7v1.7l-0.4,0c-1.4,0-2.5,0.4-3.3,1.3c-0.8,0.9-1.2,2-1.2,3.6v6.7H471V44.3
		h1.7v2.6C473.1,46,473.7,45.3,474.5,44.9z"/>
	<path class="st4" d="M492.1,51.4h-11c0.1,1.4,0.6,2.5,1.6,3.3c1,0.8,2.1,1.3,3.6,1.3c0.8,0,1.6-0.1,2.3-0.4
		c0.7-0.3,1.3-0.7,1.8-1.3l1,1.1c-0.6,0.7-1.3,1.2-2.2,1.6s-1.8,0.5-2.9,0.5c-1.3,0-2.5-0.3-3.6-0.9s-1.9-1.4-2.4-2.4
		s-0.9-2.2-0.9-3.5c0-1.3,0.3-2.4,0.8-3.5c0.6-1,1.3-1.8,2.3-2.4c1-0.6,2.1-0.8,3.3-0.8c1.2,0,2.3,0.3,3.3,0.8
		c1,0.6,1.7,1.4,2.3,2.4c0.5,1,0.8,2.2,0.8,3.5L492.1,51.4z M482.6,46.9c-0.9,0.8-1.3,1.9-1.5,3.2h9.3c-0.1-1.3-0.6-2.4-1.5-3.2
		c-0.9-0.8-1.9-1.2-3.2-1.2C484.5,45.7,483.4,46.1,482.6,46.9z"/>
	<path class="st4" d="M497.7,56.7c-1-0.6-1.8-1.4-2.4-2.4c-0.6-1-0.9-2.2-0.9-3.5c0-1.3,0.3-2.4,0.9-3.5c0.6-1,1.4-1.8,2.4-2.4
		c1-0.6,2.2-0.8,3.5-0.8c1.1,0,2.1,0.2,3,0.7c0.9,0.4,1.6,1.1,2.1,1.9l-1.3,0.9c-0.4-0.7-1-1.1-1.6-1.5c-0.7-0.3-1.4-0.5-2.2-0.5
		c-0.9,0-1.8,0.2-2.6,0.6s-1.3,1-1.8,1.8c-0.4,0.8-0.6,1.7-0.6,2.7c0,1,0.2,1.9,0.6,2.7c0.4,0.8,1,1.4,1.8,1.8
		c0.8,0.4,1.6,0.6,2.6,0.6c0.8,0,1.5-0.2,2.2-0.5c0.7-0.3,1.2-0.8,1.6-1.5l1.3,0.9c-0.5,0.8-1.2,1.5-2.1,1.9s-1.9,0.7-3,0.7
		C499.9,57.6,498.7,57.3,497.7,56.7z"/>
</g>
<rect x="651.8" y="105.9" class="st2" width="125.2" height="21.5"/>
<g class="st3">
	<path class="st4" d="M668.4,116.9c0.6,0.7,0.9,1.7,0.9,2.9c0,1.5-0.6,2.7-1.7,3.5c-1.1,0.8-2.7,1.2-4.9,1.2h-8v-17.5h7.5
		c2,0,3.5,0.4,4.5,1.2c1.1,0.8,1.6,1.9,1.6,3.3c0,1-0.2,1.8-0.7,2.5c-0.5,0.7-1.1,1.2-2,1.5C666.9,115.6,667.8,116.1,668.4,116.9z
		 M656.6,108.4v6.3h5.6c1.4,0,2.5-0.3,3.3-0.8c0.8-0.5,1.2-1.3,1.2-2.4s-0.4-1.8-1.2-2.4c-0.8-0.5-1.9-0.8-3.3-0.8H656.6z
		 M666.3,122.1c0.8-0.5,1.2-1.4,1.2-2.5c0-2.2-1.6-3.3-4.8-3.3h-6.2v6.6h6.2C664.3,122.9,665.5,122.6,666.3,122.1z"/>
	<path class="st4" d="M684.6,118.4h-11c0.1,1.4,0.6,2.5,1.6,3.3c1,0.8,2.2,1.3,3.6,1.3c0.8,0,1.6-0.1,2.3-0.4
		c0.7-0.3,1.3-0.7,1.8-1.3l1,1.1c-0.6,0.7-1.3,1.2-2.2,1.6s-1.8,0.5-2.9,0.5c-1.3,0-2.5-0.3-3.6-0.9c-1-0.6-1.9-1.4-2.4-2.4
		c-0.6-1-0.9-2.2-0.9-3.5c0-1.3,0.3-2.4,0.8-3.5c0.6-1,1.3-1.8,2.3-2.4c1-0.6,2.1-0.8,3.3-0.8s2.3,0.3,3.3,0.8
		c1,0.6,1.7,1.4,2.3,2.4c0.5,1,0.8,2.2,0.8,3.5L684.6,118.4z M675.1,113.9c-0.9,0.8-1.3,1.9-1.5,3.2h9.3c-0.1-1.3-0.6-2.4-1.5-3.2
		c-0.9-0.8-1.9-1.2-3.2-1.2C677,112.7,675.9,113.1,675.1,113.9z M680.1,106.1h2.4l-4,3.1h-1.8L680.1,106.1z"/>
	<path class="st4" d="M700.5,111.3v11.6c0,2.2-0.5,3.9-1.6,5c-1.1,1.1-2.7,1.6-4.9,1.6c-1.2,0-2.4-0.2-3.5-0.5s-2-0.9-2.7-1.5
		l0.9-1.4c0.6,0.6,1.4,1,2.3,1.3c0.9,0.3,1.9,0.5,2.9,0.5c1.7,0,2.9-0.4,3.7-1.2c0.8-0.8,1.2-2,1.2-3.6v-1.7
		c-0.5,0.8-1.3,1.5-2.2,1.9c-0.9,0.4-1.9,0.7-3,0.7c-1.2,0-2.4-0.3-3.4-0.8c-1-0.5-1.8-1.3-2.4-2.3c-0.6-1-0.9-2.1-0.9-3.3
		c0-1.2,0.3-2.3,0.9-3.3c0.6-1,1.4-1.7,2.4-2.3c1-0.5,2.1-0.8,3.4-0.8c1.1,0,2.1,0.2,3,0.7c0.9,0.5,1.6,1.1,2.2,2v-2.5H700.5z
		 M696.3,121.7c0.8-0.4,1.4-1,1.8-1.7c0.4-0.7,0.6-1.6,0.6-2.5c0-0.9-0.2-1.8-0.6-2.5c-0.4-0.7-1-1.3-1.8-1.7
		c-0.8-0.4-1.6-0.6-2.6-0.6c-0.9,0-1.8,0.2-2.6,0.6c-0.8,0.4-1.3,1-1.8,1.7c-0.4,0.7-0.6,1.6-0.6,2.5c0,0.9,0.2,1.8,0.6,2.5
		c0.4,0.7,1,1.3,1.8,1.7c0.8,0.4,1.6,0.6,2.6,0.6C694.7,122.3,695.5,122.1,696.3,121.7z"/>
	<path class="st4" d="M714,112.5c0.9,0.9,1.4,2.1,1.4,3.8v8.2h-1.7v-2c-0.4,0.7-1,1.2-1.8,1.6c-0.8,0.4-1.7,0.6-2.8,0.6
		c-1.5,0-2.6-0.3-3.5-1c-0.9-0.7-1.3-1.6-1.3-2.8c0-1.1,0.4-2,1.2-2.7c0.8-0.7,2.1-1,3.9-1h4.2v-0.8c0-1.1-0.3-2-1-2.6
		c-0.6-0.6-1.6-0.9-2.8-0.9c-0.8,0-1.6,0.1-2.4,0.4c-0.8,0.3-1.4,0.7-2,1.1l-0.8-1.3c0.7-0.6,1.5-1,2.4-1.3c0.9-0.3,1.9-0.5,3-0.5
		C711.7,111.2,713.1,111.6,714,112.5z M712,122.5c0.7-0.5,1.3-1.1,1.6-2v-2.1h-4.1c-2.3,0-3.4,0.8-3.4,2.3c0,0.8,0.3,1.4,0.9,1.8
		c0.6,0.4,1.4,0.7,2.5,0.7C710.4,123.1,711.3,122.9,712,122.5z"/>
	<path class="st4" d="M723.7,111.8c0.8-0.5,1.8-0.7,3.1-0.7v1.7l-0.4,0c-1.4,0-2.5,0.4-3.3,1.3c-0.8,0.9-1.2,2-1.2,3.6v6.7h-1.8
		v-13.2h1.7v2.6C722.3,113,722.9,112.3,723.7,111.8z"/>
	<path class="st4" d="M741.9,105.9v18.5h-1.7v-2.6c-0.5,0.9-1.2,1.6-2.1,2c-0.9,0.5-1.9,0.7-3,0.7c-1.2,0-2.3-0.3-3.3-0.8
		s-1.8-1.4-2.4-2.4s-0.8-2.2-0.8-3.5s0.3-2.5,0.8-3.5s1.4-1.8,2.4-2.4s2.1-0.8,3.3-0.8c1.1,0,2,0.2,2.9,0.7c0.9,0.4,1.6,1.1,2.1,1.9
		v-7.9H741.9z M737.7,122.3c0.7-0.4,1.3-1,1.8-1.8c0.4-0.8,0.6-1.7,0.6-2.7s-0.2-1.9-0.6-2.7s-1-1.4-1.8-1.8
		c-0.7-0.4-1.6-0.6-2.5-0.6c-0.9,0-1.8,0.2-2.5,0.6c-0.7,0.4-1.3,1-1.8,1.8s-0.6,1.7-0.6,2.7s0.2,1.9,0.6,2.7c0.4,0.8,1,1.4,1.8,1.8
		c0.7,0.4,1.6,0.6,2.5,0.6C736.2,123,737,122.8,737.7,122.3z"/>
</g>
<rect x="744.1" y="182.2" class="st2" width="178.7" height="33.8"/>
<g class="st3">
	<path class="st4" d="M759.2,192h1.8v6.7c-0.8,0.7-1.8,1.3-2.9,1.7c-1.1,0.4-2.3,0.6-3.5,0.6c-1.8,0-3.3-0.4-4.7-1.2
		c-1.4-0.8-2.5-1.8-3.3-3.2c-0.8-1.4-1.2-2.9-1.2-4.6s0.4-3.2,1.2-4.6c0.8-1.4,1.9-2.4,3.3-3.2c1.4-0.8,3-1.2,4.8-1.2
		c1.3,0,2.6,0.2,3.7,0.6c1.1,0.4,2.1,1.1,2.8,1.9l-1.1,1.2c-1.4-1.4-3.1-2-5.3-2c-1.4,0-2.7,0.3-3.8,0.9c-1.1,0.6-2,1.5-2.7,2.6
		c-0.7,1.1-1,2.3-1,3.7c0,1.4,0.3,2.6,1,3.7c0.7,1.1,1.5,2,2.7,2.6c1.1,0.6,2.4,1,3.8,1c1.8,0,3.3-0.5,4.6-1.3V192z"/>
	<path class="st4" d="M777.7,187.6v13.2H776v-2.4c-0.5,0.8-1.1,1.4-1.9,1.9c-0.8,0.4-1.8,0.7-2.8,0.7c-1.7,0-3.1-0.5-4.1-1.4
		c-1-1-1.5-2.4-1.5-4.2v-7.6h1.8v7.5c0,1.4,0.3,2.4,1,3.2c0.7,0.7,1.7,1.1,2.9,1.1c1.4,0,2.5-0.4,3.3-1.3c0.8-0.8,1.2-2,1.2-3.5
		v-6.9H777.7z"/>
	<path class="st4" d="M782.7,184.3c-0.3-0.3-0.4-0.5-0.4-0.9c0-0.3,0.1-0.6,0.4-0.9s0.6-0.4,0.9-0.4c0.4,0,0.7,0.1,0.9,0.4
		c0.3,0.2,0.4,0.5,0.4,0.9c0,0.4-0.1,0.7-0.4,0.9s-0.6,0.4-0.9,0.4C783.2,184.7,782.9,184.6,782.7,184.3z M782.7,187.6h1.8v13.2
		h-1.8V187.6z"/>
	<path class="st4" d="M800.1,188.9c1,1,1.5,2.4,1.5,4.2v7.6h-1.8v-7.5c0-1.4-0.3-2.4-1-3.1c-0.7-0.7-1.7-1.1-2.9-1.1
		c-1.4,0-2.5,0.4-3.4,1.3c-0.8,0.8-1.2,2-1.2,3.5v6.9h-1.8v-13.2h1.7v2.4c0.5-0.8,1.2-1.4,2-1.9c0.9-0.4,1.9-0.7,3-0.7
		C797.8,187.5,799.1,187.9,800.1,188.9z"/>
	<path class="st4" d="M818.6,187.6v11.6c0,2.2-0.5,3.9-1.6,5s-2.7,1.6-4.9,1.6c-1.2,0-2.4-0.2-3.5-0.5s-2-0.9-2.7-1.5l0.9-1.4
		c0.6,0.6,1.4,1,2.3,1.3c0.9,0.3,1.9,0.5,2.9,0.5c1.7,0,2.9-0.4,3.7-1.2c0.8-0.8,1.2-2,1.2-3.6v-1.7c-0.5,0.8-1.3,1.5-2.2,1.9
		c-0.9,0.4-1.9,0.7-3,0.7c-1.2,0-2.4-0.3-3.4-0.8c-1-0.5-1.8-1.3-2.4-2.3c-0.6-1-0.9-2.1-0.9-3.3c0-1.2,0.3-2.3,0.9-3.3
		c0.6-1,1.4-1.7,2.4-2.3c1-0.5,2.1-0.8,3.4-0.8c1.1,0,2.1,0.2,3,0.7c0.9,0.5,1.6,1.1,2.2,2v-2.5H818.6z M814.4,198
		c0.8-0.4,1.4-1,1.8-1.7c0.4-0.7,0.6-1.6,0.6-2.5c0-0.9-0.2-1.8-0.6-2.5c-0.4-0.7-1-1.3-1.8-1.7c-0.8-0.4-1.6-0.6-2.6-0.6
		c-0.9,0-1.8,0.2-2.6,0.6c-0.8,0.4-1.3,1-1.8,1.7c-0.4,0.7-0.6,1.6-0.6,2.5c0,0.9,0.2,1.8,0.6,2.5c0.4,0.7,1,1.3,1.8,1.7
		s1.6,0.6,2.6,0.6C812.8,198.6,813.7,198.4,814.4,198z"/>
	<path class="st4" d="M832.1,188.8c0.9,0.9,1.4,2.1,1.4,3.8v8.2h-1.7v-2c-0.4,0.7-1,1.2-1.8,1.6c-0.8,0.4-1.7,0.6-2.8,0.6
		c-1.5,0-2.6-0.3-3.5-1c-0.9-0.7-1.3-1.6-1.3-2.8c0-1.1,0.4-2,1.2-2.7c0.8-0.7,2.1-1,3.9-1h4.2v-0.8c0-1.1-0.3-2-0.9-2.6
		c-0.6-0.6-1.6-0.9-2.8-0.9c-0.8,0-1.6,0.1-2.4,0.4c-0.8,0.3-1.4,0.7-2,1.1l-0.8-1.3c0.7-0.6,1.5-1,2.4-1.3s1.9-0.5,3-0.5
		C829.9,187.5,831.2,187.9,832.1,188.8z M830.1,198.8c0.7-0.5,1.3-1.1,1.6-2v-2.1h-4.1c-2.3,0-3.4,0.8-3.4,2.3
		c0,0.8,0.3,1.4,0.9,1.8c0.6,0.4,1.4,0.7,2.5,0.7C828.5,199.4,829.4,199.2,830.1,198.8z"/>
	<path class="st4" d="M858.6,188.9c0.9,1,1.4,2.4,1.4,4.2v7.6h-1.8v-7.5c0-1.4-0.3-2.4-1-3.1c-0.7-0.7-1.6-1.1-2.8-1.1
		c-1.4,0-2.4,0.4-3.2,1.3c-0.8,0.8-1.2,2-1.2,3.5v6.9h-1.8v-7.5c0-1.4-0.3-2.4-1-3.1c-0.7-0.7-1.6-1.1-2.8-1.1
		c-1.3,0-2.4,0.4-3.2,1.3c-0.8,0.8-1.2,2-1.2,3.5v6.9h-1.8v-13.2h1.7v2.4c0.5-0.8,1.1-1.4,1.9-1.8c0.8-0.4,1.8-0.7,2.9-0.7
		c1.1,0,2.1,0.2,2.9,0.7s1.4,1.2,1.8,2.1c0.5-0.9,1.2-1.5,2.1-2c0.9-0.5,1.9-0.7,3.1-0.7C856.3,187.5,857.6,187.9,858.6,188.9z"/>
	<path class="st4" d="M874.9,188.3c1,0.6,1.8,1.3,2.3,2.4s0.8,2.2,0.8,3.5c0,1.3-0.3,2.5-0.8,3.5s-1.3,1.8-2.3,2.4
		c-1,0.6-2.1,0.8-3.4,0.8c-1.1,0-2-0.2-2.9-0.7c-0.9-0.4-1.6-1.1-2.1-1.9v7.3h-1.8v-18h1.7v2.6c0.5-0.9,1.2-1.5,2.1-2s1.9-0.7,3-0.7
		C872.8,187.5,873.9,187.7,874.9,188.3z M874,198.6c0.8-0.4,1.3-1,1.8-1.8c0.4-0.8,0.6-1.7,0.6-2.7s-0.2-1.9-0.6-2.7
		c-0.4-0.8-1-1.4-1.8-1.8s-1.6-0.7-2.5-0.7c-0.9,0-1.8,0.2-2.5,0.7c-0.7,0.4-1.3,1-1.8,1.8c-0.4,0.8-0.6,1.7-0.6,2.7
		s0.2,1.9,0.6,2.7c0.4,0.8,1,1.4,1.8,1.8c0.7,0.4,1.6,0.6,2.5,0.6C872.4,199.3,873.2,199.1,874,198.6z"/>
</g>
<rect x="314.5" y="400.1" class="st2" width="153.3" height="24.8"/>
<g class="st3">
	<path class="st4" d="M332,401.2v17.5h-1.8v-8.1h-10.9v8.1h-1.9v-17.5h1.9v7.8h10.9v-7.8H332z"/>
	<path class="st4" d="M349.2,405.5v13.2h-1.7v-2.4c-0.5,0.8-1.1,1.4-1.9,1.9c-0.8,0.4-1.8,0.7-2.8,0.7c-1.7,0-3.1-0.5-4.1-1.4
		c-1-1-1.5-2.4-1.5-4.2v-7.6h1.8v7.5c0,1.4,0.3,2.4,1,3.2c0.7,0.7,1.7,1.1,2.9,1.1c1.4,0,2.5-0.4,3.3-1.3c0.8-0.8,1.2-2,1.2-3.5
		v-6.9H349.2z"/>
	<path class="st4" d="M365.6,412.6h-11c0.1,1.4,0.6,2.5,1.6,3.3c1,0.8,2.1,1.3,3.6,1.3c0.8,0,1.6-0.1,2.3-0.4
		c0.7-0.3,1.3-0.7,1.8-1.3l1,1.1c-0.6,0.7-1.3,1.2-2.2,1.6s-1.8,0.5-2.9,0.5c-1.3,0-2.5-0.3-3.6-0.9s-1.9-1.4-2.4-2.4
		s-0.9-2.2-0.9-3.5c0-1.3,0.3-2.4,0.8-3.5c0.6-1,1.3-1.8,2.3-2.4c1-0.6,2.1-0.8,3.3-0.8c1.2,0,2.3,0.3,3.3,0.8
		c1,0.6,1.7,1.4,2.3,2.4c0.5,1,0.8,2.2,0.8,3.5L365.6,412.6z M356.1,408.2c-0.9,0.8-1.3,1.9-1.5,3.2h9.3c-0.1-1.3-0.6-2.4-1.5-3.2
		c-0.9-0.8-1.9-1.2-3.2-1.2C358,406.9,356.9,407.4,356.1,408.2z"/>
	<path class="st4" d="M369.3,400.1h1.8v18.5h-1.8V400.1z"/>
	<path class="st4" d="M388.2,405.5v11.6c0,2.2-0.5,3.9-1.6,5c-1.1,1.1-2.7,1.6-4.9,1.6c-1.2,0-2.4-0.2-3.5-0.5s-2-0.9-2.7-1.5
		l0.9-1.4c0.6,0.6,1.4,1,2.3,1.3c0.9,0.3,1.9,0.5,2.9,0.5c1.7,0,2.9-0.4,3.7-1.2c0.8-0.8,1.2-2,1.2-3.6v-1.7
		c-0.5,0.8-1.3,1.5-2.2,1.9c-0.9,0.4-1.9,0.7-3,0.7c-1.2,0-2.4-0.3-3.4-0.8c-1-0.5-1.8-1.3-2.4-2.3c-0.6-1-0.9-2.1-0.9-3.3
		c0-1.2,0.3-2.3,0.9-3.3c0.6-1,1.4-1.7,2.4-2.3c1-0.5,2.1-0.8,3.4-0.8c1.1,0,2.1,0.2,3,0.7s1.6,1.1,2.2,2v-2.5H388.2z M384,416
		c0.8-0.4,1.4-1,1.8-1.7c0.4-0.7,0.6-1.6,0.6-2.5c0-0.9-0.2-1.8-0.6-2.5c-0.4-0.7-1-1.3-1.8-1.7c-0.8-0.4-1.6-0.6-2.6-0.6
		c-0.9,0-1.8,0.2-2.6,0.6c-0.8,0.4-1.3,1-1.8,1.7c-0.4,0.7-0.6,1.6-0.6,2.5c0,0.9,0.2,1.8,0.6,2.5c0.4,0.7,1,1.3,1.8,1.7
		s1.6,0.6,2.6,0.6C382.4,416.6,383.3,416.4,384,416z"/>
	<path class="st4" d="M395.1,417.9c-1-0.6-1.8-1.4-2.4-2.4s-0.9-2.2-0.9-3.5c0-1.3,0.3-2.4,0.9-3.5c0.6-1,1.4-1.8,2.4-2.4
		c1-0.6,2.2-0.8,3.4-0.8c1.3,0,2.4,0.3,3.4,0.8c1,0.6,1.8,1.4,2.4,2.4c0.6,1,0.9,2.2,0.9,3.5c0,1.3-0.3,2.4-0.9,3.5
		c-0.6,1-1.4,1.8-2.4,2.4s-2.2,0.9-3.4,0.9C397.3,418.8,396.1,418.5,395.1,417.9z M401,416.6c0.7-0.4,1.3-1,1.7-1.8
		c0.4-0.8,0.6-1.7,0.6-2.7s-0.2-1.9-0.6-2.7c-0.4-0.8-1-1.4-1.7-1.8s-1.6-0.6-2.5-0.6c-0.9,0-1.8,0.2-2.5,0.6s-1.3,1-1.8,1.8
		c-0.4,0.8-0.6,1.7-0.6,2.7s0.2,1.9,0.6,2.7c0.4,0.8,1,1.4,1.8,1.8c0.7,0.4,1.6,0.6,2.5,0.6C399.5,417.2,400.3,417,401,416.6z"/>
	<path class="st4" d="M417.3,406.7c0.9,0.9,1.4,2.1,1.4,3.8v8.2H417v-2c-0.4,0.7-1,1.2-1.8,1.6c-0.8,0.4-1.7,0.6-2.8,0.6
		c-1.5,0-2.6-0.3-3.5-1s-1.3-1.6-1.3-2.8c0-1.1,0.4-2,1.2-2.7c0.8-0.7,2.1-1,3.9-1h4.2v-0.8c0-1.1-0.3-2-1-2.6s-1.6-0.9-2.8-0.9
		c-0.8,0-1.6,0.1-2.4,0.4c-0.8,0.3-1.4,0.7-2,1.1l-0.8-1.3c0.7-0.6,1.5-1,2.4-1.3c0.9-0.3,1.9-0.5,3-0.5
		C415.1,405.4,416.4,405.9,417.3,406.7z M415.3,416.7c0.7-0.5,1.3-1.1,1.6-2v-2.1h-4.1c-2.3,0-3.4,0.8-3.4,2.3
		c0,0.8,0.3,1.4,0.9,1.8c0.6,0.4,1.4,0.7,2.5,0.7C413.7,417.4,414.6,417.2,415.3,416.7z"/>
	<path class="st4" d="M430.4,417.9c-0.3,0.3-0.7,0.5-1.2,0.7c-0.5,0.2-1,0.2-1.5,0.2c-1.2,0-2.2-0.3-2.9-1c-0.7-0.7-1-1.6-1-2.8v-8
		h-2.4v-1.5h2.4v-2.9h1.8v2.9h4v1.5h-4v7.9c0,0.8,0.2,1.4,0.6,1.8c0.4,0.4,1,0.6,1.7,0.6c0.4,0,0.7-0.1,1.1-0.2
		c0.3-0.1,0.6-0.3,0.9-0.5L430.4,417.9z"/>
</g>
<rect x="77.9" y="240.9" class="st2" width="221.1" height="39.8"/>
<g class="st3">
	<path class="st4" d="M80.8,241.9h1.9v15.9h9.8v1.6H80.8V241.9z"/>
	<path class="st4" d="M103.7,247.5c0.9,0.9,1.4,2.1,1.4,3.8v8.2h-1.7v-2c-0.4,0.7-1,1.2-1.8,1.6c-0.8,0.4-1.7,0.6-2.8,0.6
		c-1.5,0-2.6-0.3-3.5-1s-1.3-1.6-1.3-2.8c0-1.1,0.4-2,1.2-2.7c0.8-0.7,2.1-1,3.9-1h4.2v-0.8c0-1.1-0.3-2-1-2.6s-1.6-0.9-2.8-0.9
		c-0.8,0-1.6,0.1-2.4,0.4c-0.8,0.3-1.4,0.7-2,1.1l-0.8-1.3c0.7-0.6,1.5-1,2.4-1.3c0.9-0.3,1.9-0.5,3-0.5
		C101.5,246.2,102.8,246.6,103.7,247.5z M101.7,257.5c0.7-0.5,1.3-1.1,1.6-2v-2.1h-4.1c-2.3,0-3.4,0.8-3.4,2.3
		c0,0.8,0.3,1.4,0.9,1.8c0.6,0.4,1.4,0.7,2.5,0.7C100.1,258.1,101,257.9,101.7,257.5z"/>
	<path class="st4" d="M120.5,247.6c1,1,1.5,2.4,1.5,4.2v7.6h-1.8V252c0-1.4-0.3-2.4-1-3.1c-0.7-0.7-1.7-1.1-2.9-1.1
		c-1.4,0-2.5,0.4-3.4,1.3c-0.8,0.8-1.2,2-1.2,3.5v6.9h-1.8v-13.2h1.7v2.4c0.5-0.8,1.2-1.4,2-1.9c0.9-0.4,1.9-0.7,3-0.7
		C118.3,246.2,119.6,246.6,120.5,247.6z"/>
	<path class="st4" d="M138.9,240.9v18.5h-1.7v-2.6c-0.5,0.9-1.2,1.6-2.1,2c-0.9,0.5-1.9,0.7-3,0.7c-1.2,0-2.4-0.3-3.4-0.8
		s-1.8-1.4-2.4-2.4c-0.6-1-0.9-2.2-0.9-3.5s0.3-2.5,0.9-3.5c0.6-1,1.4-1.8,2.4-2.4s2.1-0.8,3.4-0.8c1.1,0,2,0.2,2.9,0.7
		c0.9,0.4,1.6,1.1,2.1,1.9v-7.9H138.9z M134.7,257.3c0.7-0.4,1.3-1,1.8-1.8c0.4-0.8,0.6-1.7,0.6-2.7s-0.2-1.9-0.6-2.7
		c-0.4-0.8-1-1.4-1.8-1.8s-1.6-0.6-2.5-0.6c-0.9,0-1.8,0.2-2.5,0.6s-1.3,1-1.8,1.8c-0.4,0.8-0.6,1.7-0.6,2.7s0.2,1.9,0.6,2.7
		c0.4,0.8,1,1.4,1.8,1.8c0.7,0.4,1.6,0.6,2.5,0.6C133.2,258,134,257.8,134.7,257.3z"/>
	<path class="st4" d="M143.8,243c-0.3-0.3-0.4-0.5-0.4-0.9c0-0.3,0.1-0.6,0.4-0.9s0.6-0.4,0.9-0.4c0.4,0,0.7,0.1,0.9,0.4
		c0.3,0.2,0.4,0.5,0.4,0.9c0,0.4-0.1,0.7-0.4,0.9s-0.6,0.4-0.9,0.4C144.4,243.4,144.1,243.3,143.8,243z M143.8,246.3h1.8v13.2h-1.8
		V246.3z"/>
	<path class="st4" d="M161.6,246.3l-5.9,13.2h-1.8l-5.8-13.2h1.9l4.9,11.2l5-11.2H161.6z"/>
	<path class="st4" d="M164.1,243c-0.3-0.3-0.4-0.5-0.4-0.9c0-0.3,0.1-0.6,0.4-0.9s0.6-0.4,0.9-0.4c0.4,0,0.7,0.1,0.9,0.4
		c0.3,0.2,0.4,0.5,0.4,0.9c0,0.4-0.1,0.7-0.4,0.9s-0.6,0.4-0.9,0.4C164.6,243.4,164.3,243.3,164.1,243z M164.1,246.3h1.8v13.2h-1.8
		V246.3z"/>
	<path class="st4" d="M171.3,259.1c-1-0.3-1.7-0.7-2.3-1.2l0.8-1.4c0.5,0.4,1.2,0.8,2.1,1.1c0.8,0.3,1.7,0.4,2.6,0.4
		c1.2,0,2.1-0.2,2.7-0.6c0.6-0.4,0.9-0.9,0.9-1.6c0-0.5-0.2-0.9-0.5-1.1c-0.3-0.3-0.7-0.5-1.2-0.6c-0.5-0.1-1.1-0.3-1.9-0.4
		c-1.1-0.2-1.9-0.4-2.6-0.6s-1.2-0.6-1.7-1.1c-0.5-0.5-0.7-1.2-0.7-2.1c0-1.1,0.5-2,1.4-2.7c0.9-0.7,2.2-1,3.8-1
		c0.8,0,1.7,0.1,2.5,0.3c0.9,0.2,1.5,0.5,2.1,0.9l-0.8,1.4c-1.1-0.8-2.4-1.1-3.9-1.1c-1.1,0-2,0.2-2.6,0.6c-0.6,0.4-0.9,0.9-0.9,1.6
		c0,0.5,0.2,0.9,0.5,1.2c0.3,0.3,0.7,0.5,1.2,0.7c0.5,0.1,1.1,0.3,2,0.4c1,0.2,1.9,0.4,2.5,0.6c0.6,0.2,1.2,0.5,1.6,1s0.7,1.2,0.7,2
		c0,1.2-0.5,2.1-1.4,2.7s-2.3,1-4,1C173.3,259.5,172.3,259.4,171.3,259.1z"/>
	<path class="st4" d="M183,243c-0.3-0.3-0.4-0.5-0.4-0.9c0-0.3,0.1-0.6,0.4-0.9s0.6-0.4,0.9-0.4c0.4,0,0.7,0.1,0.9,0.4
		c0.3,0.2,0.4,0.5,0.4,0.9c0,0.4-0.1,0.7-0.4,0.9s-0.6,0.4-0.9,0.4C183.6,243.4,183.3,243.3,183,243z M183.1,246.3h1.8v13.2h-1.8
		V246.3z"/>
	<path class="st4" d="M198.3,247.5c0.9,0.9,1.4,2.1,1.4,3.8v8.2H198v-2c-0.4,0.7-1,1.2-1.8,1.6c-0.8,0.4-1.7,0.6-2.8,0.6
		c-1.5,0-2.6-0.3-3.5-1s-1.3-1.6-1.3-2.8c0-1.1,0.4-2,1.2-2.7c0.8-0.7,2.1-1,3.9-1h4.2v-0.8c0-1.1-0.3-2-1-2.6s-1.6-0.9-2.8-0.9
		c-0.8,0-1.6,0.1-2.4,0.4c-0.8,0.3-1.4,0.7-2,1.1l-0.8-1.3c0.7-0.6,1.5-1,2.4-1.3c0.9-0.3,1.9-0.5,3-0.5
		C196.1,246.2,197.4,246.6,198.3,247.5z M196.3,257.5c0.7-0.5,1.3-1.1,1.6-2v-2.1h-4.1c-2.3,0-3.4,0.8-3.4,2.3
		c0,0.8,0.3,1.4,0.9,1.8c0.6,0.4,1.4,0.7,2.5,0.7C194.8,258.1,195.6,257.9,196.3,257.5z"/>
	<path class="st4" d="M216.4,246.3v13.2h-1.7V257c-0.5,0.8-1.1,1.4-1.9,1.9c-0.8,0.4-1.8,0.7-2.8,0.7c-1.7,0-3.1-0.5-4.1-1.4
		c-1-1-1.5-2.4-1.5-4.2v-7.6h1.8v7.5c0,1.4,0.3,2.4,1,3.2c0.7,0.7,1.7,1.1,2.9,1.1c1.4,0,2.5-0.4,3.3-1.3c0.8-0.8,1.2-2,1.2-3.5
		v-6.9H216.4z"/>
</g>
<rect x="47.4" y="540.1" class="st2" width="254.6" height="40.3"/>
<g class="st3">
	<path class="st4" d="M53.2,557.6c-1.4-0.8-2.5-1.8-3.3-3.2s-1.2-2.9-1.2-4.6s0.4-3.2,1.2-4.6s1.9-2.4,3.3-3.2s3-1.2,4.7-1.2
		c1.3,0,2.5,0.2,3.6,0.7c1.1,0.4,2,1.1,2.8,1.9l-1.2,1.2c-1.4-1.4-3.1-2.1-5.2-2.1c-1.4,0-2.6,0.3-3.8,1c-1.1,0.6-2,1.5-2.7,2.6
		c-0.6,1.1-1,2.3-1,3.7c0,1.4,0.3,2.6,1,3.7c0.6,1.1,1.5,2,2.7,2.6c1.1,0.6,2.4,1,3.8,1c2.1,0,3.8-0.7,5.2-2.1l1.2,1.2
		c-0.8,0.8-1.7,1.5-2.8,1.9c-1.1,0.4-2.3,0.7-3.6,0.7C56.2,558.8,54.6,558.4,53.2,557.6z"/>
	<path class="st4" d="M78.5,546.8c1,1,1.5,2.4,1.5,4.2v7.6h-1.8v-7.5c0-1.4-0.3-2.4-1-3.1c-0.7-0.7-1.7-1.1-2.9-1.1
		c-1.4,0-2.5,0.4-3.4,1.3c-0.8,0.8-1.2,2-1.2,3.5v6.9h-1.8v-18.5h1.8v7.7c0.5-0.8,1.1-1.4,2-1.8c0.9-0.4,1.8-0.6,2.9-0.6
		C76.2,545.4,77.6,545.9,78.5,546.8z"/>
	<path class="st4" d="M93.4,546.7c0.9,0.9,1.4,2.1,1.4,3.8v8.2H93v-2c-0.4,0.7-1,1.2-1.8,1.6c-0.8,0.4-1.7,0.6-2.8,0.6
		c-1.5,0-2.6-0.3-3.5-1s-1.3-1.6-1.3-2.8c0-1.1,0.4-2,1.2-2.7c0.8-0.7,2.1-1,3.9-1H93v-0.8c0-1.1-0.3-2-1-2.6s-1.6-0.9-2.8-0.9
		c-0.8,0-1.6,0.1-2.4,0.4c-0.8,0.3-1.4,0.7-2,1.1l-0.8-1.3c0.7-0.6,1.5-1,2.4-1.3c0.9-0.3,1.9-0.5,3-0.5
		C91.1,545.4,92.4,545.8,93.4,546.7z M91.4,556.7c0.7-0.5,1.3-1.1,1.6-2v-2.1h-4.1c-2.3,0-3.4,0.8-3.4,2.3c0,0.8,0.3,1.4,0.9,1.8
		c0.6,0.4,1.4,0.7,2.5,0.7C89.8,557.4,90.6,557.1,91.4,556.7z"/>
	<path class="st4" d="M106.5,557.8c-0.3,0.3-0.7,0.5-1.2,0.7c-0.5,0.2-1,0.2-1.5,0.2c-1.2,0-2.2-0.3-2.9-1c-0.7-0.7-1-1.6-1-2.8v-8
		h-2.4v-1.5h2.4v-2.9h1.8v2.9h4v1.5h-4v7.9c0,0.8,0.2,1.4,0.6,1.8c0.4,0.4,1,0.6,1.7,0.6c0.4,0,0.7-0.1,1.1-0.2
		c0.3-0.1,0.6-0.3,0.9-0.5L106.5,557.8z"/>
	<path class="st4" d="M120.7,552.6h-11c0.1,1.4,0.6,2.5,1.6,3.3c1,0.8,2.1,1.3,3.6,1.3c0.8,0,1.6-0.1,2.3-0.4
		c0.7-0.3,1.3-0.7,1.8-1.3l1,1.1c-0.6,0.7-1.3,1.2-2.2,1.6s-1.8,0.5-2.9,0.5c-1.3,0-2.5-0.3-3.6-0.9s-1.9-1.4-2.4-2.4
		s-0.9-2.2-0.9-3.5c0-1.3,0.3-2.4,0.8-3.5c0.6-1,1.3-1.8,2.3-2.4c1-0.6,2.1-0.8,3.3-0.8c1.2,0,2.3,0.3,3.3,0.8
		c1,0.6,1.7,1.4,2.3,2.4c0.5,1,0.8,2.2,0.8,3.5L120.7,552.6z M111.2,548.1c-0.9,0.8-1.3,1.9-1.5,3.2h9.3c-0.1-1.3-0.6-2.4-1.5-3.2
		c-0.9-0.8-1.9-1.2-3.2-1.2C113.1,546.9,112,547.3,111.2,548.1z"/>
	<path class="st4" d="M132.5,546.7c0.9,0.9,1.4,2.1,1.4,3.8v8.2h-1.7v-2c-0.4,0.7-1,1.2-1.8,1.6c-0.8,0.4-1.7,0.6-2.8,0.6
		c-1.5,0-2.6-0.3-3.5-1s-1.3-1.6-1.3-2.8c0-1.1,0.4-2,1.2-2.7c0.8-0.7,2.1-1,3.9-1h4.2v-0.8c0-1.1-0.3-2-1-2.6s-1.6-0.9-2.8-0.9
		c-0.8,0-1.6,0.1-2.4,0.4c-0.8,0.3-1.4,0.7-2,1.1l-0.8-1.3c0.7-0.6,1.5-1,2.4-1.3c0.9-0.3,1.9-0.5,3-0.5
		C130.3,545.4,131.6,545.8,132.5,546.7z M130.5,556.7c0.7-0.5,1.3-1.1,1.6-2v-2.1H128c-2.3,0-3.4,0.8-3.4,2.3c0,0.8,0.3,1.4,0.9,1.8
		c0.6,0.4,1.4,0.7,2.5,0.7C128.9,557.4,129.8,557.1,130.5,556.7z"/>
	<path class="st4" d="M150.6,545.5v13.2h-1.7v-2.4c-0.5,0.8-1.1,1.4-1.9,1.9c-0.8,0.4-1.8,0.7-2.8,0.7c-1.7,0-3.1-0.5-4.1-1.4
		c-1-1-1.5-2.4-1.5-4.2v-7.6h1.8v7.5c0,1.4,0.3,2.4,1,3.2c0.7,0.7,1.7,1.1,2.9,1.1c1.4,0,2.5-0.4,3.3-1.3c0.8-0.8,1.2-2,1.2-3.5
		v-6.9H150.6z"/>
	<path class="st4" d="M155.5,540.1h1.8v18.5h-1.8V540.1z"/>
	<path class="st4" d="M162.2,542.2c-0.3-0.3-0.4-0.5-0.4-0.9c0-0.3,0.1-0.6,0.4-0.9s0.6-0.4,0.9-0.4c0.4,0,0.7,0.1,0.9,0.4
		c0.3,0.2,0.4,0.5,0.4,0.9c0,0.4-0.1,0.7-0.4,0.9s-0.6,0.4-0.9,0.4C162.8,542.6,162.5,542.5,162.2,542.2z M162.3,545.5h1.8v13.2
		h-1.8V545.5z"/>
	<path class="st4" d="M179.6,546.8c1,1,1.5,2.4,1.5,4.2v7.6h-1.8v-7.5c0-1.4-0.3-2.4-1-3.1c-0.7-0.7-1.7-1.1-2.9-1.1
		c-1.4,0-2.5,0.4-3.4,1.3c-0.8,0.8-1.2,2-1.2,3.5v6.9H169v-13.2h1.7v2.4c0.5-0.8,1.2-1.4,2-1.9c0.9-0.4,1.9-0.7,3-0.7
		C177.3,545.4,178.6,545.9,179.6,546.8z"/>
</g>
<rect x="209.8" y="591.3" class="st2" width="323.5" height="46.9"/>
<g class="st3">
	<path class="st4" d="M215.6,608.8c-1.4-0.8-2.5-1.8-3.3-3.2s-1.2-2.9-1.2-4.6s0.4-3.2,1.2-4.6s1.9-2.4,3.3-3.2s3-1.2,4.7-1.2
		c1.3,0,2.5,0.2,3.6,0.7c1.1,0.4,2,1.1,2.8,1.9l-1.2,1.2c-1.4-1.4-3.1-2.1-5.2-2.1c-1.4,0-2.6,0.3-3.8,1c-1.1,0.6-2,1.5-2.7,2.6
		c-0.6,1.1-1,2.3-1,3.7c0,1.4,0.3,2.6,1,3.7c0.6,1.1,1.5,2,2.7,2.6c1.1,0.6,2.4,1,3.8,1c2.1,0,3.8-0.7,5.2-2.1l1.2,1.2
		c-0.8,0.8-1.7,1.5-2.8,1.9c-1.1,0.4-2.3,0.7-3.6,0.7C218.5,610,217,609.6,215.6,608.8z"/>
	<path class="st4" d="M240.9,598c1,1,1.5,2.4,1.5,4.2v7.6h-1.8v-7.5c0-1.4-0.3-2.4-1-3.1c-0.7-0.7-1.7-1.1-2.9-1.1
		c-1.4,0-2.5,0.4-3.4,1.3c-0.8,0.8-1.2,2-1.2,3.5v6.9h-1.8v-18.5h1.8v7.7c0.5-0.8,1.1-1.4,2-1.8c0.9-0.4,1.8-0.6,2.9-0.6
		C238.6,596.6,239.9,597,240.9,598z"/>
	<path class="st4" d="M255.7,597.9c0.9,0.9,1.4,2.1,1.4,3.8v8.2h-1.7v-2c-0.4,0.7-1,1.2-1.8,1.6c-0.8,0.4-1.7,0.6-2.8,0.6
		c-1.5,0-2.6-0.3-3.5-1s-1.3-1.6-1.3-2.8c0-1.1,0.4-2,1.2-2.7c0.8-0.7,2.1-1,3.9-1h4.2v-0.8c0-1.1-0.3-2-1-2.6s-1.6-0.9-2.8-0.9
		c-0.8,0-1.6,0.1-2.4,0.4c-0.8,0.3-1.4,0.7-2,1.1l-0.8-1.3c0.7-0.6,1.5-1,2.4-1.3c0.9-0.3,1.9-0.5,3-0.5
		C253.5,596.6,254.8,597,255.7,597.9z M254.3,594.6l-2.5-2.1l-2.5,2.1h-1.6l3.2-3.1h1.8l3.2,3.1H254.3z M253.7,607.9
		c0.7-0.5,1.3-1.1,1.6-2v-2.1h-4.1c-2.3,0-3.4,0.8-3.4,2.3c0,0.8,0.3,1.4,0.9,1.8c0.6,0.4,1.4,0.7,2.5,0.7
		C252.1,608.5,253,608.3,253.7,607.9z"/>
	<path class="st4" d="M268.8,609c-0.3,0.3-0.7,0.5-1.2,0.7c-0.5,0.2-1,0.2-1.5,0.2c-1.2,0-2.2-0.3-2.9-1c-0.7-0.7-1-1.6-1-2.8v-8
		h-2.4v-1.5h2.4v-2.9h1.8v2.9h4v1.5h-4v7.9c0,0.8,0.2,1.4,0.6,1.8c0.4,0.4,1,0.6,1.7,0.6c0.4,0,0.7-0.1,1.1-0.2
		c0.3-0.1,0.6-0.3,0.9-0.5L268.8,609z"/>
	<path class="st4" d="M283,603.8h-11c0.1,1.4,0.6,2.5,1.6,3.3c1,0.8,2.1,1.3,3.6,1.3c0.8,0,1.6-0.1,2.3-0.4c0.7-0.3,1.3-0.7,1.8-1.3
		l1,1.1c-0.6,0.7-1.3,1.2-2.2,1.6s-1.8,0.5-2.9,0.5c-1.3,0-2.5-0.3-3.6-0.9s-1.9-1.4-2.4-2.4s-0.9-2.2-0.9-3.5
		c0-1.3,0.3-2.4,0.8-3.5c0.6-1,1.3-1.8,2.3-2.4c1-0.6,2.1-0.8,3.3-0.8c1.2,0,2.3,0.3,3.3,0.8c1,0.6,1.7,1.4,2.3,2.4
		c0.5,1,0.8,2.2,0.8,3.5L283,603.8z M273.5,599.3c-0.9,0.8-1.3,1.9-1.5,3.2h9.3c-0.1-1.3-0.6-2.4-1.5-3.2c-0.9-0.8-1.9-1.2-3.2-1.2
		C275.4,598.1,274.4,598.5,273.5,599.3z"/>
	<path class="st4" d="M294.9,597.9c0.9,0.9,1.4,2.1,1.4,3.8v8.2h-1.7v-2c-0.4,0.7-1,1.2-1.8,1.6c-0.8,0.4-1.7,0.6-2.8,0.6
		c-1.5,0-2.6-0.3-3.5-1s-1.3-1.6-1.3-2.8c0-1.1,0.4-2,1.2-2.7c0.8-0.7,2.1-1,3.9-1h4.2v-0.8c0-1.1-0.3-2-1-2.6s-1.6-0.9-2.8-0.9
		c-0.8,0-1.6,0.1-2.4,0.4c-0.8,0.3-1.4,0.7-2,1.1l-0.8-1.3c0.7-0.6,1.5-1,2.4-1.3c0.9-0.3,1.9-0.5,3-0.5
		C292.6,596.6,294,597,294.9,597.9z M292.9,607.9c0.7-0.5,1.3-1.1,1.6-2v-2.1h-4.1c-2.3,0-3.4,0.8-3.4,2.3c0,0.8,0.3,1.4,0.9,1.8
		c0.6,0.4,1.4,0.7,2.5,0.7C291.3,608.5,292.2,608.3,292.9,607.9z"/>
	<path class="st4" d="M312.9,596.7v13.2h-1.7v-2.4c-0.5,0.8-1.1,1.4-1.9,1.9c-0.8,0.4-1.8,0.7-2.8,0.7c-1.7,0-3.1-0.5-4.1-1.4
		c-1-1-1.5-2.4-1.5-4.2v-7.6h1.8v7.5c0,1.4,0.3,2.4,1,3.2c0.7,0.7,1.7,1.1,2.9,1.1c1.4,0,2.5-0.4,3.3-1.3c0.8-0.8,1.2-2,1.2-3.5
		v-6.9H312.9z"/>
	<path class="st4" d="M328.5,598c1,1,1.5,2.4,1.5,4.2v7.6h-1.8v-7.5c0-1.4-0.3-2.4-1-3.1c-0.7-0.7-1.7-1.1-2.9-1.1
		c-1.4,0-2.5,0.4-3.4,1.3c-0.8,0.8-1.2,2-1.2,3.5v6.9h-1.8v-13.2h1.7v2.4c0.5-0.8,1.2-1.4,2-1.9c0.9-0.4,1.9-0.7,3-0.7
		C326.2,596.6,327.6,597,328.5,598z"/>
	<path class="st4" d="M346.3,603.8h-11c0.1,1.4,0.6,2.5,1.6,3.3c1,0.8,2.1,1.3,3.6,1.3c0.8,0,1.6-0.1,2.3-0.4
		c0.7-0.3,1.3-0.7,1.8-1.3l1,1.1c-0.6,0.7-1.3,1.2-2.2,1.6s-1.8,0.5-2.9,0.5c-1.3,0-2.5-0.3-3.6-0.9s-1.9-1.4-2.4-2.4
		s-0.9-2.2-0.9-3.5c0-1.3,0.3-2.4,0.8-3.5c0.6-1,1.3-1.8,2.3-2.4c1-0.6,2.1-0.8,3.3-0.8c1.2,0,2.3,0.3,3.3,0.8
		c1,0.6,1.7,1.4,2.3,2.4c0.5,1,0.8,2.2,0.8,3.5L346.3,603.8z M336.8,599.3c-0.9,0.8-1.3,1.9-1.5,3.2h9.3c-0.1-1.3-0.6-2.4-1.5-3.2
		c-0.9-0.8-1.9-1.2-3.2-1.2C338.7,598.1,337.6,598.5,336.8,599.3z"/>
	<path class="st4" d="M361.8,596.7v13.2h-1.7v-2.4c-0.5,0.8-1.1,1.4-1.9,1.9c-0.8,0.4-1.8,0.7-2.8,0.7c-1.7,0-3.1-0.5-4.1-1.4
		c-1-1-1.5-2.4-1.5-4.2v-7.6h1.8v7.5c0,1.4,0.3,2.4,1,3.2c0.7,0.7,1.7,1.1,2.9,1.1c1.4,0,2.5-0.4,3.3-1.3c0.8-0.8,1.2-2,1.2-3.5
		v-6.9H361.8z"/>
	<path class="st4" d="M369.4,593.3c-0.4,0.4-0.6,1-0.6,1.8v1.5h4v1.5h-4v11.7h-1.8v-11.7h-2.4v-1.5h2.4V595c0-1.2,0.3-2.1,1-2.8
		c0.7-0.7,1.7-1,2.9-1c0.5,0,1,0.1,1.5,0.2c0.5,0.1,0.9,0.3,1.2,0.6l-0.6,1.3c-0.5-0.4-1.2-0.6-1.9-0.6
		C370.4,592.6,369.8,592.8,369.4,593.3z"/>
	<path class="st4" d="M374,602.3h6.5v1.5H374V602.3z"/>
	<path class="st4" d="M396.8,591.3v18.5h-1.7v-2.6c-0.5,0.9-1.2,1.6-2.1,2c-0.9,0.5-1.9,0.7-3,0.7c-1.2,0-2.4-0.3-3.4-0.8
		s-1.8-1.4-2.4-2.4c-0.6-1-0.9-2.2-0.9-3.5s0.3-2.5,0.9-3.5c0.6-1,1.4-1.8,2.4-2.4s2.1-0.8,3.4-0.8c1.1,0,2,0.2,2.9,0.7
		c0.9,0.4,1.6,1.1,2.1,1.9v-7.9H396.8z M392.7,607.7c0.7-0.4,1.3-1,1.8-1.8c0.4-0.8,0.6-1.7,0.6-2.7s-0.2-1.9-0.6-2.7
		c-0.4-0.8-1-1.4-1.8-1.8s-1.6-0.6-2.5-0.6c-0.9,0-1.8,0.2-2.5,0.6s-1.3,1-1.8,1.8c-0.4,0.8-0.6,1.7-0.6,2.7s0.2,1.9,0.6,2.7
		c0.4,0.8,1,1.4,1.8,1.8c0.7,0.4,1.6,0.6,2.5,0.6C391.1,608.4,391.9,608.2,392.7,607.7z"/>
	<path class="st4" d="M413.6,596.7v13.2h-1.7v-2.4c-0.5,0.8-1.1,1.4-1.9,1.9c-0.8,0.4-1.8,0.7-2.8,0.7c-1.7,0-3.1-0.5-4.1-1.4
		c-1-1-1.5-2.4-1.5-4.2v-7.6h1.8v7.5c0,1.4,0.3,2.4,1,3.2c0.7,0.7,1.7,1.1,2.9,1.1c1.4,0,2.5-0.4,3.3-1.3c0.8-0.8,1.2-2,1.2-3.5
		v-6.9H413.6z"/>
	<path class="st4" d="M417.6,602.3h6.5v1.5h-6.5V602.3z"/>
	<path class="st4" d="M430.4,593.9v6.9h9v1.6h-9v7.4h-1.9v-17.5h12v1.6H430.4z"/>
	<path class="st4" d="M452,597.9c0.9,0.9,1.4,2.1,1.4,3.8v8.2h-1.7v-2c-0.4,0.7-1,1.2-1.8,1.6c-0.8,0.4-1.7,0.6-2.8,0.6
		c-1.5,0-2.6-0.3-3.5-1s-1.3-1.6-1.3-2.8c0-1.1,0.4-2,1.2-2.7c0.8-0.7,2.1-1,3.9-1h4.2v-0.8c0-1.1-0.3-2-1-2.6s-1.6-0.9-2.8-0.9
		c-0.8,0-1.6,0.1-2.4,0.4c-0.8,0.3-1.4,0.7-2,1.1l-0.8-1.3c0.7-0.6,1.5-1,2.4-1.3c0.9-0.3,1.9-0.5,3-0.5
		C449.8,596.6,451.1,597,452,597.9z M450,607.9c0.7-0.5,1.3-1.1,1.6-2v-2.1h-4.1c-2.3,0-3.4,0.8-3.4,2.3c0,0.8,0.3,1.4,0.9,1.8
		c0.6,0.4,1.4,0.7,2.5,0.7C448.4,608.5,449.3,608.3,450,607.9z"/>
	<path class="st4" d="M460.2,609.1c-1-0.6-1.8-1.4-2.4-2.4s-0.9-2.2-0.9-3.5c0-1.3,0.3-2.4,0.9-3.5c0.6-1,1.4-1.8,2.4-2.4
		c1-0.6,2.2-0.8,3.4-0.8c1.3,0,2.4,0.3,3.4,0.8c1,0.6,1.8,1.4,2.4,2.4c0.6,1,0.9,2.2,0.9,3.5c0,1.3-0.3,2.4-0.9,3.5
		c-0.6,1-1.4,1.8-2.4,2.4s-2.2,0.9-3.4,0.9C462.4,609.9,461.2,609.7,460.2,609.1z M466.1,607.7c0.7-0.4,1.3-1,1.7-1.8
		c0.4-0.8,0.6-1.7,0.6-2.7s-0.2-1.9-0.6-2.7c-0.4-0.8-1-1.4-1.7-1.8s-1.6-0.6-2.5-0.6c-0.9,0-1.8,0.2-2.5,0.6s-1.3,1-1.8,1.8
		c-0.4,0.8-0.6,1.7-0.6,2.7s0.2,1.9,0.6,2.7c0.4,0.8,1,1.4,1.8,1.8c0.7,0.4,1.6,0.6,2.5,0.6C464.6,608.4,465.4,608.2,466.1,607.7z"
		/>
	<path class="st4" d="M485.8,596.7v13.2h-1.7v-2.4c-0.5,0.8-1.1,1.4-1.9,1.9c-0.8,0.4-1.8,0.7-2.8,0.7c-1.7,0-3.1-0.5-4.1-1.4
		c-1-1-1.5-2.4-1.5-4.2v-7.6h1.8v7.5c0,1.4,0.3,2.4,1,3.2c0.7,0.7,1.7,1.1,2.9,1.1c1.4,0,2.5-0.4,3.3-1.3c0.8-0.8,1.2-2,1.2-3.5
		v-6.9H485.8z"/>
</g>
<rect x="147.2" y="686.1" class="st2" width="125.2" height="21.5"/>
<g class="st3">
	<path class="st4" d="M163.7,697.1c0.6,0.7,0.9,1.7,0.9,2.9c0,1.5-0.6,2.7-1.7,3.5c-1.1,0.8-2.7,1.2-4.9,1.2h-8v-17.5h7.5
		c2,0,3.5,0.4,4.5,1.2c1.1,0.8,1.6,1.9,1.6,3.3c0,1-0.2,1.8-0.7,2.5c-0.5,0.7-1.1,1.2-2,1.5C162.2,695.9,163.1,696.4,163.7,697.1z
		 M151.9,688.7v6.3h5.6c1.4,0,2.5-0.3,3.3-0.8c0.8-0.5,1.2-1.3,1.2-2.4s-0.4-1.8-1.2-2.4c-0.8-0.5-1.9-0.8-3.3-0.8H151.9z
		 M161.6,702.3c0.8-0.5,1.2-1.4,1.2-2.5c0-2.2-1.6-3.3-4.8-3.3h-6.2v6.6h6.2C159.6,703.1,160.8,702.8,161.6,702.3z"/>
	<path class="st4" d="M172.1,692.1c0.8-0.5,1.8-0.7,3.1-0.7v1.7l-0.4,0c-1.4,0-2.5,0.4-3.3,1.3c-0.8,0.9-1.2,2-1.2,3.6v6.7h-1.8
		v-13.2h1.7v2.6C170.6,693.2,171.2,692.5,172.1,692.1z"/>
	<path class="st4" d="M178.3,688.2c-0.3-0.3-0.4-0.5-0.4-0.9c0-0.3,0.1-0.6,0.4-0.9s0.6-0.4,0.9-0.4c0.4,0,0.7,0.1,0.9,0.4
		c0.3,0.2,0.4,0.5,0.4,0.9c0,0.4-0.1,0.7-0.4,0.9s-0.6,0.4-0.9,0.4C178.9,688.6,178.6,688.5,178.3,688.2z M178.3,691.5h1.8v13.2
		h-1.8V691.5z"/>
	<path class="st4" d="M196.5,698.6h-11c0.1,1.4,0.6,2.5,1.6,3.3c1,0.8,2.1,1.3,3.6,1.3c0.8,0,1.6-0.1,2.3-0.4
		c0.7-0.3,1.3-0.7,1.8-1.3l1,1.1c-0.6,0.7-1.3,1.2-2.2,1.6s-1.8,0.5-2.9,0.5c-1.3,0-2.5-0.3-3.6-0.9s-1.9-1.4-2.4-2.4
		s-0.9-2.2-0.9-3.5c0-1.3,0.3-2.4,0.8-3.5c0.6-1,1.3-1.8,2.3-2.4c1-0.6,2.1-0.8,3.3-0.8c1.2,0,2.3,0.3,3.3,0.8
		c1,0.6,1.7,1.4,2.3,2.4c0.5,1,0.8,2.2,0.8,3.5L196.5,698.6z M187,694.1c-0.9,0.8-1.3,1.9-1.5,3.2h9.3c-0.1-1.3-0.6-2.4-1.5-3.2
		c-0.9-0.8-1.9-1.2-3.2-1.2C188.9,692.9,187.8,693.3,187,694.1z"/>
	<path class="st4" d="M202.1,703.9c-1-0.6-1.8-1.4-2.4-2.4c-0.6-1-0.9-2.2-0.9-3.5c0-1.3,0.3-2.4,0.9-3.5c0.6-1,1.4-1.8,2.4-2.4
		c1-0.6,2.2-0.8,3.5-0.8c1.1,0,2.1,0.2,3,0.7c0.9,0.4,1.6,1.1,2.1,1.9l-1.3,0.9c-0.4-0.7-1-1.1-1.6-1.5c-0.7-0.3-1.4-0.5-2.2-0.5
		c-0.9,0-1.8,0.2-2.6,0.6s-1.3,1-1.8,1.8c-0.4,0.8-0.6,1.7-0.6,2.7c0,1,0.2,1.9,0.6,2.7c0.4,0.8,1,1.4,1.8,1.8
		c0.8,0.4,1.6,0.6,2.6,0.6c0.8,0,1.5-0.2,2.2-0.5c0.7-0.3,1.2-0.8,1.6-1.5l1.3,0.9c-0.5,0.8-1.2,1.5-2.1,1.9c-0.9,0.4-1.9,0.7-3,0.7
		C204.3,704.8,203.1,704.5,202.1,703.9z"/>
</g>
<rect x="249.9" y="840.4" class="st2" width="205.8" height="38.1"/>
<g class="st3">
	<path class="st4" d="M264.7,859l-4-5.6c-0.4,0-0.9,0.1-1.4,0.1h-4.7v5.5h-1.9v-17.5h6.5c2.2,0,4,0.5,5.3,1.6
		c1.3,1.1,1.9,2.5,1.9,4.4c0,1.4-0.3,2.5-1,3.5c-0.7,0.9-1.7,1.6-3,2l4.3,6H264.7z M263.3,850.7c0.9-0.8,1.4-1.8,1.4-3.2
		c0-1.4-0.5-2.5-1.4-3.3c-0.9-0.8-2.2-1.1-4-1.1h-4.6v8.8h4.6C261,851.8,262.3,851.5,263.3,850.7z"/>
	<path class="st4" d="M272.4,858.2c-1-0.6-1.8-1.4-2.4-2.4s-0.9-2.2-0.9-3.5c0-1.3,0.3-2.4,0.9-3.5c0.6-1,1.4-1.8,2.4-2.4
		c1-0.6,2.2-0.8,3.4-0.8c1.3,0,2.4,0.3,3.4,0.8c1,0.6,1.8,1.4,2.4,2.4c0.6,1,0.9,2.2,0.9,3.5c0,1.3-0.3,2.4-0.9,3.5
		c-0.6,1-1.4,1.8-2.4,2.4s-2.2,0.9-3.4,0.9C274.6,859.1,273.5,858.8,272.4,858.2z M278.4,856.9c0.7-0.4,1.3-1,1.7-1.8
		c0.4-0.8,0.6-1.7,0.6-2.7s-0.2-1.9-0.6-2.7c-0.4-0.8-1-1.4-1.7-1.8s-1.6-0.6-2.5-0.6c-0.9,0-1.8,0.2-2.5,0.6s-1.3,1-1.8,1.8
		c-0.4,0.8-0.6,1.7-0.6,2.7s0.2,1.9,0.6,2.7c0.4,0.8,1,1.4,1.8,1.8c0.7,0.4,1.6,0.6,2.5,0.6C276.8,857.5,277.6,857.3,278.4,856.9z"
		/>
	<path class="st4" d="M286.6,858.6c-1-0.3-1.7-0.7-2.3-1.2l0.8-1.4c0.5,0.4,1.2,0.8,2.1,1.1c0.8,0.3,1.7,0.4,2.6,0.4
		c1.2,0,2.1-0.2,2.7-0.6c0.6-0.4,0.9-0.9,0.9-1.6c0-0.5-0.2-0.9-0.5-1.1c-0.3-0.3-0.7-0.5-1.2-0.6c-0.5-0.1-1.1-0.3-1.9-0.4
		c-1.1-0.2-1.9-0.4-2.6-0.6s-1.2-0.6-1.7-1.1c-0.5-0.5-0.7-1.2-0.7-2.1c0-1.1,0.5-2,1.4-2.7c0.9-0.7,2.2-1,3.8-1
		c0.8,0,1.7,0.1,2.5,0.3c0.9,0.2,1.5,0.5,2.1,0.9l-0.8,1.4c-1.1-0.8-2.4-1.1-3.9-1.1c-1.1,0-2,0.2-2.6,0.6c-0.6,0.4-0.9,0.9-0.9,1.6
		c0,0.5,0.2,0.9,0.5,1.2c0.3,0.3,0.7,0.5,1.2,0.7c0.5,0.1,1.1,0.3,2,0.4c1,0.2,1.9,0.4,2.5,0.6c0.6,0.2,1.2,0.5,1.6,1s0.7,1.2,0.7,2
		c0,1.2-0.5,2.1-1.4,2.7s-2.3,1-4,1C288.6,859.1,287.6,858.9,286.6,858.6z"/>
	<path class="st4" d="M308.5,846.6c1,0.6,1.8,1.3,2.4,2.4c0.6,1,0.8,2.2,0.8,3.5c0,1.3-0.3,2.5-0.8,3.5c-0.6,1-1.3,1.8-2.3,2.4
		c-1,0.6-2.1,0.8-3.4,0.8c-1.1,0-2-0.2-2.9-0.7s-1.6-1.1-2.1-1.9v7.3h-1.8v-18h1.7v2.6c0.5-0.9,1.2-1.5,2.1-2s1.9-0.7,3-0.7
		C306.4,845.7,307.5,846,308.5,846.6z M307.5,856.9c0.8-0.4,1.3-1,1.8-1.8c0.4-0.8,0.6-1.7,0.6-2.7s-0.2-1.9-0.6-2.7
		c-0.4-0.8-1-1.4-1.8-1.8s-1.6-0.7-2.5-0.7c-0.9,0-1.8,0.2-2.5,0.7s-1.3,1-1.8,1.8c-0.4,0.8-0.6,1.7-0.6,2.7s0.2,1.9,0.6,2.7
		c0.4,0.8,1,1.4,1.8,1.8c0.7,0.4,1.6,0.6,2.5,0.6C306,857.5,306.8,857.3,307.5,856.9z"/>
	<path class="st4" d="M317.3,858.2c-1-0.6-1.8-1.4-2.4-2.4s-0.9-2.2-0.9-3.5c0-1.3,0.3-2.4,0.9-3.5c0.6-1,1.4-1.8,2.4-2.4
		c1-0.6,2.2-0.8,3.4-0.8c1.3,0,2.4,0.3,3.4,0.8c1,0.6,1.8,1.4,2.4,2.4c0.6,1,0.9,2.2,0.9,3.5c0,1.3-0.3,2.4-0.9,3.5
		c-0.6,1-1.4,1.8-2.4,2.4s-2.2,0.9-3.4,0.9C319.4,859.1,318.3,858.8,317.3,858.2z M323.2,856.9c0.7-0.4,1.3-1,1.7-1.8
		c0.4-0.8,0.6-1.7,0.6-2.7s-0.2-1.9-0.6-2.7c-0.4-0.8-1-1.4-1.7-1.8s-1.6-0.6-2.5-0.6c-0.9,0-1.8,0.2-2.5,0.6s-1.3,1-1.8,1.8
		c-0.4,0.8-0.6,1.7-0.6,2.7s0.2,1.9,0.6,2.7c0.4,0.8,1,1.4,1.8,1.8c0.7,0.4,1.6,0.6,2.5,0.6C321.6,857.5,322.5,857.3,323.2,856.9z"
		/>
	<path class="st4" d="M334.6,846.4c0.8-0.5,1.8-0.7,3.1-0.7v1.7l-0.4,0c-1.4,0-2.5,0.4-3.3,1.3c-0.8,0.9-1.2,2-1.2,3.6v6.7H331
		v-13.2h1.7v2.6C333.1,847.5,333.8,846.8,334.6,846.4z"/>
	<path class="st4" d="M352.7,840.4V859H351v-2.6c-0.5,0.9-1.2,1.6-2.1,2c-0.9,0.5-1.9,0.7-3,0.7c-1.2,0-2.4-0.3-3.4-0.8
		s-1.8-1.4-2.4-2.4c-0.6-1-0.9-2.2-0.9-3.5s0.3-2.5,0.9-3.5c0.6-1,1.4-1.8,2.4-2.4s2.1-0.8,3.4-0.8c1.1,0,2,0.2,2.9,0.7
		c0.9,0.4,1.6,1.1,2.1,1.9v-7.9H352.7z M348.6,856.9c0.7-0.4,1.3-1,1.8-1.8c0.4-0.8,0.6-1.7,0.6-2.7s-0.2-1.9-0.6-2.7
		c-0.4-0.8-1-1.4-1.8-1.8s-1.6-0.6-2.5-0.6c-0.9,0-1.8,0.2-2.5,0.6s-1.3,1-1.8,1.8c-0.4,0.8-0.6,1.7-0.6,2.7s0.2,1.9,0.6,2.7
		c0.4,0.8,1,1.4,1.8,1.8c0.7,0.4,1.6,0.6,2.5,0.6C347,857.5,347.8,857.3,348.6,856.9z"/>
	<path class="st4" d="M369.1,852.9h-11c0.1,1.4,0.6,2.5,1.6,3.3c1,0.8,2.1,1.3,3.6,1.3c0.8,0,1.6-0.1,2.3-0.4
		c0.7-0.3,1.3-0.7,1.8-1.3l1,1.1c-0.6,0.7-1.3,1.2-2.2,1.6s-1.8,0.5-2.9,0.5c-1.3,0-2.5-0.3-3.6-0.9s-1.9-1.4-2.4-2.4
		s-0.9-2.2-0.9-3.5c0-1.3,0.3-2.4,0.8-3.5c0.6-1,1.3-1.8,2.3-2.4c1-0.6,2.1-0.8,3.3-0.8c1.2,0,2.3,0.3,3.3,0.8
		c1,0.6,1.7,1.4,2.3,2.4c0.5,1,0.8,2.2,0.8,3.5L369.1,852.9z M359.6,848.5c-0.9,0.8-1.3,1.9-1.5,3.2h9.3c-0.1-1.3-0.6-2.4-1.5-3.2
		c-0.9-0.8-1.9-1.2-3.2-1.2C361.5,847.2,360.4,847.6,359.6,848.5z"/>
	<path class="st4" d="M383.4,847.2c1,1,1.5,2.4,1.5,4.2v7.6h-1.8v-7.5c0-1.4-0.3-2.4-1-3.1c-0.7-0.7-1.7-1.1-2.9-1.1
		c-1.4,0-2.5,0.4-3.4,1.3c-0.8,0.8-1.2,2-1.2,3.5v6.9h-1.8v-13.2h1.7v2.4c0.5-0.8,1.2-1.4,2-1.9c0.9-0.4,1.9-0.7,3-0.7
		C381.1,845.7,382.4,846.2,383.4,847.2z"/>
</g>
<rect x="462.1" y="934.7" class="st2" width="162.9" height="31"/>
<g class="st3">
	<path class="st4" d="M482.5,954.8c-0.5,0.7-1.2,1.1-1.9,1.5c-0.7,0.3-1.5,0.5-2.4,0.5c-1,0-2-0.3-2.9-0.8c-0.9-0.5-2-1.4-3.1-2.6
		c-1.7-0.1-3.2-0.5-4.5-1.3s-2.4-1.8-3.2-3.2c-0.8-1.3-1.2-2.8-1.2-4.5c0-1.7,0.4-3.2,1.2-4.5c0.8-1.4,1.9-2.4,3.3-3.2
		c1.4-0.8,3-1.2,4.7-1.2s3.3,0.4,4.7,1.2s2.5,1.8,3.3,3.2c0.8,1.4,1.2,2.9,1.2,4.6c0,1.5-0.3,2.8-0.9,4c-0.6,1.2-1.5,2.2-2.6,3.1
		c-1.1,0.8-2.3,1.4-3.8,1.6c1.3,1.4,2.5,2,3.8,2c1.3,0,2.4-0.5,3.3-1.6L482.5,954.8z M466.1,948.2c0.6,1.1,1.5,2,2.6,2.6
		c1.1,0.6,2.4,1,3.8,1c1.4,0,2.6-0.3,3.8-1c1.1-0.6,2-1.5,2.6-2.6c0.6-1.1,1-2.3,1-3.7c0-1.4-0.3-2.6-1-3.7c-0.6-1.1-1.5-2-2.6-2.6
		c-1.1-0.6-2.4-1-3.8-1c-1.4,0-2.6,0.3-3.8,1s-2,1.5-2.6,2.6c-0.6,1.1-1,2.3-1,3.7C465.2,945.9,465.5,947.1,466.1,948.2z"/>
	<path class="st4" d="M497.4,940.1v13.2h-1.7v-2.4c-0.5,0.8-1.1,1.4-1.9,1.9c-0.8,0.4-1.8,0.7-2.8,0.7c-1.7,0-3.1-0.5-4.1-1.4
		c-1-1-1.5-2.4-1.5-4.2v-7.6h1.8v7.5c0,1.4,0.3,2.4,1,3.2c0.7,0.7,1.7,1.1,2.9,1.1c1.4,0,2.5-0.4,3.3-1.3c0.8-0.8,1.2-2,1.2-3.5
		v-6.9H497.4z"/>
	<path class="st4" d="M502.3,936.9c-0.3-0.3-0.4-0.5-0.4-0.9c0-0.3,0.1-0.6,0.4-0.9s0.6-0.4,0.9-0.4s0.7,0.1,0.9,0.4
		c0.3,0.2,0.4,0.5,0.4,0.9c0,0.4-0.1,0.7-0.4,0.9s-0.6,0.4-0.9,0.4S502.6,937.1,502.3,936.9z M502.3,940.1h1.8v13.2h-1.8V940.1z"/>
	<path class="st4" d="M529.3,941.5c0.9,1,1.4,2.4,1.4,4.2v7.6H529v-7.5c0-1.4-0.3-2.4-1-3.1c-0.7-0.7-1.6-1.1-2.8-1.1
		c-1.4,0-2.4,0.4-3.2,1.3c-0.8,0.8-1.2,2-1.2,3.5v6.9H519v-7.5c0-1.4-0.3-2.4-1-3.1c-0.7-0.7-1.6-1.1-2.8-1.1
		c-1.3,0-2.4,0.4-3.2,1.3c-0.8,0.8-1.2,2-1.2,3.5v6.9h-1.8v-13.2h1.7v2.4c0.5-0.8,1.1-1.4,2-1.8c0.8-0.4,1.8-0.7,2.9-0.7
		c1.1,0,2.1,0.2,2.9,0.7s1.4,1.2,1.8,2.1c0.5-0.9,1.2-1.5,2.1-2c0.9-0.5,1.9-0.7,3.1-0.7C527.1,940,528.4,940.5,529.3,941.5z"/>
	<path class="st4" d="M545.7,940.9c1,0.6,1.8,1.3,2.3,2.4s0.8,2.2,0.8,3.5c0,1.3-0.3,2.5-0.8,3.5s-1.3,1.8-2.3,2.4
		c-1,0.6-2.1,0.8-3.4,0.8c-1.1,0-2-0.2-2.9-0.7s-1.6-1.1-2.1-1.9v7.3h-1.8v-18h1.7v2.6c0.5-0.9,1.2-1.5,2.1-2s1.9-0.7,3-0.7
		C543.6,940,544.7,940.3,545.7,940.9z M544.7,951.2c0.8-0.4,1.3-1,1.8-1.8c0.4-0.8,0.6-1.7,0.6-2.7s-0.2-1.9-0.6-2.7
		c-0.4-0.8-1-1.4-1.8-1.8s-1.6-0.7-2.5-0.7c-0.9,0-1.8,0.2-2.5,0.7c-0.7,0.4-1.3,1-1.8,1.8c-0.4,0.8-0.6,1.7-0.6,2.7
		s0.2,1.9,0.6,2.7c0.4,0.8,1,1.4,1.8,1.8c0.7,0.4,1.6,0.6,2.5,0.6C543.2,951.8,544,951.6,544.7,951.2z"/>
	<path class="st4" d="M564,947.3h-11c0.1,1.4,0.6,2.5,1.6,3.3c1,0.8,2.1,1.3,3.6,1.3c0.8,0,1.6-0.1,2.3-0.4c0.7-0.3,1.3-0.7,1.8-1.3
		l1,1.1c-0.6,0.7-1.3,1.2-2.2,1.6s-1.8,0.5-2.9,0.5c-1.3,0-2.5-0.3-3.6-0.9c-1-0.6-1.9-1.4-2.4-2.4c-0.6-1-0.9-2.2-0.9-3.5
		c0-1.3,0.3-2.4,0.8-3.5c0.6-1,1.3-1.8,2.3-2.4c1-0.6,2.1-0.8,3.3-0.8c1.2,0,2.3,0.3,3.3,0.8c1,0.6,1.7,1.4,2.3,2.4
		c0.5,1,0.8,2.2,0.8,3.5L564,947.3z M554.4,942.8c-0.9,0.8-1.3,1.9-1.5,3.2h9.3c-0.1-1.3-0.6-2.4-1.5-3.2c-0.9-0.8-1.9-1.2-3.2-1.2
		C556.4,941.6,555.3,942,554.4,942.8z"/>
	<path class="st4" d="M571.2,940.7c0.8-0.5,1.8-0.7,3.1-0.7v1.7l-0.4,0c-1.4,0-2.5,0.4-3.3,1.3c-0.8,0.9-1.2,2-1.2,3.6v6.7h-1.8
		v-13.2h1.7v2.6C569.7,941.8,570.4,941.2,571.2,940.7z"/>
	<path class="st4" d="M577.5,934.7h1.8v18.5h-1.8V934.7z"/>
	<path class="st4" d="M595.6,947.3h-11c0.1,1.4,0.6,2.5,1.6,3.3c1,0.8,2.1,1.3,3.6,1.3c0.8,0,1.6-0.1,2.3-0.4
		c0.7-0.3,1.3-0.7,1.8-1.3l1,1.1c-0.6,0.7-1.3,1.2-2.2,1.6s-1.8,0.5-2.9,0.5c-1.3,0-2.5-0.3-3.6-0.9c-1-0.6-1.9-1.4-2.4-2.4
		c-0.6-1-0.9-2.2-0.9-3.5c0-1.3,0.3-2.4,0.8-3.5c0.6-1,1.3-1.8,2.3-2.4c1-0.6,2.1-0.8,3.3-0.8c1.2,0,2.3,0.3,3.3,0.8
		c1,0.6,1.7,1.4,2.3,2.4c0.5,1,0.8,2.2,0.8,3.5L595.6,947.3z M586.1,942.8c-0.9,0.8-1.3,1.9-1.5,3.2h9.3c-0.1-1.3-0.6-2.4-1.5-3.2
		c-0.9-0.8-1.9-1.2-3.2-1.2C588,941.6,587,942,586.1,942.8z M591.1,935h2.4l-4,3.1h-1.8L591.1,935z"/>
</g>
<rect x="843" y="715.6" class="st2" width="125.2" height="21.5"/>
<g class="st3">
	<path class="st4" d="M857.7,718.2c1.3,1.1,1.9,2.5,1.9,4.4c0,1.9-0.6,3.3-1.9,4.4s-3,1.6-5.3,1.6h-4.7v5.5h-1.9v-17.5h6.5
		C854.7,716.6,856.4,717.2,857.7,718.2z M856.4,725.8c0.9-0.8,1.4-1.8,1.4-3.2c0-1.4-0.5-2.5-1.4-3.3c-0.9-0.8-2.2-1.1-4-1.1h-4.6
		v8.8h4.6C854.1,727,855.4,726.6,856.4,725.8z"/>
	<path class="st4" d="M865.1,733.4c-1-0.6-1.8-1.4-2.4-2.4c-0.6-1-0.9-2.2-0.9-3.5c0-1.3,0.3-2.4,0.9-3.5c0.6-1,1.4-1.8,2.4-2.4
		c1-0.6,2.2-0.8,3.4-0.8s2.4,0.3,3.4,0.8c1,0.6,1.8,1.4,2.4,2.4c0.6,1,0.9,2.2,0.9,3.5c0,1.3-0.3,2.4-0.9,3.5s-1.4,1.8-2.4,2.4
		s-2.2,0.9-3.4,0.9S866.1,734,865.1,733.4z M871,732c0.7-0.4,1.3-1,1.7-1.8c0.4-0.8,0.6-1.7,0.6-2.7s-0.2-1.9-0.6-2.7
		s-1-1.4-1.7-1.8c-0.7-0.4-1.6-0.6-2.5-0.6s-1.8,0.2-2.5,0.6c-0.7,0.4-1.3,1-1.8,1.8c-0.4,0.8-0.6,1.7-0.6,2.7s0.2,1.9,0.6,2.7
		c0.4,0.8,1,1.4,1.8,1.8c0.7,0.4,1.6,0.6,2.5,0.6S870.3,732.5,871,732z"/>
	<path class="st4" d="M889.5,722.3c1,1,1.5,2.4,1.5,4.2v7.6h-1.8v-7.5c0-1.4-0.3-2.4-1-3.1c-0.7-0.7-1.7-1.1-2.9-1.1
		c-1.4,0-2.5,0.4-3.4,1.3c-0.8,0.8-1.2,2-1.2,3.5v6.9h-1.8V721h1.7v2.4c0.5-0.8,1.2-1.4,2-1.9c0.9-0.4,1.9-0.7,3-0.7
		C887.2,720.9,888.5,721.4,889.5,722.3z"/>
	<path class="st4" d="M902.7,733.3c-0.3,0.3-0.7,0.5-1.2,0.7s-1,0.2-1.5,0.2c-1.2,0-2.2-0.3-2.9-1c-0.7-0.7-1-1.6-1-2.8v-8h-2.3V721
		h2.3v-2.9h1.8v2.9h4v1.5h-4v7.9c0,0.8,0.2,1.4,0.6,1.8c0.4,0.4,1,0.6,1.7,0.6c0.4,0,0.7-0.1,1.1-0.2c0.3-0.1,0.6-0.3,0.9-0.5
		L902.7,733.3z"/>
	<path class="st4" d="M905.9,717.7c-0.3-0.3-0.4-0.5-0.4-0.9c0-0.3,0.1-0.6,0.4-0.9s0.6-0.4,0.9-0.4s0.7,0.1,0.9,0.4
		c0.3,0.2,0.4,0.5,0.4,0.9c0,0.4-0.1,0.7-0.4,0.9s-0.6,0.4-0.9,0.4S906.1,718,905.9,717.7z M905.9,721h1.8v13.2h-1.8V721z"/>
	<path class="st4" d="M923.7,721l-5.8,13.2H916l-5.8-13.2h1.9l4.9,11.2l5-11.2H923.7z"/>
	<path class="st4" d="M937.1,721l-6.6,14.7c-0.5,1.2-1.2,2.1-1.9,2.6s-1.5,0.8-2.5,0.8c-0.6,0-1.2-0.1-1.8-0.3s-1-0.5-1.4-0.9
		l0.8-1.3c0.7,0.7,1.5,1,2.4,1c0.6,0,1.1-0.2,1.5-0.5c0.4-0.3,0.8-0.9,1.2-1.7l0.6-1.3l-5.9-13.1h1.9l5,11.2l4.9-11.2H937.1z"/>
</g>
<rect x="435.8" y="507" class="st2" width="137.2" height="37.3"/>
<g class="st3">
	<path d="M441.4,524.7c-1.4-0.8-2.6-1.9-3.4-3.2c-0.8-1.4-1.2-2.9-1.2-4.7s0.4-3.3,1.2-4.7c0.8-1.4,2-2.5,3.4-3.2
		c1.4-0.8,3.1-1.2,4.9-1.2c1.5,0,2.9,0.3,4.1,0.8s2.3,1.3,3.1,2.3l-2.6,2.4c-1.2-1.4-2.7-2-4.4-2c-1.1,0-2,0.2-2.9,0.7
		c-0.9,0.5-1.5,1.1-2,2c-0.5,0.9-0.7,1.8-0.7,2.9c0,1.1,0.2,2,0.7,2.9c0.5,0.8,1.1,1.5,2,2c0.9,0.5,1.8,0.7,2.9,0.7
		c1.8,0,3.2-0.7,4.4-2.1l2.6,2.4c-0.8,1-1.9,1.8-3.1,2.3c-1.2,0.5-2.6,0.8-4.1,0.8C444.4,525.9,442.8,525.5,441.4,524.7z"/>
	<path d="M466,513.4c1.1,1,1.7,2.5,1.7,4.5v7.7H464v-1.7c-0.7,1.3-2.1,1.9-4.1,1.9c-1,0-1.9-0.2-2.7-0.5c-0.8-0.3-1.3-0.8-1.7-1.5
		c-0.4-0.6-0.6-1.3-0.6-2.1c0-1.3,0.5-2.2,1.4-3c0.9-0.7,2.4-1.1,4.4-1.1h3.1c0-0.8-0.3-1.5-0.8-2s-1.3-0.7-2.3-0.7
		c-0.7,0-1.4,0.1-2.1,0.3c-0.7,0.2-1.3,0.5-1.8,0.9l-1.4-2.7c0.7-0.5,1.6-0.9,2.6-1.2s2.1-0.4,3.2-0.4
		C463.3,511.9,464.9,512.4,466,513.4z M462.7,522.7c0.5-0.3,0.9-0.8,1.1-1.4v-1.4h-2.7c-1.6,0-2.4,0.5-2.4,1.6
		c0,0.5,0.2,0.9,0.6,1.2s0.9,0.4,1.6,0.4C461.6,523.1,462.2,523,462.7,522.7z"/>
	<path d="M476.8,512.4c0.8-0.3,1.7-0.5,2.7-0.5v3.6c-0.4,0-0.7,0-0.9,0c-1.1,0-2,0.3-2.6,0.9s-0.9,1.6-0.9,2.8v6.3h-3.9v-13.5h3.7
		v1.8C475.4,513.2,476,512.7,476.8,512.4z"/>
	<path d="M494.1,513.4c1,1,1.5,2.5,1.5,4.5v7.7h-3.9v-7.1c0-1.1-0.2-1.9-0.7-2.4c-0.5-0.5-1.1-0.8-2-0.8c-1,0-1.8,0.3-2.3,0.9
		c-0.6,0.6-0.9,1.5-0.9,2.7v6.7h-3.9V507h3.9v6.5c0.5-0.5,1.1-0.9,1.9-1.2c0.7-0.3,1.5-0.4,2.4-0.4
		C491.7,511.9,493.1,512.4,494.1,513.4z"/>
	<path d="M509.4,513.4c1.1,1,1.7,2.5,1.7,4.5v7.7h-3.7v-1.7c-0.7,1.3-2.1,1.9-4.1,1.9c-1,0-1.9-0.2-2.7-0.5
		c-0.8-0.3-1.3-0.8-1.7-1.5c-0.4-0.6-0.6-1.3-0.6-2.1c0-1.3,0.5-2.2,1.4-3c0.9-0.7,2.4-1.1,4.4-1.1h3.1c0-0.8-0.3-1.5-0.8-2
		s-1.3-0.7-2.3-0.7c-0.7,0-1.4,0.1-2.1,0.3c-0.7,0.2-1.3,0.5-1.8,0.9l-1.4-2.7c0.7-0.5,1.6-0.9,2.6-1.2c1-0.3,2.1-0.4,3.2-0.4
		C506.7,511.9,508.3,512.4,509.4,513.4z M506.1,522.7c0.5-0.3,0.9-0.8,1.1-1.4v-1.4h-2.7c-1.6,0-2.4,0.5-2.4,1.6
		c0,0.5,0.2,0.9,0.6,1.2s0.9,0.4,1.6,0.4C505,523.1,505.5,523,506.1,522.7z"/>
	<path d="M514.8,509.6c-0.5-0.4-0.7-0.9-0.7-1.5c0-0.6,0.2-1.1,0.7-1.5s1-0.6,1.8-0.6c0.7,0,1.3,0.2,1.8,0.6
		c0.5,0.4,0.7,0.9,0.7,1.5c0,0.7-0.2,1.2-0.7,1.6c-0.5,0.4-1,0.6-1.8,0.6C515.8,510.2,515.2,510,514.8,509.6z M514.6,512.1h3.9v13.5
		h-3.9V512.1z"/>
	<path d="M530.7,525.6l-3-4.1l-3,4.1h-4.3l5.2-6.8l-5-6.7h4.4l2.8,3.9l2.9-3.9h4.2l-5,6.6l5.2,6.9H530.7z"/>
</g>
<rect x="625" y="538.4" class="st2" width="186.7" height="22.2"/>
<g class="st3">
	<path class="st4" d="M639.8,556.9l-4-5.6c-0.4,0-0.9,0.1-1.4,0.1h-4.7v5.5h-1.8v-17.5h6.5c2.2,0,4,0.5,5.3,1.6
		c1.3,1.1,1.9,2.5,1.9,4.4c0,1.4-0.3,2.5-1,3.5s-1.7,1.6-3,2l4.3,6H639.8z M638.3,548.7c0.9-0.8,1.4-1.8,1.4-3.2
		c0-1.4-0.5-2.5-1.4-3.3c-0.9-0.8-2.2-1.1-4-1.1h-4.7v8.8h4.7C636,549.8,637.4,549.4,638.3,548.7z"/>
	<path class="st4" d="M647.5,556.2c-1-0.6-1.8-1.4-2.4-2.4c-0.6-1-0.9-2.2-0.9-3.5c0-1.3,0.3-2.4,0.9-3.5c0.6-1,1.4-1.8,2.4-2.4
		c1-0.6,2.2-0.8,3.4-0.8s2.4,0.3,3.4,0.8c1,0.6,1.8,1.4,2.4,2.4c0.6,1,0.9,2.2,0.9,3.5c0,1.3-0.3,2.4-0.9,3.5s-1.4,1.8-2.4,2.4
		s-2.2,0.9-3.4,0.9S648.5,556.8,647.5,556.2z M653.4,554.8c0.7-0.4,1.3-1,1.7-1.8c0.4-0.8,0.6-1.7,0.6-2.7s-0.2-1.9-0.6-2.7
		s-1-1.4-1.7-1.8c-0.7-0.4-1.6-0.6-2.5-0.6s-1.8,0.2-2.5,0.6c-0.7,0.4-1.3,1-1.8,1.8c-0.4,0.8-0.6,1.7-0.6,2.7s0.2,1.9,0.6,2.7
		c0.4,0.8,1,1.4,1.8,1.8c0.7,0.4,1.6,0.6,2.5,0.6S652.6,555.3,653.4,554.8z"/>
	<path class="st4" d="M661.6,556.6c-1-0.3-1.7-0.7-2.3-1.2l0.8-1.4c0.5,0.4,1.2,0.8,2.1,1.1c0.8,0.3,1.7,0.4,2.6,0.4
		c1.2,0,2.1-0.2,2.7-0.6c0.6-0.4,0.9-0.9,0.9-1.6c0-0.5-0.2-0.9-0.5-1.1c-0.3-0.3-0.7-0.5-1.2-0.6c-0.5-0.1-1.1-0.3-1.9-0.4
		c-1.1-0.2-1.9-0.4-2.6-0.6c-0.7-0.2-1.2-0.6-1.7-1.1s-0.7-1.2-0.7-2.1c0-1.1,0.5-2,1.4-2.7s2.2-1,3.8-1c0.8,0,1.7,0.1,2.5,0.3
		c0.9,0.2,1.5,0.5,2.1,0.9l-0.8,1.4c-1.1-0.8-2.4-1.1-3.9-1.1c-1.1,0-2,0.2-2.6,0.6s-0.9,0.9-0.9,1.6c0,0.5,0.2,0.9,0.5,1.2
		c0.3,0.3,0.7,0.5,1.2,0.7c0.5,0.1,1.1,0.3,2,0.4c1,0.2,1.9,0.4,2.5,0.6c0.6,0.2,1.2,0.5,1.6,1s0.7,1.2,0.7,2c0,1.2-0.5,2.1-1.4,2.7
		c-1,0.7-2.3,1-4,1C663.6,557.1,662.6,556.9,661.6,556.6z"/>
	<path class="st4" d="M680.3,556.1c-0.3,0.3-0.7,0.5-1.2,0.7c-0.5,0.2-1,0.2-1.5,0.2c-1.2,0-2.2-0.3-2.8-1c-0.7-0.7-1-1.6-1-2.8v-8
		h-2.4v-1.5h2.4v-2.9h1.8v2.9h4v1.5h-4v7.9c0,0.8,0.2,1.4,0.6,1.8c0.4,0.4,1,0.6,1.7,0.6c0.4,0,0.7-0.1,1.1-0.2
		c0.3-0.1,0.6-0.3,0.9-0.5L680.3,556.1z"/>
	<path class="st4" d="M687.1,544.4c0.8-0.5,1.8-0.7,3.1-0.7v1.7l-0.4,0c-1.4,0-2.5,0.4-3.3,1.3c-0.8,0.9-1.2,2-1.2,3.6v6.7h-1.8
		v-13.2h1.7v2.6C685.7,545.5,686.3,544.8,687.1,544.4z"/>
	<path class="st4" d="M704.7,550.9h-11c0.1,1.4,0.6,2.5,1.6,3.3c1,0.8,2.1,1.3,3.6,1.3c0.8,0,1.6-0.1,2.3-0.4
		c0.7-0.3,1.3-0.7,1.8-1.3l1,1.1c-0.6,0.7-1.3,1.2-2.2,1.6s-1.8,0.5-2.9,0.5c-1.3,0-2.5-0.3-3.6-0.9c-1-0.6-1.9-1.4-2.4-2.4
		c-0.6-1-0.9-2.2-0.9-3.5c0-1.3,0.3-2.4,0.8-3.5c0.6-1,1.3-1.8,2.3-2.4c1-0.6,2.1-0.8,3.3-0.8c1.2,0,2.3,0.3,3.3,0.8
		c1,0.6,1.7,1.4,2.3,2.4c0.5,1,0.8,2.2,0.8,3.5L704.7,550.9z M695.2,546.4c-0.9,0.8-1.3,1.9-1.5,3.2h9.3c-0.1-1.3-0.6-2.4-1.5-3.2
		c-0.9-0.8-1.9-1.2-3.2-1.2C697.1,545.2,696,545.6,695.2,546.4z"/>
	<path class="st4" d="M719,545.1c1,1,1.5,2.4,1.5,4.2v7.6h-1.8v-7.5c0-1.4-0.3-2.4-1-3.1c-0.7-0.7-1.7-1.1-2.9-1.1
		c-1.4,0-2.5,0.4-3.4,1.3c-0.8,0.8-1.2,2-1.2,3.5v6.9h-1.8v-13.2h1.7v2.4c0.5-0.8,1.2-1.4,2-1.9c0.9-0.4,1.9-0.7,3-0.7
		C716.7,543.7,718,544.2,719,545.1z"/>
	<path class="st4" d="M736.8,550.9h-11c0.1,1.4,0.6,2.5,1.6,3.3c1,0.8,2.1,1.3,3.6,1.3c0.8,0,1.6-0.1,2.3-0.4
		c0.7-0.3,1.3-0.7,1.8-1.3l1,1.1c-0.6,0.7-1.3,1.2-2.2,1.6s-1.8,0.5-2.9,0.5c-1.3,0-2.5-0.3-3.6-0.9c-1-0.6-1.9-1.4-2.4-2.4
		c-0.6-1-0.9-2.2-0.9-3.5c0-1.3,0.3-2.4,0.8-3.5c0.6-1,1.3-1.8,2.3-2.4c1-0.6,2.1-0.8,3.3-0.8c1.2,0,2.3,0.3,3.3,0.8
		c1,0.6,1.7,1.4,2.3,2.4c0.5,1,0.8,2.2,0.8,3.5L736.8,550.9z M727.2,546.4c-0.9,0.8-1.3,1.9-1.5,3.2h9.3c-0.1-1.3-0.6-2.4-1.5-3.2
		c-0.9-0.8-1.9-1.2-3.2-1.2C729.2,545.2,728.1,545.6,727.2,546.4z"/>
	<path class="st4" d="M751.1,545.1c1,1,1.5,2.4,1.5,4.2v7.6h-1.8v-7.5c0-1.4-0.3-2.4-1-3.1c-0.7-0.7-1.7-1.1-2.9-1.1
		c-1.4,0-2.5,0.4-3.4,1.3c-0.8,0.8-1.2,2-1.2,3.5v6.9h-1.8v-13.2h1.7v2.4c0.5-0.8,1.2-1.4,2-1.9c0.9-0.4,1.9-0.7,3-0.7
		C748.8,543.7,750.1,544.2,751.1,545.1z"/>
</g>
<g>
	<path class="st4" d="M486.4,500l-12.6-16.8c-2.3-3-3.4-6.8-3.1-10.6c0.3-3.8,1.9-7.4,4.6-10c3-3,6.9-4.6,11.2-4.6
		c4.2,0,8.2,1.6,11.2,4.6c2.7,2.7,4.3,6.3,4.6,10c0.3,3.8-0.8,7.5-3.1,10.6L486.4,500z M486.4,460.3c-3.6,0-7,1.4-9.5,4
		c-4.7,4.7-5.3,12.3-1.2,17.6l10.8,14.3l10.8-14.3c4-5.3,3.5-12.9-1.2-17.6l0,0C493.4,461.7,490,460.3,486.4,460.3 M486.4,482.2
		c-4.7,0-8.5-3.8-8.5-8.5c0-4.7,3.8-8.5,8.5-8.5c4.7,0,8.5,3.8,8.5,8.5C494.8,478.4,491,482.2,486.4,482.2 M486.4,467.6
		c-3.4,0-6.2,2.8-6.2,6.2s2.8,6.2,6.2,6.2s6.2-2.8,6.2-6.2C492.5,470.3,489.8,467.6,486.4,467.6"/>
</g>
</svg>
